<?xml version="1.0" standalone="no"?>
<!DOCTYPE svg PUBLIC "-//W3C//DTD SVG 20010904//EN"
 "http://www.w3.org/TR/2001/REC-SVG-20010904/DTD/svg10.dtd">
<svg version="1.0" xmlns="http://www.w3.org/2000/svg"
 width="1800.000000pt" height="900.000000pt" viewBox="0 0 1800.000000 900.000000"
 preserveAspectRatio="xMidYMid meet">

<g transform="translate(0.000000,900.000000) scale(0.100000,-0.100000)"
fill="#000000" stroke="none">
<path d="M490 8987 c118 -45 255 -182 282 -281 10 -37 10 -53 -1 -83 -12 -34
-12 -38 4 -48 93 -54 142 -171 114 -273 -11 -41 -49 -103 -84 -137 -72 -70
-179 -107 -299 -103 l-78 2 -24 -45 c-25 -51 -112 -135 -159 -154 -65 -28
-162 -27 -228 0 -11 5 -17 3 -17 -7 0 -40 186 -50 255 -14 65 34 156 121 175
167 11 25 15 26 105 32 107 7 177 33 262 97 77 59 106 114 111 214 3 74 1 86
-25 136 -18 33 -44 64 -66 79 -29 19 -34 27 -27 42 19 35 11 110 -16 158 -59
102 -202 220 -278 228 l-41 4 35 -14z"/>
<path d="M17221 8989 c-13 -5 -22 -12 -19 -15 3 -3 21 2 39 10 37 16 19 21
-20 5z"/>
<path d="M14600 8905 c-7 -8 -8 -15 -2 -15 5 0 15 7 22 15 7 8 8 15 2 15 -5 0
-15 -7 -22 -15z"/>
<path d="M17049 8873 c-47 -50 -77 -99 -67 -109 4 -3 14 11 24 31 9 20 34 55
56 78 36 39 42 47 35 47 -1 0 -23 -21 -48 -47z"/>
<path d="M8803 8896 c-32 -7 -60 -21 -76 -37 -13 -15 -35 -30 -48 -34 -45 -15
-165 -103 -221 -163 -60 -66 -128 -188 -128 -231 1 -20 5 -14 19 24 32 90 54
127 110 188 81 87 210 177 255 177 18 0 29 -176 24 -399 l-3 -155 -115 -17
c-122 -18 -190 -32 -234 -49 l-28 -10 4 -173 c3 -166 2 -173 -21 -209 -12 -21
-28 -38 -33 -38 -11 0 -9 8 17 79 13 36 15 65 9 150 -6 97 -22 180 -23 127 -1
-11 -13 -35 -28 -54 -17 -23 -23 -37 -15 -40 7 -2 9 -8 6 -13 -4 -6 -10 -6
-18 1 -10 7 -25 -2 -58 -38 l-46 -49 2 -99 c2 -54 7 -108 13 -119 6 -11 8 -26
6 -33 -6 -14 27 -82 38 -82 4 0 9 5 11 11 3 9 9 9 24 1 15 -8 20 -22 21 -59 2
-42 7 -52 40 -81 21 -19 37 -39 36 -45 -2 -7 19 -21 45 -31 84 -34 112 -55
112 -85 0 -15 -6 -35 -12 -44 -9 -12 -116 -43 -351 -101 -185 -47 -343 -86
-350 -89 -6 -2 29 -35 78 -73 114 -88 175 -144 175 -158 0 -6 -37 -60 -82
-121 l-83 -109 -109 -48 -108 -48 -292 0 c-219 0 -296 3 -308 13 -9 6 -39 40
-67 74 -34 41 -56 60 -66 57 -26 -11 -16 -27 66 -109 54 -54 78 -86 75 -97 -3
-15 3 -18 33 -18 20 0 41 3 47 8 5 4 73 6 152 4 121 -3 142 -6 142 -19 0 -14
12 -15 88 -10 48 3 98 11 112 18 14 6 88 37 165 68 l140 56 77 118 c43 64 81
117 85 117 5 0 21 -11 38 -24 l29 -24 -28 -63 c-15 -35 -44 -102 -63 -149 -19
-47 -42 -92 -51 -101 -9 -9 -91 -45 -181 -80 -128 -50 -165 -68 -172 -86 -5
-13 -27 -98 -49 -191 -23 -92 -44 -173 -48 -179 -5 -7 -38 -9 -99 -6 l-93 6 0
57 c0 53 5 91 32 233 6 34 23 74 39 97 31 42 26 56 -15 41 -19 -8 -26 -20 -31
-48 -3 -21 -13 -76 -21 -123 -9 -47 -19 -119 -21 -162 -3 -42 -8 -80 -12 -85
-3 -4 -56 -7 -118 -5 -94 3 -112 6 -115 20 -2 10 4 100 14 201 11 107 15 188
10 193 -5 5 -25 11 -45 15 -44 7 -49 -9 -12 -33 24 -15 25 -21 24 -108 0 -50
-6 -134 -12 -186 l-12 -95 -85 0 -85 0 3 235 4 235 -65 58 c-83 72 -88 73
-101 11 -6 -29 -3 -34 50 -75 l56 -43 -6 -71 c-5 -63 -18 -183 -32 -304 -5
-36 -8 -41 -18 -30 -12 12 -20 31 -57 128 -5 13 -13 21 -16 17 -4 -3 -10 -68
-13 -144 -6 -129 -5 -140 16 -189 19 -41 32 -57 65 -74 l42 -21 -7 -254 c-8
-284 -13 -256 72 -388 l45 -71 -22 -115 c-53 -273 -56 -311 -36 -483 32 -289
56 -485 70 -584 17 -117 14 -508 -5 -608 -26 -143 -78 -324 -144 -507 -25 -71
-67 -185 -92 -255 -26 -71 -61 -170 -79 -221 -56 -158 -62 -144 -45 110 7 112
10 217 8 233 l-4 30 -18 -40 c-9 -22 -21 -49 -26 -60 -29 -67 -53 -123 -60
-145 -5 -14 -18 -50 -30 -80 -49 -125 -151 -447 -195 -615 -63 -241 -68 -258
-80 -253 -5 1 -9 23 -8 48 2 25 7 173 13 330 11 296 11 275 -36 912 -4 49 -11
88 -15 88 -5 0 -9 -4 -9 -10 0 -5 -7 -10 -15 -10 -8 0 -15 8 -15 18 0 46 -21
363 -26 405 -6 47 -7 49 -33 42 -14 -4 -61 -8 -105 -9 l-78 -1 5 53 c4 38 2
56 -9 66 -8 8 -14 22 -14 30 0 14 -24 22 -52 17 -12 -1 -79 72 -75 83 2 6 21
20 43 31 78 40 85 48 72 82 -6 17 -32 44 -61 64 -59 40 -70 59 -33 59 14 0 37
5 51 12 21 9 25 17 20 36 -5 21 -3 24 14 19 12 -3 24 -1 27 4 3 5 14 9 26 9
31 0 78 32 84 57 5 18 13 23 40 23 l34 0 0 93 c0 50 4 97 8 104 8 13 207 53
263 53 25 0 82 22 178 70 l141 70 1 72 c2 133 5 154 27 192 12 20 22 42 22 48
0 6 -17 63 -37 126 -28 87 -42 117 -59 124 -18 8 -31 42 -74 187 -57 197 -111
375 -141 468 -17 52 -25 63 -51 72 -17 6 -40 11 -50 11 -31 0 -15 25 18 28 45
5 48 15 20 70 -14 28 -26 61 -26 74 0 31 -30 108 -43 108 -5 0 -16 -8 -23 -17
-12 -17 -15 -17 -51 4 -21 12 -38 27 -38 33 0 6 106 53 235 104 l235 92 34 68
c33 67 34 68 67 63 42 -7 42 -5 46 148 3 91 0 110 -12 112 -8 1 -41 5 -72 8
-34 4 -65 14 -79 26 -27 24 -18 22 -179 24 -74 1 -189 9 -255 18 -66 10 -156
22 -200 27 -207 25 -416 52 -470 61 -33 6 -85 10 -117 9 -31 -1 -59 4 -63 10
-9 15 -45 -6 -45 -27 0 -9 -27 -59 -59 -112 -85 -139 -101 -169 -101 -195 0
-20 7 -24 64 -34 35 -7 72 -12 82 -12 29 0 94 -20 94 -29 0 -9 -72 -26 -170
-40 -36 -6 -75 -13 -86 -16 -19 -6 -24 1 -43 61 l-21 67 89 136 c48 75 93 146
100 159 6 12 19 22 27 22 9 0 14 6 12 12 -3 8 -48 19 -116 28 -61 8 -113 17
-116 20 -4 5 9 88 42 255 11 58 6 69 -54 115 -54 40 -54 41 -54 95 0 54 -12
79 -24 48 -4 -9 -9 -71 -13 -137 -5 -114 -4 -122 16 -140 17 -15 23 -16 36 -6
8 7 15 18 15 24 0 16 48 61 56 53 8 -7 -38 -88 -60 -106 -19 -16 -52 -8 -89
22 -27 22 -27 25 -34 165 -4 96 -3 142 4 142 6 0 14 -7 17 -16 10 -27 26 -4
26 39 0 39 -4 44 -43 69 -31 20 -227 88 -253 88 -16 0 22 349 42 399 18 43 18
71 0 71 -23 0 -44 -86 -66 -275 -12 -93 -22 -171 -24 -172 -1 -2 -55 1 -120 6
-64 6 -139 7 -165 4 -27 -3 -61 -3 -75 1 -25 6 -26 9 -26 79 1 93 42 318 64
352 67 103 -151 -49 -270 -188 -62 -72 -69 -86 -110 -209 -24 -73 -43 -141
-42 -152 2 -12 -4 -74 -11 -138 l-14 -117 -46 -23 -46 -23 -3 -93 c-2 -66 -6
-91 -14 -86 -6 4 -86 17 -177 30 -91 12 -184 29 -206 38 -22 8 -55 15 -74 16
-35 0 -99 -30 -139 -64 -13 -12 -60 -37 -105 -56 -119 -51 -117 -50 -124 -107
l-6 -51 101 -7 c55 -4 105 -11 112 -15 6 -4 20 -65 31 -136 10 -71 23 -148 28
-171 6 -29 5 -45 -3 -51 -18 -14 -218 -100 -249 -108 -16 -3 -56 -32 -89 -63
l-61 -56 7 -70 c12 -134 17 -160 33 -173 10 -6 20 -9 24 -5 3 5 28 59 55 121
45 107 52 116 124 180 144 129 181 146 90 41 -50 -57 -52 -63 -36 -75 24 -17
12 -34 -25 -34 -46 0 -64 -15 -89 -72 -12 -29 -46 -105 -75 -168 -84 -183
-105 -230 -105 -235 0 -2 -15 -37 -34 -77 -19 -40 -42 -91 -51 -113 -31 -70
-104 -229 -125 -268 l-19 -38 49 -101 c28 -55 50 -105 50 -110 0 -6 -13 -7
-32 -3 l-31 7 6 -68 c4 -38 7 -83 7 -101 0 -28 9 -37 103 -99 66 -44 137 -81
202 -105 55 -20 126 -47 157 -59 l57 -23 89 66 c48 36 95 74 104 84 8 10 29
74 46 142 l31 124 62 62 c34 34 66 69 71 78 17 32 35 16 83 -75 26 -51 63
-113 80 -138 48 -67 135 -217 135 -233 0 -11 -13 -13 -56 -9 l-57 5 7 -57 c7
-56 7 -57 -38 -117 -25 -34 -46 -66 -46 -73 0 -6 -5 -49 -11 -95 l-10 -84 55
-56 c31 -31 56 -62 56 -68 0 -7 -17 -13 -37 -15 l-38 -3 -47 -185 c-45 -177
-47 -188 -37 -253 12 -75 12 -74 132 -114 43 -14 65 -29 55 -38 -2 -2 -46 5
-98 15 -52 11 -98 16 -102 12 -4 -4 -11 -22 -14 -40 -5 -27 -4 -32 12 -32 25
0 454 -303 454 -320 0 -5 -16 -142 -35 -306 -19 -163 -35 -306 -35 -317 0 -16
5 -18 33 -13 17 3 52 9 77 12 l45 7 -50 -40 c-92 -72 -128 -93 -165 -93 -40 0
-80 -9 -80 -19 0 -3 41 -24 91 -46 93 -41 124 -63 73 -51 -16 3 -74 12 -129
20 -55 8 -118 18 -140 24 -22 6 -80 13 -130 15 -49 3 -79 3 -65 1 14 -3 70
-16 125 -29 55 -13 134 -29 175 -35 98 -14 138 -25 178 -50 40 -25 34 -42 -11
-29 -17 5 -79 13 -137 19 -58 5 -188 27 -290 49 -102 22 -187 38 -189 35 -4
-4 64 -68 143 -136 l29 -25 -2 -204 c0 -112 -4 -239 -7 -281 -6 -74 -5 -79 22
-115 45 -61 107 -124 137 -139 43 -23 32 -32 -39 -31 l-66 2 -29 -90 c-16 -49
-29 -96 -29 -103 0 -22 82 -113 127 -138 23 -14 47 -32 55 -41 12 -15 9 -16
-34 -10 -148 21 -130 25 -160 -31 -25 -44 -28 -60 -28 -140 0 -61 4 -94 12
-99 7 -4 40 -17 73 -29 33 -11 60 -27 60 -34 0 -8 -25 -20 -60 -30 -67 -18
-72 -27 -74 -117 -1 -28 -5 -54 -10 -58 -6 -3 -24 16 -42 42 -126 185 -241
305 -759 790 -44 41 -59 62 -68 100 -19 77 -34 182 -29 196 2 7 1 53 -4 102
-5 50 -11 122 -14 160 -3 39 -11 114 -16 167 -10 89 -13 97 -29 88 -10 -5 -71
-65 -136 -134 -83 -87 -161 -156 -259 -228 -160 -119 -169 -125 -164 -111 4
10 112 134 150 172 29 30 376 406 440 478 35 39 70 72 78 72 7 1 68 -54 135
-121 67 -68 213 -203 326 -300 113 -97 243 -210 290 -251 83 -74 111 -87 89
-44 -19 36 -149 207 -157 207 -5 0 -32 21 -62 46 -29 25 -98 77 -152 115 -54
39 -98 75 -99 82 -6 119 -2 567 6 567 6 0 25 -23 44 -51 19 -28 74 -88 123
-133 l89 -83 77 -13 c134 -21 139 -22 117 -12 -11 5 -55 15 -99 23 -44 7 -80
19 -83 26 -3 8 14 88 37 179 l42 166 -48 76 c-86 140 -104 172 -93 172 5 0 43
-22 84 -50 74 -50 95 -59 95 -40 0 12 -190 140 -207 140 -7 0 -110 -58 -230
-128 -120 -71 -243 -142 -273 -159 -144 -79 -327 -185 -444 -255 l-129 -78
-73 0 c-52 0 -75 -4 -81 -14 -15 -27 -326 -366 -335 -366 -15 0 -571 350 -681
429 -112 79 -307 243 -383 323 -44 45 -308 375 -424 531 -19 25 -38 47 -42 47
-27 1 15 -61 200 -297 336 -431 470 -543 1164 -968 81 -49 147 -94 147 -100 0
-5 -24 -29 -53 -52 -34 -28 -72 -73 -106 -128 l-53 -85 -74 0 c-69 0 -79 3
-128 35 -29 20 -75 60 -103 89 -70 77 -137 121 -218 145 -39 12 -78 21 -86 21
-13 0 -211 192 -241 234 -27 37 -27 -2 -1 -70 49 -130 111 -236 197 -334 71
-80 87 -106 106 -165 13 -38 36 -107 53 -153 16 -45 28 -87 26 -94 -4 -11
-110 141 -181 257 -20 33 -68 92 -107 130 -106 104 -162 186 -203 295 -20 52
-45 115 -56 140 -20 44 -214 326 -265 385 -24 29 -25 29 -26 8 0 -13 5 -23 10
-23 6 0 10 -4 10 -10 0 -5 11 -33 24 -62 23 -52 40 -101 37 -106 -1 -1 5 -15
14 -32 26 -50 17 -54 -27 -11 -60 58 -68 55 -68 -29 0 -38 4 -70 8 -70 18 0
32 -53 32 -119 0 -76 27 -186 84 -350 20 -57 35 -105 33 -108 -3 -2 -20 18
-39 45 -19 26 -54 63 -77 81 l-41 33 0 -125 0 -125 120 -123 c103 -107 135
-149 115 -149 -5 0 -182 46 -218 56 -15 5 -17 -3 -17 -75 l0 -80 88 -59 c276
-185 622 -382 672 -382 19 0 134 46 305 121 90 39 326 139 413 174 51 21 95
42 98 47 3 4 16 8 28 8 21 0 92 26 141 51 11 6 3 -5 -18 -25 -35 -33 -42 -59
-14 -55 30 4 47 -2 47 -16 0 -8 5 -15 10 -15 6 0 10 -6 10 -14 0 -8 4 -17 9
-20 11 -7 53 7 52 17 -3 22 1 27 19 27 11 0 20 -3 20 -7 -1 -15 -28 -43 -41
-43 -19 0 -139 -59 -139 -68 0 -8 -69 -45 -160 -85 -168 -75 -428 -210 -424
-220 3 -7 95 -68 205 -137 110 -68 204 -129 208 -135 5 -5 21 -49 37 -97 l28
-88 1463 0 1463 0 0 30 c0 17 3 30 6 30 9 0 44 -41 44 -52 0 -4 618 -8 1373
-8 l1374 0 11 23 11 22 0 -22 1 -23 575 0 c316 0 575 3 575 8 0 4 -22 57 -48
117 l-47 110 -220 110 c-211 105 -218 110 -179 113 33 2 76 -12 225 -76 101
-43 191 -82 200 -85 21 -7 152 -264 145 -283 -5 -12 63 -14 464 -14 259 0 470
4 470 8 0 4 9 95 20 202 38 366 58 585 70 760 10 152 23 274 36 318 2 8 13 10
31 6 38 -9 43 -15 66 -76 28 -76 32 -112 13 -127 -9 -8 -16 -20 -16 -27 0 -33
74 -161 158 -273 81 -107 92 -127 93 -164 0 -23 6 -78 12 -121 l12 -79 90 -39
c72 -31 172 -56 228 -58 18 0 -4 -18 -30 -24 -16 -4 -58 -16 -95 -28 -65 -20
-70 -20 -126 -4 -32 9 -61 16 -65 16 -4 0 -7 -30 -7 -67 l0 -68 63 -75 63 -75
294 -3 c228 -2 295 1 302 10 4 7 21 57 38 110 17 53 35 100 42 104 13 8 10 -9
-26 -126 -14 -47 -26 -89 -26 -93 0 -4 59 -6 132 -5 130 3 131 3 139 28 4 14
15 51 24 82 l18 58 -37 45 c-46 56 -33 59 23 5 46 -45 47 -46 25 -115 -9 -27
-19 -62 -24 -77 l-9 -28 93 0 92 0 12 108 c19 168 23 154 -64 218 -60 45 -81
55 -102 51 -15 -3 -40 -9 -57 -12 l-30 -6 24 20 c31 28 67 36 94 23 12 -6 51
-20 87 -32 135 -44 148 -54 237 -185 46 -66 92 -135 104 -152 11 -18 25 -33
30 -33 19 0 8 28 -34 85 -24 33 -70 100 -103 149 -55 83 -64 91 -127 122 -61
29 -71 38 -94 84 -25 50 -25 53 -9 81 16 28 16 30 -35 131 l-51 102 22 72 c20
63 22 79 12 126 l-11 53 73 110 74 110 -19 90 c-54 264 -139 732 -139 766 0
21 -4 39 -9 39 -5 0 -11 12 -14 28 -4 19 0 31 14 42 19 15 18 19 -36 183 -30
93 -55 176 -55 186 0 11 -8 28 -17 39 -18 20 -18 20 -173 -20 -120 -31 -163
-38 -188 -31 -49 12 -39 26 26 39 206 40 358 79 367 95 8 12 -17 12 -49 -1
-22 -8 -353 -80 -370 -80 -17 0 8 21 54 46 27 15 51 32 53 38 2 6 -20 108 -49
226 -30 118 -54 222 -54 231 0 32 -28 51 -155 103 -71 30 -131 58 -132 63 -2
7 110 50 360 140 17 6 31 17 31 25 -1 7 -79 202 -172 433 l-171 421 -3 124 -3
125 205 7 c192 7 293 6 630 -7 114 -5 156 -2 268 18 90 16 135 20 137 13 2 -6
8 -146 15 -311 6 -165 16 -370 21 -455 17 -272 22 -928 10 -1168 -12 -219 -11
-225 10 -291 l22 -68 -33 -349 c-18 -192 -35 -423 -37 -514 -3 -91 -9 -169
-13 -174 -5 -5 -18 11 -31 37 -12 25 -26 44 -31 41 -4 -3 -8 -31 -8 -62 0 -31
-5 -106 -11 -166 -5 -61 -13 -257 -17 -435 l-7 -323 -45 -15 c-25 -8 -49 -18
-53 -23 -5 -4 16 -41 45 -83 131 -186 148 -213 148 -229 0 -16 10 -18 78 -17
72 0 76 1 55 15 -12 9 -31 24 -43 34 -24 21 -64 121 -52 131 4 3 52 12 107 18
55 6 150 18 210 26 61 8 117 15 125 15 8 0 51 -54 95 -120 l80 -120 123 0 124
0 69 51 c50 37 71 61 77 83 l8 31 75 -3 c63 -3 77 -8 97 -28 13 -14 27 -22 31
-19 5 2 18 29 30 59 19 45 34 62 98 110 42 31 78 54 81 52 6 -7 -28 -59 -127
-191 -89 -117 -99 -145 -52 -145 16 0 31 6 34 14 3 8 39 65 79 128 41 62 96
150 123 196 27 45 53 82 58 82 9 0 96 -18 336 -72 52 -11 110 -28 130 -36 20
-9 43 -17 51 -17 9 0 14 -8 12 -19 -2 -9 4 -29 13 -43 15 -22 15 -35 6 -106
-6 -45 -14 -92 -17 -104 -5 -16 -2 -23 8 -23 17 0 38 79 38 140 0 25 5 40 16
44 23 9 34 7 34 -5 0 -6 20 -29 45 -51 25 -22 57 -60 71 -84 26 -43 27 -44 80
-44 l54 0 -36 52 c-49 69 -94 146 -94 160 0 6 12 38 27 70 30 63 51 74 124 66
l34 -4 -27 -12 c-34 -14 -52 -43 -73 -115 -19 -67 -18 -69 63 -164 43 -51 46
-53 94 -53 l50 0 -81 89 c-45 49 -81 93 -81 99 0 17 22 62 31 62 4 0 5 -15 3
-33 -5 -27 1 -40 38 -84 24 -29 57 -70 73 -92 22 -29 38 -40 57 -41 26 0 24 3
-43 93 -103 137 -104 166 -9 225 86 54 81 65 -35 76 -27 2 -79 9 -114 16 -44
7 -67 8 -74 1 -7 -7 -14 -7 -23 0 -13 11 -46 -13 -146 -109 -55 -53 -78 -60
-78 -22 0 14 -10 21 -36 26 -43 8 -53 28 -31 66 24 42 22 48 -20 49 l-38 0 39
32 c22 18 50 41 63 52 44 37 66 140 73 330 l5 170 124 -4 124 -4 -6 56 c-6 65
-3 69 68 90 48 14 50 16 48 49 -1 18 -14 82 -28 141 l-25 107 20 40 c21 40 48
60 280 205 142 89 322 209 405 271 98 72 113 70 79 -11 -8 -20 -13 -40 -10
-43 9 -8 44 27 68 67 12 20 36 55 55 78 18 23 53 86 76 140 51 119 74 159 195
341 57 85 101 142 111 142 43 -1 210 -71 443 -187 217 -108 258 -132 264 -153
3 -14 17 -60 30 -102 32 -98 30 -158 -6 -174 -74 -34 -64 -40 -252 158 -23 23
-42 24 -30 1 15 -29 24 -131 17 -184 -10 -75 -68 -130 -208 -199 l-112 -55 -7
-61 c-4 -36 -18 -83 -33 -112 -20 -38 -28 -70 -32 -136 -3 -49 -2 -86 4 -86 5
0 22 28 38 63 16 34 35 70 43 80 19 21 58 22 108 1 22 -9 91 -24 154 -33 l115
-17 3 -75 c2 -68 0 -81 -28 -133 -36 -69 -36 -73 -10 -101 30 -32 37 -106 15
-155 -10 -22 -23 -40 -29 -40 -6 1 -21 22 -33 48 -13 26 -34 61 -48 77 l-26
30 3 -75 3 -74 -40 -14 c-119 -42 -251 -95 -262 -104 -18 -14 -134 -220 -129
-226 3 -3 16 3 28 12 60 43 99 66 113 66 20 0 19 -8 -10 -55 -13 -22 -34 -58
-46 -80 -33 -60 -130 -186 -139 -180 -4 3 -11 26 -15 52 -9 67 -16 93 -24 93
-4 0 -19 -24 -34 -52 -54 -106 -138 -227 -188 -272 -55 -49 -133 -90 -262
-135 -187 -67 -189 -75 -20 -79 l120 -3 114 60 c63 32 151 71 196 85 259 82
885 449 1011 592 28 33 95 133 149 224 54 91 125 206 158 255 59 88 113 174
153 245 115 205 289 489 421 685 128 191 169 245 201 264 37 21 40 22 40 5 -1
-11 -11 -44 -25 -74 -25 -59 -24 -78 3 -44 110 142 135 197 168 373 16 90 20
98 72 160 100 120 123 141 157 141 60 0 63 -17 15 -125 -9 -22 -29 -69 -43
-105 -76 -195 -98 -253 -93 -257 8 -8 38 46 148 262 55 110 113 216 128 235
15 19 58 87 96 150 38 63 73 118 77 121 5 3 7 19 5 35 -3 27 -5 25 -42 -36
-97 -162 -150 -246 -162 -255 -8 -8 -36 -8 -88 -1 -89 11 -78 18 -198 -121
l-79 -93 -27 -130 -26 -131 -92 -55 -92 -55 -143 -214 c-84 -127 -150 -215
-159 -215 -8 0 -76 32 -150 71 -317 166 -1206 602 -1279 626 -46 15 -89 23
-103 20 -38 -10 -308 -425 -308 -473 0 -58 -296 -280 -751 -564 -84 -52 -167
-110 -184 -127 -17 -18 -34 -33 -37 -33 -2 0 -10 26 -17 58 -21 97 -101 442
-126 547 -14 55 -56 235 -94 400 l-69 300 -7 229 c-7 205 -10 237 -31 298
l-24 68 21 58 c17 47 20 78 19 172 -1 63 -3 116 -6 119 -6 6 -63 -60 -160
-186 -79 -104 -104 -129 -104 -103 0 10 208 303 270 380 28 35 36 54 36 84 -1
33 -6 42 -31 56 -17 9 -62 62 -103 121 -40 57 -114 163 -165 234 -89 124 -220
323 -246 373 -7 13 -11 28 -9 34 3 7 31 -30 64 -81 32 -51 73 -111 89 -133 33
-44 136 -187 187 -258 17 -25 37 -50 44 -55 6 -6 40 -53 74 -105 63 -95 76
-110 95 -110 6 0 6 3 0 8 -6 4 -37 45 -70 92 -32 47 -75 105 -96 130 -20 25
-71 97 -113 160 -42 63 -99 147 -126 185 -28 39 -82 122 -120 187 -39 64 -94
147 -123 185 -123 161 -189 254 -183 260 10 10 219 -28 246 -45 14 -9 57 -43
95 -76 39 -34 96 -79 126 -101 33 -23 70 -62 90 -94 54 -84 111 -141 143 -141
15 0 36 -5 48 -11 16 -9 19 -8 16 7 -2 12 -15 18 -42 21 -55 6 -60 9 -127 104
-42 59 -84 102 -140 146 -44 34 -90 74 -102 90 -12 15 -27 32 -35 36 -10 7
-12 27 -6 90 10 122 11 123 99 142 62 14 76 21 80 39 11 52 25 149 35 244 5
56 13 121 16 145 11 73 -12 31 -67 -123 -28 -80 -57 -160 -63 -179 l-11 -33
-59 5 c-86 8 -88 11 -87 168 l2 134 -46 27 c-25 15 -45 32 -45 38 0 5 21 10
48 10 46 0 50 3 122 75 63 63 80 75 110 76 32 2 32 2 6 6 -15 3 -41 -1 -57 -8
-40 -16 -46 -5 -15 26 22 22 34 26 74 23 46 -3 48 -4 77 -60 29 -56 30 -83 0
-58 -19 16 -19 7 0 -30 14 -27 20 -30 63 -29 26 0 65 3 87 7 39 7 39 8 51 67
7 33 14 102 17 153 2 51 10 99 17 107 17 20 7 23 -115 29 -55 3 -120 9 -145
13 l-45 8 -3 96 -3 97 -67 133 c-37 74 -92 171 -121 217 -49 76 -59 86 -120
117 -81 40 -135 52 -156 35 -32 -27 -17 -44 63 -70 105 -33 131 -63 234 -268
l83 -166 0 -90 0 -91 -290 0 -290 0 -12 -124 c-7 -68 -18 -130 -24 -137 -17
-20 -137 -103 -177 -122 -39 -19 -47 -12 -57 51 -7 39 -24 54 -120 106 -34 18
-41 29 -62 92 -12 39 -23 77 -23 84 0 12 26 21 128 46 45 11 52 16 52 38 0 42
-22 91 -42 91 -10 0 -51 -9 -90 -20 -40 -11 -76 -20 -80 -20 -3 0 -14 25 -23
55 -12 41 -13 60 -5 75 8 15 7 31 -1 60 -11 36 -14 39 -29 25 -9 -8 -47 -17
-87 -21 -62 -6 -75 -4 -112 17 l-41 23 -86 -23 c-82 -21 -87 -21 -99 -4 -19
26 -8 42 39 53 22 6 54 15 71 21 25 8 40 5 93 -22 53 -26 68 -29 90 -20 71 27
105 31 124 14 15 -13 18 -14 18 -2 0 34 -20 37 -98 16 l-76 -20 -54 28 c-51
27 -56 28 -105 16 -124 -31 -127 -32 -127 -63 0 -21 -5 -28 -20 -28 -11 0 -23
7 -26 15 -9 24 -24 17 -24 -10 0 -27 -24 -35 -34 -10 -8 22 -26 19 -26 -4 0
-27 -15 -34 -30 -16 -17 21 -30 19 -30 -5 0 -23 -28 -27 -36 -5 -9 21 -24 19
-24 -4 0 -27 -21 -37 -35 -18 -16 23 -35 21 -35 -2 0 -27 -15 -34 -30 -16 -17
21 -30 19 -30 -5 0 -24 -22 -26 -40 -5 -15 18 -31 10 -24 -10 9 -22 -26 -32
-38 -11 -11 20 -28 12 -28 -15 0 -23 -18 -26 -26 -4 -9 22 -34 18 -34 -5 0
-24 -35 -28 -44 -4 -8 22 -28 6 -21 -17 5 -14 2 -19 -13 -19 -11 0 -22 7 -26
15 -9 24 -26 17 -26 -10 0 -16 -6 -25 -15 -25 -8 0 -15 7 -15 15 0 8 -7 15
-15 15 -8 0 -15 -9 -15 -19 0 -27 -20 -38 -32 -17 -12 22 -28 20 -28 -4 0 -24
-35 -28 -44 -5 -8 22 -26 18 -26 -5 0 -27 -30 -38 -42 -17 -13 23 -28 21 -28
-3 0 -25 -25 -36 -45 -20 -10 8 -15 9 -15 2 0 -18 -27 -3 -45 24 -18 27 -11
52 9 35 17 -15 13 70 -7 129 -27 79 -31 118 -14 144 15 22 15 23 -9 18 -28 -5
-31 4 -7 30 15 17 15 18 -3 18 -10 0 -46 -7 -79 -15 -74 -18 -75 -18 -75 -2 0
6 20 27 44 45 34 25 51 32 73 27 l28 -5 -27 10 c-19 8 -47 7 -108 -4 -95 -18
-110 -19 -110 -7 0 7 114 52 165 64 16 4 15 5 -5 6 -14 0 -68 -8 -120 -19 -87
-18 -98 -23 -127 -57 -17 -21 -35 -34 -39 -30 -5 4 -7 28 -5 52 3 49 -4 57
-19 23 -22 -53 -118 -213 -133 -222 -28 -18 -30 1 -2 46 79 131 114 183 124
186 14 5 15 22 1 22 -5 0 -50 -62 -101 -137 -50 -76 -100 -142 -112 -147 -12
-4 -51 -14 -87 -22 -100 -21 -200 -54 -200 -64 0 -6 -11 -8 -23 -5 -22 6 -101
-10 -189 -37 -23 -7 -38 -17 -38 -27 0 -9 16 -65 35 -124 19 -60 37 -124 41
-143 6 -32 22 -43 38 -27 7 7 133 42 154 43 6 0 12 -5 12 -10 0 -10 -79 -120
-86 -120 -5 0 -307 -79 -354 -93 -33 -9 -46 -18 -48 -34 -7 -50 -142 -54 -178
-5 -10 15 -55 71 -99 125 -110 137 -186 239 -181 244 5 5 41 -17 113 -69 29
-21 57 -38 63 -38 8 0 10 28 5 98 -4 54 -8 140 -8 192 l-2 95 50 7 c28 5 155
19 284 33 129 14 240 30 247 36 8 6 14 24 14 40 0 16 6 48 14 71 23 72 48 227
42 255 -8 29 -18 24 -22 -10 -4 -36 -53 -209 -63 -221 -5 -6 -11 -24 -13 -41
l-3 -30 -80 0 c-113 0 -445 15 -474 21 -33 7 -18 18 63 44 66 22 80 22 240 16
94 -4 184 -8 201 -9 22 -1 30 3 33 16 3 16 1 17 -16 8 -11 -6 -33 -9 -49 -6
-15 2 -70 7 -120 9 l-93 5 -65 57 c-36 32 -65 59 -65 61 0 3 88 3 196 2 174
-2 198 0 206 14 16 29 38 111 37 137 -1 20 -2 21 -6 5 -13 -55 -47 -134 -60
-139 -15 -6 -440 12 -538 22 -44 5 -60 11 -60 22 0 23 40 23 323 5 140 -9 258
-12 262 -8 4 4 17 37 29 72 12 36 27 73 32 83 13 23 32 13 24 -13 -4 -10 -2
-19 3 -19 5 0 12 11 15 25 5 31 -22 69 -65 91 l-31 16 6 81 6 82 75 70 75 70
31 104 c29 100 42 183 18 119 -11 -31 -29 -36 -48 -13 -7 8 -20 15 -30 15 -9
0 -25 9 -35 20 -15 17 -16 26 -7 67 25 110 28 118 45 115 38 -6 106 -44 109
-60 3 -16 4 -16 11 1 5 14 -12 36 -74 95 l-81 76 2 81 c2 44 1 100 0 125 l-2
45 -8 -39 c-4 -21 -5 -47 -3 -58 6 -19 -21 -26 -32 -8 -17 28 -150 71 -283 91
-88 14 -105 32 -34 37 45 3 167 -26 245 -59 27 -11 51 -18 55 -15 7 8 -153 81
-221 101 -31 9 -58 23 -62 32 -18 48 -46 435 -32 445 19 12 126 -51 181 -106
31 -32 71 -89 99 -142 26 -49 44 -75 41 -59 -4 17 -15 42 -25 57 -11 14 -19
31 -19 36 0 6 -20 37 -45 70 -51 67 -135 129 -215 158 -29 10 -63 31 -75 46
-13 16 -33 28 -44 28 -21 0 -21 0 -2 -19 27 -27 61 -285 61 -468 l0 -113 -180
0 -180 0 0 178 c0 101 -7 221 -15 281 -8 57 -13 107 -10 111 7 11 65 20 179
30 l91 7 -90 0 c-49 1 -113 -4 -142 -11z m-136 -718 c-3 -7 -22 -64 -43 -126
-32 -96 -36 -115 -24 -122 21 -13 -5 -13 -29 -1 -16 9 -15 18 19 118 49 147
47 143 66 143 8 0 14 -6 11 -12z m-103 -35 c-4 -16 -18 -59 -31 -97 -12 -38
-23 -77 -23 -87 0 -25 -39 -12 -45 15 -19 98 -28 157 -22 162 7 7 93 32 115
33 9 1 10 -7 6 -26z m908 0 c20 -18 17 -42 -13 -100 -26 -50 -25 -77 1 -70 13
3 20 0 20 -9 0 -8 -2 -14 -4 -14 -2 0 -47 -11 -100 -25 -95 -25 -157 -33 -106
-14 21 8 29 23 49 95 13 48 31 104 39 126 15 39 16 39 56 32 23 -3 49 -13 58
-21z m-434 -170 c3 -22 0 -23 -57 -23 -58 0 -61 1 -61 24 0 30 9 33 69 26 38
-4 47 -9 49 -27z m38 -103 c27 -33 54 -61 59 -63 6 -2 59 12 119 31 85 27 106
37 90 44 -12 5 -7 6 15 2 18 -3 43 -2 55 3 38 18 90 33 94 28 3 -2 6 -23 7
-45 3 -50 6 -47 -175 -130 -74 -34 -142 -69 -150 -79 -8 -9 -30 -79 -49 -155
l-34 -138 -63 -29 c-35 -16 -67 -29 -72 -29 -4 0 -9 123 -11 272 -1 150 -4
275 -7 277 -2 2 -4 -118 -4 -267 0 -194 -3 -272 -11 -272 -6 0 -42 27 -79 60
l-68 60 -17 97 c-10 54 -21 103 -26 109 -10 12 -117 76 -241 143 -43 23 -80
46 -83 51 -3 6 1 26 11 45 18 38 52 48 60 18 4 -12 30 -26 82 -42 42 -13 104
-32 136 -42 69 -22 101 -24 116 -6 5 6 29 36 52 65 40 51 43 52 93 52 50 0 52
-1 101 -60z m-441 19 c5 -5 18 -9 29 -9 19 0 64 -13 114 -31 12 -5 22 -13 22
-19 0 -12 -47 -13 -54 -1 -3 5 -22 12 -41 15 -48 9 -152 43 -173 56 -13 9 -4
10 38 5 30 -3 59 -10 65 -16z m649 -17 c3 -5 -1 -9 -9 -9 -8 0 -15 4 -15 9 0
4 4 8 9 8 6 0 12 -4 15 -8z m-49 -21 c-6 -5 -26 -12 -45 -15 -33 -7 -34 -6
-16 9 21 16 77 22 61 6z m-731 -180 c60 -26 111 -52 114 -59 2 -6 -22 -24 -52
-39 -50 -24 -60 -26 -93 -16 -79 22 -197 69 -199 78 -4 13 87 85 106 84 8 0
64 -21 124 -48z m-4384 -96 c-12 -69 -20 -152 -18 -183 l3 -56 -68 -14 c-38
-7 -70 -12 -71 -10 -2 2 4 55 14 118 15 104 20 121 57 180 36 56 90 107 101
95 2 -2 -6 -60 -18 -130z m5400 106 c6 -16 25 -35 41 -41 16 -7 29 -16 29 -20
0 -4 -30 -27 -66 -50 l-65 -43 -74 17 c-40 9 -81 23 -90 30 -16 11 -10 17 51
51 38 21 85 49 104 62 45 30 55 29 70 -6z m89 -141 c-11 -50 -20 -61 -103
-134 l-59 -51 6 63 c4 35 11 70 15 78 13 23 135 105 144 96 4 -4 2 -27 -3 -52z
m-1203 13 c87 -33 117 -54 101 -70 -8 -7 -166 63 -198 88 -36 28 -9 23 97 -18z
m-4226 -325 c0 -7 -21 -77 -46 -155 -46 -140 -47 -143 -75 -143 -43 0 -109 29
-109 49 0 20 56 220 64 228 8 8 106 31 139 32 15 1 27 -4 27 -11z m5184 -88
c-52 -102 -72 -109 -53 -19 11 56 37 89 70 89 18 0 16 -7 -17 -70z m-4615 45
c1 -2 -6 -30 -17 -62 -12 -32 -30 -83 -40 -113 -18 -50 -25 -58 -75 -85 -31
-16 -59 -27 -62 -23 -3 3 6 39 20 79 14 41 35 101 47 134 28 83 34 87 82 79
23 -3 43 -8 45 -9z m3766 -172 c22 -26 79 -99 127 -161 l86 -113 6 -87 c4 -48
9 -107 12 -131 l6 -44 -43 7 c-23 4 -46 9 -51 12 -4 3 -65 74 -135 157 -70 84
-164 192 -210 241 -46 48 -82 93 -80 99 3 10 188 64 227 66 9 1 34 -20 55 -46z
m-4119 -33 c54 -63 44 -77 -22 -31 -29 21 -60 34 -94 38 -27 3 -50 9 -50 12 0
18 28 40 55 43 46 5 60 -3 111 -62z m404 -26 c0 -20 -4 -25 -16 -20 -8 3 -28
-1 -44 -9 -39 -20 -56 -20 -39 1 12 15 77 53 92 54 4 0 7 -12 7 -26z m-474 1
c15 -8 51 -39 79 -70 50 -54 53 -55 105 -55 41 0 81 11 168 47 87 35 116 43
122 34 14 -23 -1 -45 -61 -94 -46 -37 -82 -55 -161 -81 -56 -18 -107 -41 -113
-50 -7 -9 -16 -49 -19 -89 -10 -104 -40 -196 -76 -236 -29 -31 -33 -32 -60
-21 -16 7 -33 17 -38 24 -6 6 -4 89 4 206 16 241 17 290 4 290 -5 0 -10 -8
-10 -17 -1 -71 -83 -273 -111 -273 -5 0 -9 31 -9 70 0 67 -1 70 -30 85 -16 8
-36 15 -44 15 -16 0 -153 70 -192 98 -14 11 -23 27 -24 45 0 15 2 27 4 27 8 0
94 -32 126 -47 19 -9 44 -16 55 -15 10 0 25 -4 31 -9 18 -15 41 0 106 70 61
66 88 75 144 46z m-332 -47 c33 -13 61 -29 64 -36 2 -8 -20 -2 -55 14 -32 14
-77 33 -100 41 -24 8 -43 19 -43 23 0 9 26 1 134 -42z m-204 -41 c0 -32 -29
-77 -50 -77 -17 0 -11 72 7 92 26 28 43 22 43 -15z m183 -137 c37 -7 69 -16
72 -21 3 -4 -21 -22 -53 -38 l-59 -30 -69 36 c-38 20 -71 38 -74 40 -3 3 7 15
22 28 26 22 30 23 61 10 19 -8 64 -19 100 -25z m926 19 c17 -6 31 -16 31 -23
0 -6 -48 -35 -107 -64 l-108 -53 -68 36 c-38 21 -66 39 -64 42 8 7 240 72 263
72 12 1 35 -4 53 -10z m3349 -61 c15 -19 47 -457 34 -470 -10 -10 -182 -26
-294 -27 -32 -1 -53 -7 -64 -18 -9 -10 -56 -83 -105 -163 -49 -79 -93 -148
-98 -153 -11 -11 -51 0 -51 15 0 5 30 93 67 194 l68 184 145 56 c80 32 149 64
155 73 5 9 29 76 53 150 56 175 64 190 90 159z m-4403 -31 l60 -32 -2 -64 c-1
-35 -5 -67 -10 -72 -4 -4 -36 11 -70 34 l-63 41 0 63 c0 44 4 63 13 63 6 0 39
-15 72 -33z m1100 -39 c-4 -40 -11 -80 -16 -89 -7 -14 4 -15 98 -11 99 4 105
4 101 -14 -3 -17 -16 -20 -103 -26 -58 -3 -101 -2 -103 3 -7 17 -27 9 -111
-46 -46 -31 -86 -53 -89 -51 -2 3 -1 48 3 101 6 83 10 98 28 110 46 29 173 94
186 95 10 0 12 -15 6 -72z m5455 42 c0 -14 -48 -35 -58 -26 -8 9 26 36 45 36
7 0 13 -5 13 -10z m217 -45 c9 -27 24 -78 34 -112 24 -78 24 -90 -1 -103 -18
-10 -22 -6 -40 36 -12 26 -28 69 -37 96 -11 36 -20 47 -32 44 -9 -3 -45 -12
-81 -20 -36 -8 -112 -26 -170 -40 -58 -14 -177 -42 -265 -62 -88 -20 -176 -40
-195 -45 -61 -15 -72 -12 -68 17 3 25 11 29 128 60 69 19 184 50 255 69 72 20
173 47 225 61 52 14 115 32 140 40 75 22 91 16 107 -41z m-1070 5 c-3 -17 -85
-20 -170 -6 -80 13 -42 26 69 23 87 -2 104 -5 101 -17z m-5617 -193 c16 -8 26
-22 28 -40 3 -28 -37 -147 -50 -147 -8 0 -21 14 -42 44 -8 12 -18 16 -26 11
-14 -9 -7 -134 12 -215 6 -25 11 -90 12 -145 l1 -100 338 -3 c186 -1 344 1
352 5 20 12 175 222 175 238 0 8 -12 15 -26 17 -25 3 -22 8 66 123 50 66 108
139 129 163 38 41 39 42 105 42 39 0 66 -4 66 -10 0 -26 -116 -215 -280 -458
-68 -100 -108 -146 -210 -241 -190 -177 -177 -169 -321 -186 -68 -7 -169 -17
-224 -20 l-100 -7 -50 43 c-199 172 -233 209 -292 315 -32 57 -62 104 -66 104
-4 0 -3 -9 3 -21 6 -11 9 -25 7 -32 -4 -14 -67 91 -67 112 0 8 11 0 25 -19 16
-22 25 -28 25 -18 0 9 -4 19 -9 22 -9 6 -81 129 -81 139 0 3 232 95 281 110
12 4 18 23 23 68 6 53 13 68 42 97 32 32 37 34 82 27 26 -4 58 -12 72 -18z
m5779 -64 c66 -206 66 -205 14 -218 -35 -8 -43 2 -78 103 l-31 87 -51 -3 c-42
-3 -53 0 -61 15 -16 29 -3 39 73 61 111 31 109 32 134 -45z m2084 40 c3 -5 7
-29 11 -55 l7 -46 -53 -15 c-29 -9 -96 -27 -148 -41 -52 -13 -131 -35 -175
-47 -194 -53 -266 -72 -349 -93 l-90 -22 -30 -77 c-17 -42 -36 -81 -42 -87
-12 -12 -176 -58 -729 -205 -49 -13 -117 -31 -150 -40 -104 -28 -216 -55 -228
-55 -31 1 60 34 492 179 l466 156 68 100 c37 55 77 104 90 108 12 5 144 45
292 89 149 43 326 97 395 118 128 39 166 46 173 33z m1404 -230 c-9 -52 -91
-253 -102 -253 -7 0 -20 8 -29 19 -16 18 -15 24 24 127 22 60 43 115 45 122 2
6 19 12 36 12 29 0 31 -2 26 -27z m-9261 -75 l19 -51 261 6 262 6 7 -36 c3
-19 2 -40 -3 -45 -4 -4 -46 -13 -93 -18 -77 -9 -430 -40 -452 -40 -10 0 -4 71
9 103 4 13 1 17 -14 17 -16 0 -23 10 -32 52 -6 29 -13 64 -16 78 l-6 25 19
-23 c11 -13 28 -46 39 -74z m9737 75 c3 -5 -6 -42 -18 -83 -12 -41 -29 -97
-37 -125 -11 -38 -19 -51 -36 -53 -12 -2 -22 1 -22 7 0 10 53 212 65 249 5 13
41 17 48 5z m-4767 -115 c88 -105 184 -231 184 -240 0 -29 -42 13 -155 158
-71 91 -132 170 -134 176 -10 28 44 -20 105 -94z m924 93 c0 -5 -21 -37 -46
-71 -61 -83 -81 -68 -24 19 35 53 70 79 70 52z m-1061 -203 c99 -95 177 -176
173 -180 -9 -9 -199 -58 -226 -58 -18 0 -180 150 -217 202 l-20 27 46 63 c28
38 45 73 45 90 0 15 4 28 10 28 5 0 91 -78 189 -172z m4211 17 c90 -54 135
-75 160 -75 l35 -1 -25 -14 c-14 -8 -33 -14 -42 -15 -16 0 -217 118 -250 148
-19 16 -24 32 -10 32 4 0 63 -34 132 -75z m-1039 -24 c6 -34 9 -65 5 -68 -3
-3 -81 -28 -173 -55 -93 -27 -220 -64 -283 -83 -63 -18 -232 -68 -375 -110
-335 -98 -355 -104 -360 -94 -3 4 149 58 337 119 189 62 402 131 473 155 72
24 162 53 200 65 95 29 110 41 130 101 21 61 31 55 46 -30z m753 -141 c83 -22
114 -27 128 -19 15 8 35 5 81 -12 34 -12 66 -26 71 -30 5 -5 -11 -17 -37 -28
l-45 -20 -79 30 c-43 17 -89 34 -103 39 -41 13 -140 59 -140 65 0 8 10 6 124
-25z m-224 -52 c17 -29 20 -51 20 -166 0 -131 -1 -135 -32 -199 -18 -36 -45
-79 -59 -94 -33 -35 -35 -34 126 -49 114 -10 262 -36 283 -49 15 -9 82 -130
82 -147 0 -8 -3 -14 -7 -14 -5 0 -57 -67 -118 -150 -104 -141 -112 -149 -144
-150 -19 0 -127 15 -240 34 -113 19 -219 36 -236 38 -30 3 -30 4 -38 78 -4 41
-8 104 -7 139 1 52 -4 71 -23 100 -18 28 -24 51 -25 94 0 52 -4 62 -37 98 -26
29 -34 46 -30 60 9 27 -21 59 -55 59 -47 0 -90 12 -90 25 0 7 15 22 34 33 29
17 35 27 38 59 2 32 7 39 28 41 14 2 30 8 37 14 7 5 21 7 31 4 11 -4 24 0 32
9 7 9 21 13 31 10 9 -3 20 -1 24 5 3 5 19 10 35 10 16 0 32 5 35 10 3 6 17 10
30 10 13 0 27 5 31 11 3 6 17 8 31 4 42 -10 82 4 89 31 4 17 15 27 36 31 16 3
33 14 39 24 14 27 27 24 49 -13z m-8985 -75 c63 -115 184 -295 194 -288 5 3 0
44 -11 92 -10 49 -22 103 -25 122 l-6 34 24 -18 c14 -10 37 -35 52 -54 16 -20
60 -75 99 -123 81 -99 55 -89 293 -109 204 -17 189 -26 -78 -45 -85 -6 -88 -7
-102 -38 -34 -69 -37 -70 -150 -76 l-105 -5 -35 41 c-18 23 -70 80 -114 127
l-81 84 -5 104 c-3 57 -8 134 -10 172 -3 37 -1 67 4 67 5 0 30 -39 56 -87z
m1345 18 c0 -21 3 -51 6 -67 4 -23 -4 -44 -45 -107 -28 -43 -51 -84 -51 -92 0
-8 9 -49 21 -91 11 -41 18 -78 16 -81 -3 -2 -24 8 -46 23 l-42 27 -29 -28
c-31 -30 -42 -28 -63 13 -7 15 -28 53 -46 85 l-33 57 141 142 c78 78 141 145
141 150 0 4 7 8 15 8 11 0 15 -11 15 -39z m7797 -30 c99 -69 123 -75 123 -30
0 34 17 28 74 -24 46 -42 58 -59 62 -89 4 -41 -8 -48 -44 -28 -9 5 -83 41
-163 79 -116 54 -147 73 -152 92 -8 28 -9 69 -2 69 2 0 48 -31 102 -69z
m-4847 -139 c0 -10 -6 -26 -13 -37 -8 -11 -26 -56 -41 -100 -15 -44 -39 -92
-53 -106 -40 -43 -111 -90 -118 -79 -3 6 12 63 35 128 23 64 46 131 52 149 9
26 19 34 62 46 68 20 76 20 76 -1z m69 9 c12 -8 5 -38 -40 -174 -31 -94 -59
-163 -65 -160 -5 2 -16 19 -23 38 -11 31 -9 43 23 129 20 52 36 102 36 110 0
49 36 78 69 57z m356 -125 c176 -62 418 -148 538 -191 l217 -78 -18 -21 c-26
-29 -57 -86 -66 -120 l-7 -28 -187 7 c-103 4 -194 11 -202 16 -9 4 -15 22 -15
40 0 38 15 33 -210 74 -77 14 -174 32 -215 40 -191 38 -179 34 -206 75 -29 44
-29 69 5 164 12 33 21 65 21 72 0 13 18 64 22 64 2 0 147 -51 323 -114z
m-2126 -22 c21 -27 28 -54 13 -54 -10 0 -52 56 -52 70 0 18 18 11 39 -16z m53
-135 c8 -73 25 -205 38 -309 23 -171 27 -225 19 -234 -12 -13 -16 -7 -22 34
-3 19 -12 71 -20 115 -9 44 -21 123 -27 175 -6 52 -16 129 -22 171 -6 42 -8
84 -5 94 13 32 32 9 39 -46z m-159 -46 c3 -5 12 -62 21 -128 9 -66 21 -151 27
-188 5 -38 7 -73 4 -78 -4 -5 -38 -9 -76 -9 -82 0 -82 1 -93 120 -3 41 -14
117 -22 168 -9 51 -13 99 -10 107 4 11 23 15 75 15 38 0 72 -3 74 -7z m-1510
-127 c90 -88 102 -96 155 -106 31 -7 61 -15 66 -17 19 -12 -24 -23 -91 -23
l-73 0 -20 -39 -20 -40 -212 -3 c-117 -2 -217 -1 -221 1 -5 2 4 16 18 31 25
26 27 35 27 110 0 74 -3 85 -26 109 -14 15 -26 30 -26 33 0 11 170 33 280 37
45 1 48 -1 143 -93z m4710 -55 c46 -49 48 -67 6 -45 -39 20 -120 44 -129 39
-4 -2 -15 -25 -24 -50 -10 -25 -24 -45 -31 -45 -18 0 -105 38 -105 45 0 21 35
106 50 123 18 19 19 19 107 -4 75 -20 93 -29 126 -63z m3810 -126 c33 -60 33
-59 -41 -233 l-56 -132 -75 -44 c-42 -24 -114 -65 -160 -89 -91 -49 -92 -50
-120 -157 -19 -72 -25 -76 -98 -65 l-44 6 7 47 c23 160 43 235 70 263 30 32
29 37 -6 41 -28 4 -30 -2 -65 -194 -21 -114 -31 -148 -43 -148 -8 0 -46 9 -83
20 -46 14 -69 26 -69 36 0 8 9 59 20 112 11 54 21 122 23 151 2 52 1 54 -27
62 -44 12 -50 1 -18 -35 l29 -33 -22 -120 c-12 -66 -25 -126 -29 -132 -13 -20
-33 -12 -60 24 -18 23 -35 35 -52 35 -19 0 -24 5 -24 25 0 13 7 28 16 33 13 7
14 13 2 42 -10 23 -47 58 -128 119 -63 48 -116 94 -118 104 -3 13 7 18 40 23
28 5 53 18 72 36 33 33 140 108 155 108 5 0 12 -8 16 -18 3 -11 24 -33 48 -49
38 -28 64 -34 287 -72 l245 -42 20 27 c11 15 64 84 119 153 54 69 100 132 103
139 10 25 38 6 66 -43z m87 -187 c0 -24 -26 -233 -35 -278 -2 -14 -7 -45 -10
-70 -4 -25 -10 -48 -13 -51 -10 -10 -191 -67 -235 -75 -32 -5 -43 -15 -74 -63
-19 -31 -37 -58 -39 -60 -5 -5 -63 20 -70 30 -2 4 13 43 35 86 l39 79 128 51
c70 29 135 58 143 65 9 8 39 80 66 161 48 140 65 174 65 125z m-1310 -88 c4
-8 13 -27 18 -41 7 -17 52 -55 124 -105 62 -43 116 -82 119 -87 8 -11 -1 -56
-13 -63 -5 -3 -40 -3 -76 1 l-67 7 -112 111 c-99 97 -113 115 -113 144 0 26 5
34 23 37 12 3 31 7 42 10 31 6 47 2 55 -14z m1601 -207 c18 -27 82 -113 143
-193 60 -80 143 -189 183 -243 l74 -97 -98 -128 c-54 -70 -109 -142 -122 -160
-17 -25 -26 -30 -36 -22 -10 8 -16 3 -25 -25 -7 -20 -16 -35 -20 -33 -5 2 -36
25 -70 51 -48 38 -67 61 -87 105 -13 31 -29 66 -34 77 -38 86 -99 252 -99 272
0 14 30 114 66 222 36 108 67 202 69 209 8 22 24 12 56 -35z m-7833 -160 c3
-48 1 -53 -20 -57 -13 -3 -111 -21 -218 -40 -177 -32 -229 -37 -555 -51 -249
-12 -362 -20 -367 -28 -4 -7 -8 -41 -8 -76 l0 -64 -46 6 c-25 2 -49 9 -53 13
-3 5 -4 56 -1 114 l5 105 95 2 c52 1 228 11 390 23 252 18 328 27 520 64 124
24 232 43 240 42 11 -1 16 -16 18 -53z m7120 -603 c36 -50 42 -66 42 -109 0
-27 -5 -53 -10 -56 -15 -9 -120 24 -120 38 0 7 7 50 15 97 8 47 15 86 15 88 0
14 24 -9 58 -58z m-8213 -85 c12 -22 99 -158 194 -303 94 -145 171 -266 171
-268 0 -3 24 -42 54 -87 77 -118 73 -108 131 -364 5 -23 6 -23 222 -23 119 0
214 -2 211 -6 -3 -3 -104 -23 -224 -45 -357 -64 -318 -50 -343 -118 -11 -32
-21 -61 -21 -66 0 -7 200 0 293 11 35 5 47 3 47 -8 0 -7 -46 -64 -101 -127
-55 -62 -98 -116 -95 -118 2 -3 42 2 88 11 123 23 332 56 357 56 28 0 27 -18
-1 -24 -26 -6 -142 -32 -208 -47 -25 -6 -63 -14 -85 -19 -22 -5 -76 -16 -120
-26 -129 -27 -141 -47 -15 -24 127 23 400 88 467 111 31 10 68 19 82 18 18 0
-15 -20 -104 -64 -159 -79 -182 -87 -465 -167 -94 -26 -107 -25 -265 12 -209
50 -265 69 -275 94 -4 12 -26 110 -49 217 -22 107 -68 323 -102 481 l-62 287
21 68 c11 37 24 87 27 111 4 23 11 42 15 42 13 0 17 -16 50 -220 5 -30 16 -98
25 -150 9 -52 25 -151 36 -220 12 -69 26 -129 31 -135 13 -12 10 30 -32 480
-29 304 -30 347 -15 499 8 82 15 155 15 163 0 25 21 9 45 -32z m9015 -100 c0
-33 -57 -30 -68 3 -2 8 9 12 32 12 26 0 36 -4 36 -15z m-829 -184 c17 -16 29
-33 26 -38 -3 -5 3 -17 14 -26 40 -35 17 -53 -87 -67 -43 -6 -107 -15 -140
-20 -102 -17 -124 -14 -124 14 0 31 3 32 70 40 30 4 71 11 90 16 27 7 15 8
-50 6 -47 -3 -98 -7 -115 -11 -29 -6 -125 29 -125 46 0 4 26 10 58 14 85 9
341 49 349 54 1 0 16 -12 34 -28z m315 -30 c5 -5 46 -21 92 -36 68 -22 82 -30
82 -48 0 -20 1 -20 13 -3 13 18 18 17 111 -14 101 -33 120 -50 92 -78 -15 -15
-20 -15 -64 2 -26 10 -69 25 -97 34 -27 9 -51 19 -53 23 -2 4 -11 5 -21 2 -17
-4 -159 90 -176 117 -8 12 7 13 21 1z m-3443 -99 l35 -88 -28 -150 c-16 -82
-42 -214 -57 -294 l-28 -145 -40 1 c-35 1 -176 59 -285 117 -31 17 -31 22 14
187 20 74 44 166 54 203 19 76 -1 56 202 202 41 30 80 55 86 55 7 0 28 -40 47
-88z m3191 -44 c7 -49 42 -348 57 -488 6 -52 19 -167 30 -256 10 -88 19 -174
19 -192 0 -30 -1 -31 -32 -26 -18 3 -39 7 -46 10 -19 6 -114 -18 -141 -35 -13
-8 -30 -30 -38 -49 -9 -22 -19 -32 -31 -30 -14 2 -20 24 -31 107 -13 95 -13
106 3 136 18 33 15 66 -24 220 -6 22 -23 101 -40 175 -16 74 -38 173 -49 219
l-20 84 33 46 c52 70 70 82 133 91 32 5 74 13 93 18 69 19 78 16 84 -30z m819
-45 c101 -31 120 -41 133 -64 8 -16 14 -37 14 -48 0 -35 -122 -373 -137 -378
-34 -13 -27 25 29 158 32 77 58 146 58 152 0 7 -12 27 -27 45 -20 23 -54 41
-121 66 -52 19 -100 32 -108 29 -17 -6 -18 4 -3 46 6 18 18 31 27 31 10 0 70
-17 135 -37z m-3940 -92 c9 -16 17 -41 17 -55 0 -32 -88 -479 -101 -513 -9
-24 -12 -25 -67 -19 -31 3 -88 9 -126 12 -60 6 -74 11 -105 40 l-36 33 31 1
c17 0 77 -7 134 -15 57 -9 109 -14 115 -11 7 2 20 49 29 103 10 54 28 154 41
223 13 69 27 149 30 178 4 28 10 52 14 52 4 0 14 -13 24 -29z m2496 -700 c67
-200 121 -365 119 -366 -2 -1 -42 -21 -91 -43 -80 -38 -104 -45 -101 -32 9 32
35 329 31 353 -3 18 -24 118 -46 222 -37 170 -49 246 -37 234 2 -2 59 -168
125 -368z m1420 298 c36 -13 38 -25 12 -94 -15 -40 -24 -51 -45 -53 -21 -3
-26 1 -26 18 0 11 7 35 16 52 12 24 14 36 5 55 -18 38 -15 40 38 22z m-31
-173 c10 -10 -2 -56 -64 -237 -42 -123 -78 -226 -81 -228 -8 -10 -58 16 -56
30 1 7 33 105 72 216 62 178 68 204 56 217 -26 26 -18 35 23 24 20 -5 43 -15
50 -22z m-5783 -92 c-16 -73 -16 -87 -4 -94 18 -12 15 -47 -31 -280 -76 -391
-76 -385 -55 -497 l18 -100 131 5 c116 4 129 2 116 -11 -17 -17 -231 -127
-247 -127 -11 0 -21 42 -53 227 -15 87 -17 125 -10 170 5 32 19 128 30 213 34
254 80 510 102 569 18 50 20 8 3 -75z m6138 -116 c4 -18 16 -76 27 -128 12
-52 27 -129 35 -170 16 -88 68 -338 96 -462 23 -107 24 -114 4 -98 -8 7 -15
16 -15 21 0 5 -11 33 -25 62 -28 63 -36 95 -76 317 -16 91 -38 208 -49 260
-11 52 -20 127 -20 168 0 74 12 90 23 30z m-1037 -66 c19 -12 39 -167 26 -197
-6 -14 -16 -25 -22 -25 -11 0 -12 1 -30 73 -12 43 -15 47 -44 47 -52 0 -82
-21 -78 -55 5 -39 10 -44 78 -67 32 -11 76 -32 100 -48 58 -41 151 -145 181
-204 29 -57 52 -173 53 -263 0 -60 13 -91 24 -56 9 30 36 197 36 221 0 13 -38
79 -86 148 l-86 125 23 67 c13 37 26 71 30 76 5 5 73 -12 159 -40 135 -44 151
-51 147 -69 -15 -66 -195 -591 -222 -649 -14 -29 -14 -44 -5 -96 13 -73 7 -87
-15 -34 -8 20 -24 44 -35 51 -26 18 -28 83 -4 83 14 0 15 8 9 57 -3 32 -12 67
-20 78 -7 11 -51 39 -98 62 -75 38 -85 46 -89 73 -5 33 12 50 51 50 36 0 23
26 -54 110 l-75 82 0 63 0 63 -47 21 c-84 37 -99 57 -107 144 -7 72 -7 76 16
88 46 25 159 38 184 21z m-219 -204 c7 -6 13 -21 13 -33 0 -13 5 -45 10 -72
15 -70 50 -297 50 -320 0 -19 -10 -22 -114 -33 -63 -7 -120 -10 -128 -8 -7 3
16 14 52 25 64 20 65 21 62 54 -1 18 -14 52 -27 75 -30 52 -30 54 -4 54 21 0
21 2 14 103 -6 95 -9 104 -36 132 -16 17 -29 35 -29 39 0 12 122 -3 137 -16z
m-6792 -85 c4 -54 10 -168 15 -253 l8 -155 67 -180 c37 -99 69 -187 72 -195 3
-10 -16 -32 -53 -60 -31 -25 -71 -57 -89 -73 -18 -15 -36 -27 -39 -27 -11 0 2
38 36 104 l30 60 -33 99 c-33 98 -48 118 -72 100 -12 -10 -63 -38 -224 -125
l-92 -49 -68 42 c-83 52 -78 48 -70 55 4 4 30 -3 58 -15 28 -11 60 -21 70 -21
27 0 238 141 285 191 l42 44 -8 70 c-5 39 -16 131 -24 205 -9 74 -16 146 -16
160 0 24 72 120 89 120 5 0 12 -44 16 -97z m8033 13 c24 -27 33 -52 46 -127
10 -52 20 -104 23 -116 9 -39 -16 -25 -37 20 -22 49 -90 236 -90 249 0 19 30
6 58 -26z m-2766 -121 c0 -5 -5 -11 -11 -13 -6 -2 -11 4 -11 13 0 9 5 15 11
13 6 -2 11 -8 11 -13z m-6339 -107 c13 -59 51 -217 92 -385 9 -38 -15 -27 -88
40 l-68 62 11 155 c12 170 16 200 28 200 5 0 16 -33 25 -72z m4102 -168 c104
-45 191 -82 192 -84 7 -6 -45 -130 -56 -134 -7 -2 -11 15 -11 51 l0 55 -162
88 c-90 48 -175 94 -190 101 -15 8 -30 18 -33 22 -7 13 54 -10 260 -99z m4708
53 c132 -41 130 -38 96 -130 -26 -71 -31 -77 -58 -68 -17 5 -21 14 -21 50 0
50 -1 51 -102 85 -38 13 -68 29 -68 36 0 20 19 64 27 64 5 0 61 -16 126 -37z
m-6368 -73 c3 -5 -1 -10 -10 -10 -9 0 -13 5 -10 10 3 6 8 10 10 10 2 0 7 -4
10 -10z m3104 -4 c-2 -2 -101 -42 -219 -88 -118 -47 -218 -92 -221 -99 -4 -8
-11 -30 -16 -49 l-9 -35 -18 59 c-9 32 -15 60 -13 63 3 2 114 39 248 83 211
68 267 83 248 66z m2564 -141 c-1 -44 -5 -108 -8 -142 l-7 -63 -33 0 c-19 0
-36 3 -38 8 -3 5 17 263 22 280 1 2 16 2 34 0 l32 -3 -2 -80z m898 68 c0 -10
4 -41 8 -70 10 -74 3 -83 -74 -83 -35 0 -66 3 -68 8 -3 4 -3 19 0 34 4 20 12
28 38 32 28 6 38 15 56 51 24 47 38 57 40 28z m-1401 -35 c0 -7 -7 -73 -15
-147 -14 -134 -20 -151 -56 -151 -32 0 -40 25 -34 111 13 184 13 187 43 192
52 8 62 7 62 -5z m1127 -45 c62 -21 113 -42 113 -48 0 -9 -129 -390 -186 -550
-7 -22 -24 -69 -36 -105 -14 -39 -29 -66 -39 -68 -26 -5 -29 22 -10 80 16 47
29 92 61 208 5 19 18 62 28 95 10 33 32 107 47 164 l29 104 -64 58 c-36 32
-68 59 -72 59 -13 0 -9 40 4 40 7 0 63 -17 125 -37z m-5465 11 c-22 -15 -308
-154 -344 -167 -22 -8 -32 8 -19 32 23 43 276 147 366 150 18 1 18 0 -3 -15z
m-3237 -68 c39 -34 73 -65 76 -69 5 -8 44 -167 69 -287 6 -25 44 -184 85 -354
42 -170 74 -311 71 -313 -9 -9 -156 170 -275 336 -30 41 -56 70 -59 63 -2 -6
33 -85 77 -175 44 -90 83 -175 86 -190 14 -54 -22 -27 -89 66 -36 50 -93 127
-126 170 l-60 78 0 82 c0 45 6 152 14 237 8 85 17 213 21 285 4 71 9 133 12
138 6 10 18 2 98 -67z m7892 -96 c38 -40 64 -60 79 -60 30 0 31 -16 3 -25 -14
-5 -38 2 -71 20 -40 22 -59 26 -106 23 l-56 -3 -7 35 c-11 52 3 70 56 70 42 0
49 -4 102 -60z m339 -111 l6 -85 -107 -54 c-58 -30 -111 -63 -116 -72 -5 -10
-21 -18 -34 -18 -30 0 -31 -11 -14 -173 10 -97 10 -112 -6 -148 -20 -44 -55
-59 -136 -59 -102 0 -147 43 -156 150 -6 68 -5 72 26 110 l32 40 -3 122 c-3
123 -3 123 -28 126 -54 6 -55 11 -10 57 44 45 45 45 112 45 49 0 78 -6 106
-20 32 -18 48 -19 122 -14 93 7 115 16 157 69 34 43 40 35 49 -76z m214 62
c23 -43 4 -151 -26 -151 -7 0 -15 15 -18 33 -3 17 -7 46 -10 62 -2 17 -7 47
-12 69 l-7 38 31 -16 c17 -9 36 -25 42 -35z m-5498 -116 l62 -65 163 0 163 0
40 -36 c22 -20 40 -39 40 -43 0 -4 -33 0 -74 8 -70 14 -82 14 -207 -7 -117
-19 -137 -25 -154 -47 -27 -33 -69 -114 -63 -120 3 -3 36 -8 74 -12 76 -6 110
-18 84 -27 -8 -3 -97 -35 -197 -70 -205 -72 -203 -72 -203 -92 0 -23 -19 -16
-26 10 -8 34 -5 37 75 85 39 23 73 46 77 52 3 6 15 50 25 97 17 79 23 91 66
134 l46 47 -36 69 c-21 39 -37 73 -37 76 0 18 25 -1 82 -59z m4678 55 c0 -5
-8 -10 -17 -10 -10 0 -28 -3 -40 -6 -17 -5 -23 -2 -23 10 0 12 10 16 40 16 22
0 40 -4 40 -10z m670 -125 c17 -9 30 -19 30 -24 0 -13 -111 -91 -129 -91 -34
1 -115 27 -119 38 -2 7 2 12 10 12 7 0 47 18 88 39 41 22 79 40 83 40 4 1 21
-6 37 -14z m50 -89 c0 -49 -40 -155 -67 -175 -14 -12 -29 -21 -34 -21 -8 0
-17 138 -9 150 7 10 93 69 103 70 4 0 7 -11 7 -24z m-7020 -61 c0 -16 -63
-222 -71 -229 -14 -16 -18 -4 -33 100 -15 107 -11 120 32 127 43 6 72 7 72 2z
m2760 -35 c0 -40 -40 -363 -46 -369 -8 -9 -14 7 -28 78 -7 40 -20 77 -27 82
-8 6 -29 8 -46 5 -18 -3 -33 0 -33 5 0 13 163 229 172 229 5 0 8 -14 8 -30z
m-386 -176 c39 -6 51 -13 71 -42 31 -45 25 -52 -14 -19 -21 17 -52 29 -101 37
-38 6 -72 16 -76 21 -6 10 53 12 120 3z m5513 -177 c-28 -54 -103 -147 -117
-144 -32 5 -18 35 45 100 69 69 93 84 72 44z"/>
<path d="M12349 5171 c-45 -9 -95 -44 -113 -79 -7 -15 -21 -53 -31 -86 -21
-67 -15 -86 33 -100 17 -5 35 -20 41 -32 8 -18 21 -23 70 -29 53 -6 64 -4 87
14 15 12 41 21 60 21 18 0 39 3 48 6 18 7 22 49 5 60 -6 4 -9 19 -5 37 9 42
-9 100 -41 132 -27 27 -95 66 -110 64 -4 -1 -24 -4 -44 -8z m82 -37 c65 -23
90 -60 100 -152 10 -87 5 -95 -51 -87 -28 5 -40 2 -54 -14 -27 -29 -101 -18
-138 21 -14 15 -35 28 -46 28 -31 0 -45 23 -27 46 15 19 16 19 31 -3 29 -41
101 -22 92 24 -2 10 -14 23 -27 30 -20 9 -30 9 -54 -4 l-30 -15 7 29 c11 43
33 71 74 92 45 25 66 25 123 5z"/>
<path d="M12422 5008 c-26 -26 -6 -68 33 -68 12 0 30 9 39 19 14 15 15 24 6
40 -12 24 -58 29 -78 9z"/>
<path d="M12070 4676 c60 -13 81 -13 68 -1 -2 3 -34 7 -69 10 l-64 4 65 -13z"/>
<path d="M12510 4601 c8 -5 38 -12 65 -15 28 -4 58 -9 68 -12 9 -3 17 -1 17 4
0 10 -97 32 -139 32 -19 -1 -22 -3 -11 -9z"/>
<path d="M12548 3213 c12 -2 32 -2 45 0 12 2 2 4 -23 4 -25 0 -35 -2 -22 -4z"/>
<path d="M5375 8840 c3 -5 11 -10 16 -10 6 0 7 5 4 10 -3 6 -11 10 -16 10 -6
0 -7 -4 -4 -10z"/>
<path d="M14507 8823 c-37 -26 -52 -52 -19 -34 17 9 69 61 61 61 -2 0 -21 -12
-42 -27z"/>
<path d="M14362 8712 c-18 -15 -72 -63 -121 -107 -48 -44 -129 -118 -180 -165
-51 -47 -102 -89 -112 -94 -18 -9 -26 -26 -12 -26 12 0 132 95 133 105 0 6 19
21 41 35 23 14 69 51 102 83 34 31 64 57 68 57 3 0 29 25 58 55 29 30 59 55
67 55 8 0 14 7 14 15 0 22 -21 18 -58 -13z"/>
<path d="M16981 8583 c-1 -12 11 -35 25 -50 l26 -28 -20 35 c-11 19 -22 42
-25 50 -4 10 -6 8 -6 -7z"/>
<path d="M17060 8470 c0 -5 5 -10 10 -10 6 0 10 5 10 10 0 6 -4 10 -10 10 -5
0 -10 -4 -10 -10z"/>
<path d="M9527 8429 c4 -13 8 -18 11 -10 2 7 -1 18 -6 23 -8 8 -9 4 -5 -13z"/>
<path d="M17031 8414 c-6 -15 -9 -29 -7 -32 3 -2 10 8 16 23 14 36 7 43 -9 9z"/>
<path d="M8310 8328 c-3 -26 -1 -43 3 -39 5 5 7 26 5 47 l-3 39 -5 -47z"/>
<path d="M9552 8340 c0 -14 2 -19 5 -12 2 6 2 18 0 25 -3 6 -5 1 -5 -13z"/>
<path d="M8301 8184 c0 -11 3 -14 6 -6 3 7 2 16 -1 19 -3 4 -6 -2 -5 -13z"/>
<path d="M17090 8174 c0 -14 173 -134 192 -134 6 0 -11 15 -40 33 -28 17 -74
49 -102 69 -27 21 -50 35 -50 32z"/>
<path d="M17390 7996 c0 -2 9 -6 20 -9 11 -3 18 -1 14 4 -5 9 -34 13 -34 5z"/>
<path d="M17440 7982 c0 -4 14 -21 32 -38 l31 -29 -22 32 c-23 35 -41 50 -41
35z"/>
<path d="M17530 7895 c7 -8 22 -15 34 -15 18 0 17 2 -8 15 -36 19 -42 19 -26
0z"/>
<path d="M17958 7880 c-9 -6 -43 -16 -75 -24 -57 -14 -57 -14 -17 -15 45 -1
134 26 134 40 0 12 -20 11 -42 -1z"/>
<path d="M17965 7689 c-44 -24 -105 -102 -122 -155 -15 -47 -15 -63 -4 -115 6
-33 9 -64 6 -69 -3 -6 3 -10 14 -10 24 0 25 6 6 40 -18 31 -19 99 -3 152 14
47 81 126 114 134 13 3 24 12 24 20 0 17 -8 17 -35 3z"/>
<path d="M0 7666 c0 -9 9 -27 21 -39 58 -61 73 -136 40 -200 -20 -38 -19 -40
23 -62 31 -16 59 -62 58 -94 0 -17 3 -31 8 -31 36 0 11 88 -37 131 -28 24 -32
32 -23 48 18 34 12 120 -12 167 -26 54 -78 107 -78 80z"/>
<path d="M8212 7580 c21 -87 33 -113 62 -131 17 -10 38 -19 46 -19 8 0 -4 9
-27 21 -36 18 -43 26 -53 67 -6 26 -15 54 -21 62 -9 13 -10 13 -7 0z"/>
<path d="M578 7313 c12 -2 32 -2 45 0 12 2 2 4 -23 4 -25 0 -35 -2 -22 -4z"/>
<path d="M410 7290 c0 -5 5 -10 11 -10 5 0 7 5 4 10 -3 6 -8 10 -11 10 -2 0
-4 -4 -4 -10z"/>
<path d="M17711 7258 c-22 -22 -38 -45 -35 -50 8 -12 24 -10 24 5 0 7 14 29
31 50 41 50 29 47 -20 -5z"/>
<path d="M345 7268 c-11 -6 -23 -16 -26 -21 -7 -10 -54 -6 -98 9 -16 4 -22 4
-18 -3 4 -6 26 -16 50 -22 41 -12 46 -11 83 14 21 14 40 28 43 31 9 8 -14 3
-34 -8z"/>
<path d="M9590 7094 c-13 -32 -13 -71 -1 -58 10 11 24 84 16 84 -3 0 -10 -12
-15 -26z"/>
<path d="M9648 7060 c3 -21 8 -28 14 -22 12 12 7 44 -8 49 -7 2 -9 -8 -6 -27z"/>
<path d="M9620 7043 c0 -6 4 -15 10 -18 5 -3 7 -19 3 -35 -3 -19 -1 -30 6 -30
16 0 14 53 -4 76 -8 10 -15 14 -15 7z"/>
<path d="M9568 6999 c-3 -9 -9 -38 -13 -65 l-6 -49 16 43 c16 42 18 108 3 71z"/>
<path d="M7393 6959 c-59 -11 -109 -37 -136 -68 -12 -15 -35 -66 -51 -115 -34
-101 -30 -118 28 -127 20 -3 44 -14 55 -23 12 -11 43 -19 87 -23 65 -5 71 -4
98 21 25 25 33 27 80 21 64 -8 83 5 94 66 5 25 16 57 25 70 27 37 22 91 -10
122 -63 59 -156 79 -270 56z m182 -25 c60 -31 95 -67 95 -97 -1 -12 -14 -37
-30 -56 -23 -26 -27 -40 -23 -66 7 -41 -6 -49 -78 -50 -41 0 -63 -5 -77 -18
-13 -12 -38 -19 -75 -20 -46 -2 -60 2 -80 21 -18 17 -31 21 -50 17 -48 -12
-87 31 -56 62 6 6 15 29 20 52 21 95 88 152 199 171 78 13 104 11 155 -16z"/>
<path d="M7266 6774 c-9 -8 -16 -22 -16 -29 0 -21 29 -45 55 -45 31 0 58 47
44 73 -13 22 -62 22 -83 1z"/>
<path d="M7484 6755 c-10 -39 2 -55 39 -55 40 0 57 15 57 52 0 27 -2 28 -45
28 -39 0 -45 -3 -51 -25z"/>
<path d="M7372 6698 c-20 -20 -14 -28 23 -28 19 0 35 4 35 8 0 12 -22 32 -35
32 -6 0 -16 -5 -23 -12z"/>
<path d="M9531 6834 c0 -11 3 -14 6 -6 3 7 2 16 -1 19 -3 4 -6 -2 -5 -13z"/>
<path d="M10673 6720 c11 -8 15 -18 11 -34 -5 -21 -2 -23 33 -20 21 1 49 2 63
3 22 1 23 2 9 17 -9 8 -31 19 -50 23 -19 4 -45 11 -59 15 -21 6 -22 5 -7 -4z"/>
<path d="M6974 6451 c3 -5 22 -9 41 -9 19 0 32 4 29 9 -3 5 -21 9 -40 9 -19 0
-33 -4 -30 -9z"/>
<path d="M1820 6310 c0 -5 5 -10 10 -10 6 0 10 5 10 10 0 6 -4 10 -10 10 -5 0
-10 -4 -10 -10z"/>
<path d="M13583 5720 c-28 -35 -29 -50 -4 -50 31 0 81 -33 81 -54 0 -17 -2
-18 -17 -4 -10 9 -33 23 -50 32 -32 16 -33 16 -37 -6 -10 -50 -34 -243 -30
-247 5 -6 44 22 96 71 45 42 47 45 53 113 l6 70 -42 20 c-48 23 -57 38 -35 60
17 18 20 25 9 24 -5 0 -18 -13 -30 -29z"/>
<path d="M2345 5530 c-3 -5 -2 -10 4 -10 5 0 13 5 16 10 3 6 2 10 -4 10 -5 0
-13 -4 -16 -10z"/>
<path d="M13500 4972 c0 -18 99 -103 143 -122 64 -28 70 -20 10 13 -27 14 -68
46 -93 71 -42 44 -60 55 -60 38z"/>
<path d="M15350 2178 c-124 -96 -252 -220 -270 -262 -26 -64 -55 -233 -69
-406 -8 -88 -13 -104 -66 -214 -31 -66 -75 -163 -96 -215 -21 -53 -44 -97 -52
-99 -17 -3 -27 27 -27 83 -1 60 -15 24 -29 -75 -11 -75 -10 -89 4 -118 35 -69
-4 -164 -135 -331 -156 -198 -174 -246 -39 -103 107 112 246 308 274 387 86
235 109 293 151 376 69 138 107 193 158 229 46 31 86 91 86 130 0 21 0 20 -39
-2 -22 -12 -43 -19 -47 -16 -4 4 -2 33 5 64 6 32 11 85 11 118 0 74 21 165 45
203 10 15 62 84 115 153 53 69 100 131 104 138 15 26 -21 9 -84 -40z"/>
<path d="M17985 2145 c-5 -11 -18 -33 -31 -50 -12 -16 -25 -45 -29 -63 -6 -29
-5 -33 12 -30 11 2 23 19 31 43 7 22 17 50 23 61 6 12 9 30 7 40 -5 18 -5 18
-13 -1z"/>
<path d="M17540 1445 c-102 -37 -163 -49 -260 -52 -58 -2 -115 -6 -126 -8 -12
-3 -48 -37 -80 -77 -32 -40 -78 -94 -103 -120 -25 -26 -43 -50 -40 -52 3 -3
41 6 84 20 65 20 92 23 141 18 78 -8 119 10 163 71 33 46 86 88 188 149 84 50
101 76 33 51z"/>
<path d="M17914 1318 c-37 -40 -86 -88 -109 -106 -132 -108 -224 -200 -263
-262 -43 -67 -117 -164 -145 -191 -11 -10 -31 -19 -43 -19 -19 0 -25 8 -34 43
-6 23 -16 56 -21 73 -5 17 -9 42 -9 57 0 37 -17 42 -34 10 -37 -72 -115 -337
-103 -349 4 -4 44 3 89 15 46 12 86 21 91 21 13 0 7 -34 -16 -91 -24 -58 -134
-229 -148 -229 -4 0 -11 15 -14 32 -4 18 -12 41 -17 51 -9 17 -11 17 -27 3
-10 -9 -26 -44 -36 -79 -11 -34 -25 -66 -32 -70 -7 -4 -13 -18 -13 -31 0 -17
-8 -27 -27 -34 -16 -5 -65 -24 -110 -41 -45 -17 -86 -31 -91 -31 -16 0 -102
366 -102 431 0 57 32 111 97 166 72 59 423 404 423 415 0 4 -30 -13 -67 -38
-38 -24 -88 -58 -112 -74 -24 -16 -68 -36 -97 -45 -29 -8 -56 -20 -59 -25 -4
-6 -37 -35 -76 -66 -77 -62 -144 -96 -272 -139 -48 -16 -87 -34 -87 -40 0 -25
42 -36 108 -29 l66 7 -17 -24 c-9 -13 -31 -49 -49 -79 -62 -108 -190 -300
-199 -300 -5 0 -9 39 -9 86 0 65 6 104 25 160 14 41 25 86 25 101 0 25 -1 25
-52 -21 -29 -25 -96 -78 -148 -118 -113 -85 -182 -144 -193 -164 -13 -22 10
-43 55 -50 21 -4 41 -11 44 -15 3 -5 -6 -30 -20 -57 -24 -47 -76 -161 -76
-168 0 -2 101 -4 225 -4 185 0 230 3 249 15 21 14 24 14 36 0 11 -13 71 -15
482 -15 l470 1 -6 24 c-3 13 -19 46 -35 72 -23 40 -32 48 -54 45 -23 -2 -27 1
-27 23 0 18 7 28 25 35 28 11 30 20 13 66 -9 27 -8 40 10 85 11 30 38 101 59
159 32 88 59 137 172 305 150 223 286 419 337 482 31 38 46 93 25 93 -5 0 -39
-33 -77 -72z"/>
<path d="M15195 971 c-54 -44 -117 -106 -185 -186 -14 -17 -57 -86 -95 -155
-122 -222 -247 -368 -381 -446 -24 -14 -44 -31 -44 -37 1 -19 71 -90 80 -80 4
4 18 24 31 44 34 51 82 104 101 112 16 6 131 145 200 242 20 28 63 104 97 170
42 83 88 154 148 229 139 172 145 183 48 107z"/>
<path d="M119 791 c6 -10 74 -77 151 -147 77 -71 151 -146 165 -166 l25 -38
48 19 c26 11 48 26 50 36 5 25 -54 82 -115 110 -29 13 -76 39 -105 58 -29 19
-64 38 -78 42 -13 4 -50 30 -83 56 -64 54 -73 58 -58 30z"/>
<path d="M3310 695 c0 -11 44 -65 52 -65 4 0 8 11 8 23 0 16 -9 28 -25 35 -29
13 -35 14 -35 7z"/>
<path d="M17981 363 c-6 -10 -18 -33 -28 -50 -43 -78 -119 -149 -205 -190 -45
-23 -114 -59 -153 -82 l-70 -41 238 0 237 0 0 190 c0 105 -2 190 -5 190 -2 0
-9 -8 -14 -17z"/>
<path d="M668 258 c-40 -20 -47 -37 -25 -60 7 -7 27 -31 44 -54 24 -30 59 -54
135 -92 95 -48 108 -52 173 -52 l70 1 -50 42 c-27 23 -97 86 -155 139 -114
106 -126 111 -192 76z"/>
<path d="M13656 103 c-14 -21 -38 -53 -52 -70 -29 -35 -19 -46 11 -13 23 26
39 26 25 0 -9 -17 -8 -20 9 -20 15 0 21 12 31 65 7 36 10 68 7 71 -3 3 -17
-11 -31 -33z"/>
<path d="M480 78 c0 -7 9 -28 20 -45 15 -26 27 -33 50 -33 l31 0 -43 45 c-44
46 -58 54 -58 33z"/>
<path d="M15560 10 c-13 -8 -12 -10 3 -10 9 0 17 5 17 10 0 12 -1 12 -20 0z"/>
<path d="M12988 3 c17 -2 47 -2 65 0 17 2 3 4 -33 4 -36 0 -50 -2 -32 -4z"/>
</g>
</svg>
