<?xml version="1.0" standalone="no"?>
<!DOCTYPE svg PUBLIC "-//W3C//DTD SVG 20010904//EN"
 "http://www.w3.org/TR/2001/REC-SVG-20010904/DTD/svg10.dtd">
<svg version="1.0" xmlns="http://www.w3.org/2000/svg"
 width="180" height="200" viewBox="0 0 1200.000000 675.000000"
 preserveAspectRatio="xMidYMid meet">

<g transform="translate(0.000000,675.000000) scale(0.100000,-0.100000)"
fill="#000000" stroke="none">
<path d="M5023 6078 c-11 -13 -18 -28 -16 -35 2 -6 0 -29 -6 -49 -9 -31 -8
-41 6 -56 9 -10 18 -40 21 -67 6 -62 27 -59 37 5 9 59 -1 101 -26 107 -10 3
-19 12 -19 21 0 19 11 21 29 4 8 -7 6 0 -4 15 -14 22 -16 33 -7 52 14 31 11
31 -15 3z"/>
<path d="M4971 6054 c0 -11 3 -14 6 -6 3 7 2 16 -1 19 -3 4 -6 -2 -5 -13z"/>
<path d="M4920 5934 c-10 -11 -10 -18 -2 -26 9 -9 12 -8 12 4 0 9 5 18 12 20
8 3 9 6 1 11 -6 4 -16 0 -23 -9z"/>
<path d="M4970 5943 c0 -4 5 -15 10 -23 8 -13 10 -13 10 2 0 9 -4 20 -10 23
-5 3 -10 3 -10 -2z"/>
<path d="M4867 5894 c-3 -3 -3 -12 0 -20 3 -8 -1 -20 -9 -27 -25 -19 -40 -77
-26 -94 9 -11 9 -17 -3 -24 -8 -5 -20 -9 -26 -9 -12 0 -15 -4 -17 -32 -1 -6 9
-12 22 -13 12 -1 22 4 22 12 0 7 7 13 16 13 9 0 14 6 11 13 -20 53 -19 59 1
48 12 -6 23 -11 26 -11 3 0 6 31 6 69 0 64 -8 90 -23 75z"/>
<path d="M4960 5880 c0 -5 9 -28 19 -53 21 -48 24 -69 22 -132 l-2 -40 -20 24
c-15 18 -18 32 -13 58 6 32 -10 106 -27 126 -4 5 -10 -15 -13 -45 -4 -29 -12
-83 -17 -120 -10 -65 -10 -68 15 -101 31 -41 32 -53 5 -67 -17 -9 -20 -19 -16
-56 2 -24 2 -44 1 -44 -2 0 -12 10 -24 22 l-20 22 0 -27 c0 -35 -18 -35 -26
-1 -5 19 -2 29 10 36 10 6 16 22 16 45 0 35 0 36 -20 18 -19 -18 -20 -17 -20
6 -1 33 -24 61 -44 53 -12 -5 -18 1 -22 25 -7 34 -24 42 -24 11 0 -43 -71 -12
-93 42 -12 28 -13 25 -39 -84 -35 -145 -49 -226 -55 -315 -3 -45 -10 -76 -19
-84 -8 -6 -14 -17 -14 -24 0 -7 -16 -33 -36 -57 -20 -23 -43 -57 -51 -74 -20
-40 -61 -65 -90 -53 -20 7 -23 5 -23 -19 0 -15 -7 -38 -16 -50 -14 -21 -14
-22 5 -22 22 0 28 -14 11 -25 -8 -5 -7 -11 1 -21 6 -8 8 -21 4 -31 -5 -10 -9
-34 -11 -53 -1 -19 -5 -52 -9 -73 -4 -28 -2 -37 6 -31 9 5 10 1 7 -14 -4 -12
-2 -22 3 -22 13 0 11 -24 -5 -45 -13 -18 -16 -16 -41 37 -15 32 -33 62 -41 69
-8 6 -18 28 -24 48 -6 20 -33 61 -60 91 -28 30 -53 64 -57 75 -3 11 -21 40
-40 65 -19 24 -30 46 -24 48 17 6 13 22 -6 22 -9 0 -13 3 -9 8 4 4 13 7 19 7
7 0 13 19 14 47 1 26 10 59 18 72 9 14 16 29 16 33 -4 27 14 95 25 100 9 3 11
10 5 22 -6 9 -6 23 -2 30 7 11 10 11 14 0 4 -11 9 -9 18 6 6 11 33 41 59 67
44 42 47 48 35 66 -12 16 -11 24 6 58 12 21 33 52 48 68 26 29 26 29 -24 -5
-27 -18 -76 -59 -109 -91 -60 -59 -83 -72 -72 -40 11 29 -40 -38 -106 -140
-35 -54 -67 -98 -71 -98 -22 0 -83 -99 -148 -240 -12 -25 -28 -59 -36 -76 -8
-16 -30 -48 -49 -69 -18 -21 -34 -49 -34 -62 0 -13 -11 -34 -25 -47 -16 -15
-25 -34 -25 -54 0 -17 -6 -51 -14 -74 -8 -24 -17 -63 -21 -88 -4 -25 -17 -61
-29 -80 -12 -19 -27 -46 -33 -60 -14 -34 -62 -90 -76 -90 -7 0 -17 -12 -24
-27 -12 -30 -27 -88 -22 -88 2 0 -6 -18 -17 -40 -12 -22 -32 -74 -47 -115 -14
-41 -37 -106 -52 -145 -15 -38 -36 -99 -48 -135 -19 -60 -60 -122 -140 -209
-15 -17 -18 -26 -9 -28 18 -7 16 -88 -3 -103 -11 -9 -14 -23 -9 -45 4 -22 -1
-44 -15 -71 -12 -21 -21 -44 -21 -51 0 -6 -10 -24 -23 -40 -13 -15 -26 -36
-30 -45 -3 -10 -15 -18 -26 -18 -20 0 -32 -42 -31 -110 0 -19 -7 -60 -16 -90
-9 -30 -18 -61 -20 -67 -2 -7 -7 -13 -13 -13 -14 0 -20 38 -11 70 16 57 -6 38
-32 -28 -26 -67 -52 -174 -63 -264 -3 -25 -13 -52 -20 -58 -8 -7 -15 -29 -15
-50 0 -21 -9 -67 -20 -102 -11 -34 -20 -75 -20 -89 0 -15 -7 -32 -15 -39 -14
-12 -14 -15 0 -30 14 -16 15 -24 4 -59 -6 -22 -15 -38 -20 -36 -15 10 -19 -13
-10 -60 10 -53 5 -86 -12 -79 -8 3 -13 -18 -15 -63 -3 -89 -6 -108 -42 -260
-16 -70 -38 -161 -47 -200 -12 -52 -21 -73 -32 -74 -11 0 -12 -2 -3 -6 6 -2
12 -14 11 -26 -1 -28 -27 -97 -29 -77 -1 8 -5 4 -9 -10 -4 -14 -3 -28 2 -31
12 -8 13 -86 3 -171 -9 -77 -25 -87 -66 -43 -18 19 -27 22 -41 14 -14 -7 -17
-6 -13 4 10 27 -170 44 -198 19 -10 -8 -18 -10 -18 -4 0 6 -27 10 -72 9 -48
-1 -73 3 -76 11 -2 7 -22 12 -44 12 -22 0 -58 5 -79 12 -32 9 -52 8 -108 -5
-38 -10 -92 -17 -120 -17 -28 0 -51 -4 -51 -9 0 -8 -65 -27 -180 -52 -30 -7
-64 -18 -75 -25 -11 -7 -54 -15 -95 -18 -41 -2 -95 -11 -120 -19 -25 -8 -103
-20 -175 -27 -146 -13 -168 -17 -159 -31 6 -10 269 -2 289 8 7 4 7 2 0 -5 -5
-6 -21 -13 -35 -15 -14 -3 3 -5 38 -4 34 1 62 -1 62 -5 0 -10 -476 -15 -583
-6 -68 6 -105 15 -168 43 -44 19 -87 35 -94 35 -32 0 -13 19 23 23 33 3 31 4
-12 5 -33 1 -73 13 -120 36 -39 19 -92 38 -118 42 l-47 6 0 -214 0 -215 72 -8
c75 -8 101 -8 180 -2 39 3 47 1 43 -10 -4 -8 -6 -16 -6 -17 0 -1 -65 -1 -145
2 l-145 4 0 -331 0 -331 1584 0 c1258 0 1585 3 1589 13 4 9 7 9 18 -1 21 -20
34 -14 14 8 -16 17 -20 18 -45 5 -26 -13 -29 -12 -55 15 -16 17 -35 30 -42 30
-15 0 -17 18 -4 39 5 8 16 11 29 7 13 -4 22 -1 26 9 3 9 11 13 17 9 8 -5 8 -8
0 -14 -15 -8 -3 -40 14 -40 9 0 12 12 9 40 -3 30 0 42 11 46 8 4 15 15 15 26
0 10 7 32 15 47 8 16 11 31 8 35 -9 9 -33 -14 -33 -33 0 -10 -3 -12 -8 -5 -4
7 -16 14 -27 16 -14 3 -19 11 -18 25 2 19 -3 22 -39 25 -30 2 -42 8 -44 20 -2
19 -33 55 -35 41 -1 -4 0 -20 1 -35 1 -16 -3 -28 -9 -28 -6 0 -11 -13 -11 -30
0 -23 4 -30 20 -30 13 0 20 -7 20 -19 0 -10 10 -26 23 -34 21 -15 21 -16 2
-16 -11 0 -31 8 -44 18 -13 10 -32 16 -43 13 -17 -4 -18 -2 -7 21 8 18 9 30 2
39 -6 7 -14 28 -18 45 -5 26 -3 33 9 33 19 0 22 20 4 21 -7 0 2 7 20 15 29 13
43 26 25 23 -27 -4 -33 3 -31 37 3 42 13 52 27 25 8 -14 8 -21 -2 -24 -8 -3
-5 -7 7 -12 11 -5 27 -3 38 4 10 6 24 9 30 5 7 -4 8 -3 4 4 -4 7 -14 12 -22
12 -8 0 -14 6 -14 14 0 7 -7 19 -15 26 -9 7 -12 17 -8 21 4 4 253 10 553 14
749 8 954 13 1107 26 135 11 179 9 248 -11 27 -8 81 -11 165 -7 74 4 111 2 92
-2 -18 -5 -36 -11 -39 -14 -6 -7 199 -1 332 9 50 4 161 7 248 6 170 -2 204 6
228 50 11 20 9 21 -20 15 -40 -8 -40 1 -1 14 17 6 30 14 30 19 0 4 11 5 25 2
20 -3 25 0 25 17 0 13 6 21 16 21 10 0 14 6 10 15 -3 8 -1 15 4 15 6 0 10 -6
11 -12 1 -7 2 -22 3 -32 2 -33 105 -45 106 -12 0 6 5 3 11 -6 6 -12 22 -18 45
-18 42 0 37 -16 -9 -26 -17 -3 -40 -12 -51 -19 -11 -8 -32 -11 -52 -8 -21 3
-34 1 -34 -5 0 -6 -24 -16 -54 -22 -51 -10 -87 -33 -69 -43 4 -3 41 -8 82 -12
l73 -7 -7 23 c-4 13 -10 30 -12 37 -5 13 18 16 54 6 13 -4 20 -11 16 -20 -3
-8 -9 -12 -13 -9 -5 3 -11 1 -15 -5 -3 -6 4 -14 16 -19 26 -9 67 -2 50 9 -13
7 -4 40 10 40 5 0 9 -7 9 -15 0 -12 19 -15 115 -15 70 0 115 -4 115 -10 0 -5
-16 -10 -35 -10 -23 0 -38 -6 -42 -16 -4 -11 -13 -13 -34 -9 -44 10 -57 -6
-18 -22 23 -9 68 -14 139 -12 172 2 223 0 229 -10 3 -5 41 -12 83 -16 74 -7
77 -6 104 20 24 24 26 25 21 6 -3 -12 0 -21 6 -21 12 -1 117 -14 187 -24 83
-12 184 -14 206 -4 18 9 30 8 48 -2 14 -7 32 -10 42 -6 9 4 28 -1 41 -10 14
-9 33 -14 44 -11 10 3 17 0 16 -7 -1 -6 4 -10 11 -8 8 1 11 -2 8 -7 -7 -11
-86 -3 -100 10 -16 15 -29 10 -22 -7 6 -17 3 -16 -69 2 -16 4 -17 3 -5 -5 12
-8 10 -12 -10 -20 l-25 -10 23 0 c13 -1 20 -5 17 -11 -8 -13 -42 -13 -47 1 -5
15 -65 15 -118 0 -45 -12 -45 -13 -42 -52 3 -32 9 -42 31 -51 14 -6 21 -12 15
-15 -7 -2 -29 8 -49 22 -21 14 -43 25 -49 25 -6 1 0 10 13 21 32 27 19 37 -57
45 -34 4 -62 10 -62 14 0 4 21 11 48 16 26 4 39 9 30 11 -22 5 -24 23 -3 23
20 0 19 16 -2 24 -11 5 -24 -2 -40 -20 -19 -22 -23 -24 -23 -9 0 13 -6 16 -21
12 -12 -3 -22 0 -25 8 -4 10 -30 13 -107 10 -56 -1 -158 4 -227 11 -69 8 -195
16 -280 19 -85 3 -207 8 -270 13 -65 5 -127 4 -142 -1 -17 -5 -34 -4 -47 3
-16 8 -52 7 -149 -6 -70 -9 -135 -17 -144 -16 -9 0 -19 -5 -22 -13 -6 -17 -46
-8 -46 10 0 18 -44 27 -74 15 -17 -6 -27 -6 -32 1 -10 16 -134 -7 -134 -24 0
-8 -4 -7 -11 0 -9 9 -20 8 -43 -4 -34 -17 -144 -24 -163 -10 -8 6 -29 3 -55
-8 -41 -15 -51 -15 -171 4 -112 17 -134 17 -180 6 -29 -8 -70 -18 -92 -24 -22
-6 -94 -15 -160 -21 -128 -12 -195 -25 -195 -39 0 -17 180 -35 210 -20 8 4 86
9 173 11 134 3 156 2 141 -9 -11 -8 -30 -11 -46 -8 -15 4 -44 1 -63 -5 -42
-14 -48 -36 -7 -25 53 14 71 15 77 6 3 -5 -5 -13 -17 -17 -23 -7 -58 -40 -58
-55 0 -4 -17 -12 -37 -18 l-38 -10 43 2 c23 1 42 -1 42 -4 0 -4 -21 -17 -47
-29 -27 -11 -61 -28 -76 -36 -16 -8 -33 -11 -39 -8 -6 4 -42 8 -81 10 -38 2
-78 6 -89 9 -10 4 -18 2 -18 -4 0 -11 34 -22 60 -19 47 4 91 -3 87 -14 -2 -8
-16 -12 -32 -10 -15 2 -31 -2 -36 -9 -4 -7 -24 -14 -45 -15 -129 -11 35 -14
656 -14 623 0 701 2 690 15 -10 12 -10 15 3 15 9 0 18 8 20 18 4 14 6 14 12
-5 5 -17 15 -23 36 -23 15 0 31 -4 34 -10 3 -5 24 -10 46 -10 37 0 38 1 27 20
-8 12 -24 20 -40 20 -15 0 -29 3 -32 8 -2 4 13 6 35 4 39 -4 39 -4 39 32 0 20
5 36 11 36 6 0 9 -8 6 -19 -3 -11 4 -25 18 -35 13 -10 26 -29 29 -42 l7 -25
162 2 c89 1 156 4 149 7 -10 3 -10 7 -1 18 16 20 32 17 47 -6 15 -25 32 -26
32 -2 0 9 7 30 15 46 18 34 11 42 -70 81 -30 15 -42 25 -30 25 11 0 35 -9 53
-20 18 -11 39 -20 46 -20 8 0 17 -11 20 -25 4 -17 13 -25 27 -25 16 0 19 -4
15 -17 -5 -11 1 -23 16 -36 l23 -18 -34 6 c-25 5 -32 4 -26 -5 7 -12 80 -9 92
4 7 7 -16 36 -29 36 -6 0 -4 -7 3 -17 12 -14 12 -16 0 -12 -18 6 -38 36 -29
44 12 12 59 -8 88 -37 27 -26 35 -29 87 -26 49 3 58 6 61 23 1 11 -4 29 -12
40 -11 15 -17 17 -28 7 -12 -9 -19 -9 -34 3 -10 8 -29 15 -41 15 -13 0 -32 9
-43 20 -11 11 -24 20 -29 20 -5 0 -11 10 -13 22 -3 23 -28 38 -28 16 0 -7 7
-26 15 -42 20 -39 13 -43 -20 -12 -16 15 -36 26 -46 26 -11 0 -19 5 -19 10 0
6 -6 10 -14 10 -20 0 -49 47 -33 53 8 4 8 8 2 14 -16 13 -36 53 -27 53 20 0
62 -26 58 -37 -7 -16 13 -29 57 -37 33 -6 37 -5 37 14 0 13 -4 19 -12 14 -7
-4 -8 -3 -4 4 13 21 26 13 26 -16 0 -21 12 -40 45 -70 48 -45 84 -53 120 -29
26 18 195 21 305 6 47 -7 100 -12 118 -12 24 0 31 -4 28 -14 -5 -11 4 -13 37
-12 23 2 64 2 91 1 39 -2 46 -5 37 -15 -15 -19 -4 -27 36 -27 30 0 33 3 28 20
-5 14 -2 20 9 20 9 0 16 -7 16 -15 0 -17 55 -21 79 -6 16 10 -28 26 -101 36
-27 3 -48 10 -48 16 0 5 7 9 15 9 8 0 12 6 9 14 -5 12 2 12 43 1 26 -7 102
-18 168 -25 144 -14 181 -29 80 -31 -38 -1 -73 -1 -77 0 -5 0 -8 -3 -8 -8 0
-21 135 -29 143 -8 4 9 6 9 6 0 1 -15 61 -18 61 -3 0 6 9 10 20 10 11 0 20 -4
20 -10 0 -16 27 -12 34 5 3 9 19 15 41 15 19 0 35 5 35 11 0 7 11 9 30 5 17
-3 30 -1 30 4 0 6 -4 10 -10 10 -5 0 -10 5 -10 10 0 6 12 2 28 -9 24 -18 50
-21 237 -27 116 -4 239 -7 275 -7 68 1 191 16 225 28 16 6 17 5 5 -4 -12 -8
-5 -11 30 -10 37 0 41 2 23 9 -13 5 -23 11 -23 14 0 7 40 -6 45 -14 3 -4 21
-4 41 0 45 10 69 3 54 -15 -6 -7 -22 -16 -36 -19 -20 -5 -24 -11 -18 -29 9
-31 12 -32 34 -12 16 14 22 15 35 5 8 -7 23 -9 32 -6 11 5 14 10 7 14 -6 4
-15 18 -19 32 -8 25 -8 25 14 6 11 -11 21 -25 21 -33 0 -10 6 -12 19 -8 11 3
22 1 26 -5 3 -5 40 -10 81 -10 43 0 90 -6 109 -14 35 -15 45 -10 23 12 -13 13
14 17 82 12 37 -2 47 -6 37 -16 -9 -10 -67 -11 -67 -1 0 4 -5 5 -10 2 -32 -20
24 -25 260 -25 185 0 259 3 262 11 3 9 10 9 27 -1 13 -7 37 -9 55 -6 17 4 41
7 54 6 26 0 27 8 7 38 -15 20 -15 21 2 16 13 -4 12 -1 -4 12 -31 22 -29 31 7
32 33 1 96 -50 85 -69 -5 -6 -14 1 -26 20 -10 17 -23 31 -28 31 -7 0 -8 -13
-2 -77 1 -10 195 -12 875 -13 l874 0 6 24 c3 14 3 32 0 40 -5 12 1 16 24 16
39 0 53 20 15 21 -15 1 -33 1 -40 0 -6 -1 -14 3 -18 9 -3 5 -19 10 -36 10 -19
0 -29 5 -29 15 0 19 -37 34 -94 39 -22 2 -46 4 -52 5 -7 1 -9 12 -6 27 5 26 4
26 -37 19 -36 -6 -46 -4 -66 15 -20 19 -27 21 -40 10 -8 -7 -15 -21 -15 -31 0
-16 8 -19 51 -19 31 0 48 -4 44 -10 -3 -5 4 -11 17 -11 17 -1 18 -3 6 -6 -10
-2 -18 -8 -18 -13 0 -14 -64 -8 -75 6 -8 10 -21 11 -58 3 -55 -12 -137 4 -137
26 0 10 8 10 38 -1 52 -18 98 -18 106 2 4 10 1 14 -6 11 -16 -5 -69 21 -85 42
-11 14 -12 13 -13 -8 0 -24 0 -24 -20 -6 -12 11 -19 28 -18 44 2 19 -2 26 -14
26 -9 0 -20 4 -24 8 -15 14 -21 6 -16 -19 3 -19 1 -25 -7 -20 -6 4 -11 14 -11
22 0 8 -4 14 -10 14 -5 0 -7 6 -4 13 3 8 -12 18 -38 27 -62 22 -56 42 17 58
88 20 111 33 45 25 -30 -3 -65 -10 -77 -14 -14 -5 -23 -5 -23 1 0 6 -12 10
-26 10 -18 0 -25 4 -21 14 8 20 -14 26 -101 27 -69 1 -73 2 -42 11 19 5 45 10
58 10 17 0 21 4 17 19 -3 10 -7 27 -10 38 -4 12 -18 20 -40 24 -20 3 -47 15
-62 26 -33 26 -46 27 -38 1 6 -18 2 -19 -54 -16 -33 1 -62 -1 -63 -4 -5 -13
-48 -22 -48 -11 0 6 6 11 13 12 6 0 -4 7 -23 14 -41 16 -97 19 -102 6 -1 -6
-19 -13 -38 -16 -49 -9 -48 -12 9 -20 28 -4 48 -11 45 -16 -3 -5 12 -10 33
-10 37 -1 37 -2 8 -9 -16 -4 -52 -5 -80 -4 l-50 3 40 -9 c22 -5 49 -11 60 -13
11 -3 79 -11 150 -18 72 -7 122 -15 113 -17 -26 -5 -22 -20 10 -35 34 -16 132
-13 143 5 6 10 11 10 20 1 7 -7 10 -16 6 -20 -11 -11 -131 -22 -142 -14 -5 4
-19 11 -30 15 -17 6 -17 4 5 -19 21 -23 29 -25 74 -19 l51 7 -25 -27 c-17 -19
-32 -26 -47 -23 -23 4 -40 -18 -21 -29 7 -4 6 -9 -3 -15 -28 -18 13 -30 76
-23 33 4 67 7 75 6 8 0 22 2 30 4 12 4 12 7 1 13 -9 6 -10 11 -2 15 6 4 11 2
11 -3 0 -6 11 -11 24 -11 14 0 27 -4 30 -8 8 -13 -10 -34 -25 -31 -8 2 -26 0
-41 -4 -15 -4 -38 -3 -53 3 -17 7 -24 7 -20 0 9 -14 -9 -12 -23 2 -8 8 -12 8
-12 1 0 -32 -84 -15 -135 27 -10 8 -33 10 -65 7 -32 -4 -48 -2 -44 4 8 14 56
33 77 30 10 -1 17 4 17 13 0 9 5 16 10 16 20 0 9 18 -15 24 -14 4 -25 11 -25
16 0 6 -4 10 -10 10 -5 0 -10 -5 -10 -11 0 -7 -12 -23 -26 -36 -25 -23 -27
-23 -45 -7 -10 9 -17 20 -14 24 5 9 -39 30 -63 30 -15 0 -15 2 -2 10 13 8 12
10 -4 10 -11 0 -27 7 -37 16 -13 12 -28 14 -63 9 l-46 -7 23 -19 c17 -14 18
-18 7 -19 -9 0 -22 6 -29 12 -11 10 -14 10 -18 1 -3 -7 -16 -13 -30 -13 -18 0
-24 -4 -19 -15 3 -8 1 -15 -4 -15 -13 0 -25 23 -22 43 2 9 -1 17 -7 17 -6 0
-8 -7 -5 -15 4 -8 1 -15 -4 -15 -6 0 -38 -16 -71 -35 -32 -19 -67 -35 -77 -35
-38 0 43 -58 91 -66 51 -7 56 -20 19 -55 -24 -22 -26 -23 -36 -6 -8 14 -13 16
-24 6 -8 -6 -14 -20 -14 -30 0 -11 -5 -19 -11 -19 -5 0 -8 -4 -4 -9 3 -5 1
-12 -4 -15 -5 -3 -11 1 -15 9 -3 8 -18 15 -33 16 -15 0 -37 4 -47 8 -18 7 -18
8 5 24 13 9 31 17 40 17 26 0 31 28 9 42 -11 7 -20 18 -20 24 0 7 -9 14 -20
17 -25 6 -26 -1 -2 -19 16 -12 15 -13 -8 -14 -14 0 -35 3 -48 6 -18 5 -20 9
-11 20 6 8 18 14 26 14 13 0 13 3 2 16 -9 11 -23 14 -47 10 -27 -4 -39 0 -59
19 -32 29 -54 23 -47 -13 5 -31 1 -39 -45 -71 -19 -13 -36 -19 -40 -14 -11 18
-49 33 -80 33 -17 0 -41 6 -52 13 -17 9 -23 9 -26 0 -6 -17 -21 -16 -39 2 -19
18 -80 20 -91 2 -14 -22 -57 -37 -138 -47 -44 -6 -102 -14 -130 -18 -27 -4
-77 -7 -110 -7 -33 0 -63 -4 -67 -9 -4 -6 -16 1 -28 17 -12 15 -24 26 -28 25
-4 -1 -15 2 -25 7 -10 4 -23 2 -31 -4 -7 -6 -16 -8 -19 -5 -9 10 -120 12 -138
3 -8 -4 -22 -3 -30 2 -11 7 -10 9 6 9 41 1 -11 20 -59 22 -26 0 -49 5 -52 10
-3 4 1 8 8 8 9 0 9 3 -2 10 -8 5 -22 9 -30 9 -10 0 -11 -2 -2 -6 19 -8 14 -23
-8 -23 -11 0 -23 7 -26 15 -5 11 -10 12 -24 2 -28 -17 -8 -34 51 -42 27 -4 49
-10 49 -15 0 -4 -29 -2 -65 5 -36 6 -67 10 -70 7 -3 -3 -5 0 -5 6 0 7 -7 12
-16 12 -10 0 -14 6 -10 15 4 11 -2 15 -27 15 -18 0 -39 6 -47 12 -12 11 -12
10 -1 -4 11 -15 11 -18 -3 -18 -9 0 -16 7 -16 15 0 8 -11 17 -25 21 -14 3 -29
13 -33 21 -5 8 -28 16 -53 18 -24 3 -64 12 -89 21 -54 19 -198 23 -209 5 -6
-9 -11 -8 -21 4 -7 8 -21 15 -31 15 -10 0 -21 5 -24 10 -4 6 -11 8 -16 5 -5
-4 -9 -1 -9 5 0 6 8 10 18 9 18 -3 104 8 135 17 23 7 22 24 -3 24 -11 0 -20 5
-20 10 0 6 5 10 10 10 6 0 10 9 10 20 0 11 5 20 10 20 6 0 10 8 10 18 0 15 9
17 67 15 38 -1 87 -2 111 -2 23 -1 42 -6 42 -12 0 -5 -4 -8 -8 -5 -13 8 -82
-13 -82 -24 0 -6 5 -10 11 -10 5 0 8 -4 5 -9 -3 -5 -35 -12 -70 -15 -57 -7
-63 -10 -59 -27 4 -15 14 -19 52 -18 25 0 69 4 96 10 28 5 88 16 135 23 142
24 191 37 187 49 -2 7 -10 12 -18 12 -16 0 -83 35 -77 40 5 5 100 -15 124 -26
14 -7 57 -7 135 0 140 13 142 13 134 1 -4 -6 -12 -10 -18 -8 -7 1 -31 -8 -54
-20 -23 -12 -50 -22 -61 -22 -10 0 -22 -4 -27 -9 -6 -5 -19 -11 -30 -14 -28
-6 27 2 103 15 55 9 65 8 82 -7 10 -9 23 -14 29 -11 5 4 14 -2 20 -11 10 -17
10 -17 11 0 0 21 28 22 58 1 32 -22 42 -7 12 17 l-25 19 29 -10 c16 -6 34 -14
40 -18 6 -4 31 -8 56 -9 243 -11 241 -11 229 3 -9 11 -7 14 9 14 11 0 25 -7
32 -15 13 -16 47 -20 75 -8 15 5 15 8 -6 24 l-24 19 24 0 c13 0 29 -7 35 -16
9 -11 36 -17 96 -21 48 -3 95 -12 108 -20 22 -14 37 -14 312 -13 19 0 50 5 68
11 28 9 33 15 30 37 -3 25 -7 27 -46 27 -48 0 -60 -8 -42 -30 9 -11 9 -15 1
-15 -6 0 -11 4 -11 9 0 9 -80 66 -103 74 -9 3 -8 8 2 20 12 15 11 17 -3 17 -9
0 -17 8 -17 18 -1 9 -2 24 -3 32 -1 8 -5 21 -10 29 -7 11 -10 11 -18 -3 -10
-19 -49 -22 -46 -4 2 7 -7 14 -19 16 -13 2 -23 7 -23 12 0 4 -9 10 -20 13 -11
3 -20 1 -20 -5 0 -5 -7 -16 -15 -24 -12 -12 -26 -13 -72 -6 -32 5 -48 10 -35
11 36 2 25 21 -12 21 -19 0 -38 5 -41 10 -3 6 -14 10 -22 10 -13 0 -12 -5 7
-22 14 -13 19 -23 12 -26 -13 -4 -42 21 -42 37 0 6 -4 11 -10 11 -5 0 -10 -4
-10 -10 0 -10 -71 -7 -90 5 -6 4 -21 -2 -33 -13 -12 -11 -39 -23 -59 -27 -39
-7 -41 -17 -8 -35 16 -8 18 -8 14 5 -4 8 -2 15 4 15 6 0 18 3 27 7 14 5 16 2
10 -15 -7 -23 9 -31 19 -9 5 9 7 9 12 0 7 -17 51 -17 57 0 4 9 6 9 6 0 1 -16
65 -17 93 -2 11 6 18 7 15 2 -3 -4 23 -9 57 -10 61 -2 144 -23 195 -50 22 -10
23 -13 8 -19 -10 -3 -26 -4 -37 -1 -11 3 -18 1 -14 -4 3 -5 0 -9 -5 -9 -6 0
-11 5 -11 11 0 6 -6 9 -14 6 -7 -3 -18 -1 -24 5 -5 5 -36 11 -68 13 -33 2 -93
8 -134 14 -41 7 -88 11 -105 10 -16 -1 -37 1 -45 4 -8 4 -49 10 -90 15 -41 5
-63 10 -47 11 15 0 27 5 27 11 0 10 -24 17 -81 22 -29 3 -36 1 -31 -11 4 -11
1 -13 -12 -8 -10 4 -20 7 -22 7 -2 0 -4 5 -4 11 0 5 5 7 10 4 6 -3 10 -1 10 4
0 12 -3 13 -40 16 -14 2 -45 6 -70 9 -33 5 -50 3 -65 -8 -17 -13 -18 -15 -3
-16 9 0 19 -4 22 -8 3 -5 -106 -7 -242 -4 -136 2 -273 4 -304 4 -32 0 -58 3
-58 7 0 3 -5 35 -11 71 -6 36 -8 84 -4 106 5 36 9 41 27 36 19 -5 19 -6 4 -17
-14 -11 -12 -13 15 -19 17 -3 73 -6 125 -6 51 0 96 -4 99 -10 3 -5 -2 -10 -12
-10 -15 0 -15 -2 -3 -10 9 -5 19 -5 27 2 10 8 13 6 13 -5 0 -10 10 -15 28 -15
43 0 72 8 72 18 0 6 -10 20 -22 33 -13 12 -23 27 -23 32 0 13 -28 13 -38 0 -6
-7 -10 -6 -14 3 -4 10 -9 8 -20 -8 -19 -26 -59 -24 -56 4 1 18 -5 18 -83 13
-61 -4 -83 -3 -78 5 5 8 -8 9 -43 5 l-51 -6 3 65 c1 35 -1 64 -5 64 -13 0 -20
-30 -14 -56 9 -37 -4 -29 -22 14 -26 61 -29 123 -7 140 17 13 17 13 -6 10 -16
-2 -28 4 -38 19 -15 22 -14 23 10 21 16 -1 23 -7 20 -15 -3 -7 0 -13 7 -13 6
0 14 9 17 20 3 11 8 20 12 21 3 0 18 1 32 3 33 2 79 32 79 51 0 22 18 18 25
-6 4 -13 2 -25 -5 -29 -22 -14 8 -22 44 -11 19 5 37 7 40 4 2 -3 11 -1 18 3 7
5 49 7 93 6 74 -2 79 -1 60 14 -11 8 -32 14 -47 11 -15 -2 -25 0 -22 5 3 4 -7
8 -23 7 -15 0 -22 -3 -15 -6 22 -9 13 -20 -13 -15 -19 3 -25 11 -25 29 0 23 2
24 50 18 35 -4 50 -3 50 5 0 7 -8 10 -18 8 -10 -3 -23 1 -29 8 -10 10 -5 18
22 38 34 26 35 26 47 6 7 -11 18 -20 25 -20 15 0 28 -44 18 -59 -3 -6 -2 -11
3 -11 12 0 33 -56 25 -64 -4 -3 7 -6 23 -6 16 0 24 4 19 8 -6 4 -11 23 -11 42
-1 77 -4 101 -13 95 -14 -8 -32 30 -25 49 3 9 1 16 -6 16 -6 0 -9 4 -6 9 3 5
-1 11 -9 15 -8 3 -17 0 -21 -5 -4 -6 -14 -3 -25 10 -25 27 -24 34 3 20 16 -9
23 -9 26 0 2 6 15 9 30 6 25 -5 25 -4 -2 6 -23 9 -31 9 -34 0 -3 -8 -8 -9 -16
-1 -17 13 -76 -7 -76 -26 0 -7 -8 -18 -19 -23 -23 -13 -58 18 -41 35 12 12 3
44 -11 44 -5 0 -16 17 -24 38 -17 41 -63 73 -94 65 -11 -3 -32 2 -48 10 -32
18 -169 41 -185 31 -5 -4 3 -19 20 -38 17 -17 31 -38 32 -46 5 -32 -1 -50 -14
-50 -8 0 -17 -6 -19 -12 -4 -10 -6 -10 -6 0 -1 6 -10 12 -21 12 -30 0 -24 -17
8 -23 26 -5 28 -9 28 -56 0 -28 -2 -51 -5 -51 -22 2 -48 45 -69 115 -3 11 -9
24 -14 30 -4 5 -17 21 -27 35 l-19 25 5 -27 c3 -14 0 -42 -6 -61 -7 -19 -14
-54 -17 -78 -5 -41 -25 -68 -51 -69 -18 0 -16 -35 2 -50 8 -7 15 -17 15 -23 0
-17 50 -57 64 -51 8 3 17 1 21 -5 3 -6 0 -11 -7 -11 -8 -1 -6 -6 6 -15 14 -11
16 -15 6 -15 -18 0 -160 147 -160 165 0 7 -9 15 -20 18 -14 4 -19 13 -18 33 1
39 -18 193 -32 246 -13 51 -41 118 -49 118 -3 0 -7 -30 -7 -67 -1 -38 -3 -94
-5 -125 -4 -52 -6 -58 -26 -58 -32 0 -20 -19 37 -60 27 -19 50 -39 50 -43 0
-4 -21 7 -46 25 -26 18 -60 43 -78 54 -49 34 -73 64 -57 73 9 6 0 11 -26 15
-36 7 -103 58 -103 79 0 4 -7 15 -15 23 -8 9 -15 26 -15 40 0 13 -4 24 -10 24
-5 0 -10 15 -10 34 0 18 -6 39 -14 45 -8 7 -17 28 -21 48 -4 20 -15 48 -26 61
-10 14 -19 35 -19 48 0 13 -17 50 -37 81 -21 32 -38 63 -38 68 0 17 -38 50
-73 64 -19 8 -49 11 -73 8 -44 -6 -93 -43 -84 -64 8 -22 -37 -33 -53 -14 -12
14 -13 13 -7 -9 4 -14 9 -38 12 -54 3 -16 13 -31 24 -33 10 -3 21 -18 24 -35
4 -16 13 -32 20 -35 19 -7 8 -28 -20 -41 -19 -9 -24 -19 -24 -44 4 -103 -1
-130 -22 -135 -22 -6 -22 -6 -1 -22 26 -21 40 -91 18 -91 -18 0 -49 44 -51 72
-2 26 -19 40 -49 40 -31 1 -31 1 -10 33 9 13 13 29 10 34 -4 5 -2 28 3 50 10
46 0 54 -17 16 -6 -14 -16 -25 -21 -25 -5 0 -14 -20 -20 -44 -6 -25 -17 -50
-24 -58 -8 -7 -18 -27 -22 -43 -10 -31 -11 -13 -30 336 -7 128 -6 150 10 182
15 31 15 42 5 67 -7 18 -9 41 -5 57 5 16 7 41 6 56 -2 15 5 39 13 52 15 23 15
26 -4 45 -11 11 -20 33 -20 48 0 16 -3 31 -6 34 -3 3 -7 33 -9 67 -2 50 0 61
14 66 9 3 17 13 18 22 5 86 13 128 24 137 8 6 15 20 15 31 1 11 4 27 8 37 6
12 0 18 -23 23 -21 4 -31 13 -31 25 0 9 -7 24 -16 31 -12 9 -15 24 -11 51 3
21 1 38 -4 38 -17 0 -9 44 12 67 18 19 20 25 9 38 -20 24 2 62 39 70 17 4 31
8 31 10 0 13 -43 95 -55 105 -26 21 -17 37 40 69 31 18 97 69 146 114 50 45
123 108 163 140 39 31 92 78 118 102 26 25 54 45 64 45 10 0 26 8 36 17 10 9
35 17 56 18 20 1 45 5 55 10 10 4 44 5 74 2 l57 -6 -33 20 c-27 16 -31 22 -21
34 8 10 9 15 2 15 -12 0 -10 66 2 78 9 8 14 9 58 11 32 1 32 1 10 17 -29 20
-28 49 3 78 14 13 25 28 25 33 0 17 46 53 68 53 13 0 22 6 22 15 0 8 5 15 11
15 6 0 8 8 5 18 -6 16 -5 16 8 0 7 -10 21 -18 31 -18 17 0 17 1 2 18 -39 43
-9 57 89 42 96 -14 144 -37 144 -67 0 -13 6 -23 15 -23 8 0 31 -14 50 -32 28
-24 35 -36 30 -55 -4 -16 -1 -23 9 -23 19 0 56 -47 56 -72 0 -10 -9 -36 -20
-58 -25 -48 -25 -50 0 -50 24 0 74 -46 65 -60 -6 -10 33 -50 79 -83 16 -11 26
-27 26 -42 0 -16 6 -25 15 -25 8 0 20 -9 27 -19 6 -10 18 -17 25 -14 33 13 58
-48 31 -75 -9 -9 -9 -12 0 -12 18 0 75 -91 75 -121 0 -16 6 -29 13 -31 25 -6
94 -102 94 -131 0 -16 4 -37 10 -47 11 -21 -11 -46 -32 -34 -7 4 3 -10 22 -30
19 -21 48 -44 63 -52 35 -19 67 -70 67 -109 0 -20 7 -35 21 -43 14 -9 19 -20
16 -34 -4 -15 3 -29 25 -50 22 -21 29 -35 26 -53 -3 -14 1 -30 9 -37 8 -6 13
-21 11 -33 -1 -12 3 -30 11 -39 10 -12 11 -19 2 -29 -11 -15 3 -37 24 -37 6 0
22 -11 35 -25 23 -25 24 -27 8 -68 l-16 -43 35 -38 c30 -32 34 -43 30 -72 -4
-24 -1 -36 10 -43 21 -12 9 -61 -17 -68 -31 -8 -23 -21 20 -34 22 -7 40 -16
40 -21 0 -5 11 -6 24 -2 21 5 29 -1 51 -35 14 -23 23 -46 19 -52 -3 -6 2 -19
11 -29 11 -12 15 -28 12 -41 -4 -16 4 -33 29 -62 18 -22 34 -46 34 -53 0 -8
14 -29 30 -48 17 -18 41 -65 54 -102 13 -38 40 -113 60 -166 19 -53 42 -127
50 -165 8 -37 38 -135 65 -217 28 -82 51 -156 51 -164 0 -8 8 -29 19 -46 10
-17 22 -53 26 -80 3 -27 9 -54 11 -61 3 -8 -9 -14 -37 -18 -23 -3 -46 -13 -51
-21 -12 -21 -91 -21 -149 0 -65 23 -326 28 -382 7 -23 -8 -94 -18 -157 -22
-95 -5 -115 -9 -118 -22 -2 -10 5 -19 18 -22 11 -3 20 -1 20 4 0 5 9 9 20 9
24 0 26 -15 4 -24 -13 -5 -14 -9 -5 -20 9 -10 31 -13 81 -11 39 2 70 -1 70 -6
0 -5 11 -9 25 -9 18 0 28 7 35 25 7 17 16 24 32 23 13 0 28 1 33 2 6 2 30 1
55 -3 25 -3 82 -8 127 -11 45 -3 91 -9 102 -15 28 -16 36 -14 20 6 -13 15 -11
16 20 10 18 -4 38 -7 43 -7 5 0 6 -4 3 -10 -3 -5 3 -10 15 -10 12 0 18 5 15
10 -7 11 18 13 52 4 13 -4 20 -10 17 -15 -3 -5 2 -9 10 -9 9 0 16 4 16 10 0
12 27 8 58 -9 12 -6 31 -9 42 -6 10 3 21 1 25 -5 4 -6 -7 -10 -27 -11 -18 0
-62 -1 -98 -3 -36 -1 -72 3 -81 8 -23 13 -48 1 -43 -21 4 -15 16 -19 55 -21
28 -1 60 -9 72 -17 12 -8 31 -15 42 -15 14 1 10 5 -14 16 -19 8 -31 17 -28 20
9 9 77 -5 77 -16 0 -5 15 -9 33 -8 17 0 51 -2 74 -6 23 -4 47 -5 53 -1 16 10
-18 38 -40 32 -19 -5 -60 25 -60 43 0 6 9 10 20 10 12 0 17 -5 14 -14 -4 -9 5
-15 28 -19 18 -2 35 -3 37 -1 8 7 -11 24 -27 24 -11 0 -18 8 -18 20 0 24 0 24
20 4 9 -8 16 -11 16 -5 0 17 57 13 64 -5 4 -10 13 -13 26 -9 12 4 26 0 35 -8
9 -9 24 -13 37 -10 23 6 23 6 -2 -16 -24 -22 -50 -23 -113 -5 -13 4 -16 0 -14
-18 4 -20 10 -23 48 -24 43 0 109 -22 109 -36 0 -4 -15 -2 -32 3 -18 5 -34 9
-36 9 -1 0 2 -9 8 -19 8 -16 17 -18 51 -14 30 4 40 3 35 -5 -12 -20 37 -31
143 -31 56 0 110 -2 120 -6 13 -4 23 0 30 13 9 16 3 22 -41 41 -30 13 -63 20
-77 18 -31 -6 -93 36 -85 57 8 20 -46 66 -76 66 -25 0 -79 34 -69 44 3 3 19 6
37 8 45 3 40 14 -15 33 -27 10 -63 24 -82 32 -31 14 -35 14 -62 -6 -24 -18
-32 -19 -53 -10 -28 13 -42 63 -48 175 -3 50 -1 61 10 56 11 -4 12 -1 4 14
-28 52 -40 94 -40 139 -1 28 -4 96 -8 152 -5 86 -9 102 -24 106 -27 7 -43 79
-37 159 l6 67 -31 -6 c-22 -4 -29 -3 -24 5 4 6 1 20 -6 31 -10 16 -10 28 -1
50 7 19 7 33 1 39 -6 6 -6 18 2 32 6 12 10 22 8 23 -40 20 -43 26 -43 80 0 47
-3 57 -18 59 -10 2 -17 6 -17 11 0 4 -7 21 -17 38 -11 19 -14 33 -8 37 6 4 16
18 23 31 12 20 12 25 1 32 -8 4 -14 26 -14 48 0 23 -2 41 -6 41 -15 0 -32 64
-32 118 0 41 -4 62 -17 73 -12 12 -17 36 -19 85 -1 38 -6 73 -12 80 -5 6 -12
32 -15 58 -4 26 -10 49 -15 52 -4 2 -6 11 -3 19 3 8 -1 22 -10 30 -9 9 -16 23
-16 31 0 8 -4 13 -9 10 -5 -3 -7 -15 -4 -25 7 -26 -14 -61 -35 -61 -34 0 -89
75 -95 129 -2 17 -12 40 -22 51 -18 19 -18 23 -3 70 l16 49 -32 6 c-17 4 -38
9 -48 11 -17 5 -78 121 -82 158 -1 12 -6 28 -12 36 -21 34 -31 82 -26 129 3
35 1 51 -7 51 -18 0 -71 60 -88 98 -12 30 -12 37 1 57 16 24 6 45 -23 45 -8 0
-25 9 -37 21 l-21 20 4 -25 c5 -26 -2 -32 -23 -18 -15 9 -44 67 -44 87 0 20
29 19 47 -2 14 -17 14 -17 9 0 -8 25 3 47 25 47 10 0 19 2 19 4 0 5 -28 74
-47 114 -9 18 -16 50 -17 70 -1 24 -7 39 -17 44 -9 3 -19 20 -22 38 -4 17 -18
45 -31 63 -29 38 -51 116 -43 154 3 16 0 35 -7 43 -16 19 -46 100 -46 123 0
16 -8 20 -40 18 -10 0 -11 1 -2 5 6 3 12 16 12 29 0 18 -4 22 -19 18 -24 -6
-80 23 -88 45 -14 43 -54 122 -62 122 -14 0 -40 73 -47 132 -3 32 -12 62 -19
68 -7 6 -16 37 -20 68 -6 50 -10 60 -36 74 -20 12 -29 25 -29 42 0 35 -20 75
-35 70 -7 -3 -19 2 -28 10 -9 9 -20 16 -25 16 -15 0 -40 33 -47 63 -4 15 -19
34 -34 41 -31 17 -60 55 -89 116 -28 61 -68 103 -100 105 -15 1 -31 3 -37 3
-5 1 -26 26 -45 54 -19 29 -45 61 -57 71 -13 10 -23 25 -23 33 0 8 -4 14 -10
14 -5 0 -16 12 -25 28 -12 20 -14 22 -10 5 9 -34 -24 -47 -52 -21 -13 12 -23
16 -23 10 0 -7 -4 -12 -10 -12 -5 0 -10 11 -10 23 0 24 -35 65 -45 55 -5 -5 5
-32 37 -104 6 -12 30 -42 54 -67 25 -27 44 -56 44 -69 0 -13 21 -63 45 -113
25 -49 45 -97 45 -106 0 -32 -39 -29 -85 7 -25 19 -45 31 -45 28 0 -11 84
-180 104 -208 14 -21 16 -31 8 -34 -7 -2 -26 -15 -43 -29 -24 -21 -32 -23 -44
-13 -21 18 -49 -9 -87 -84 -16 -32 -47 -84 -68 -115 -21 -31 -45 -80 -54 -110
-9 -30 -40 -98 -70 -150 -29 -53 -64 -116 -78 -141 -59 -107 -205 -339 -242
-385 -23 -27 -86 -96 -141 -153 -96 -98 -102 -103 -145 -105 -25 -1 -48 -6
-51 -11 -4 -5 -15 -5 -25 -1 -15 6 -16 9 -4 12 8 2 20 15 27 29 11 23 8 31
-28 76 -32 40 -39 58 -39 91 l1 42 14 -38 c7 -22 23 -49 34 -61 12 -12 21 -28
21 -35 0 -14 51 -81 62 -81 4 0 5 7 1 16 -4 10 0 22 9 28 14 10 13 16 -11 51
-28 42 -38 99 -21 120 7 9 6 16 -5 25 -23 19 -18 37 13 52 15 7 28 19 28 26 1
6 2 13 3 15 1 1 3 22 5 47 l3 45 -41 0 c-60 -1 -65 3 -64 43 0 20 -1 42 -3 47
-1 6 2 19 6 29 6 13 4 21 -3 24 -7 2 -12 12 -12 22 0 10 -4 22 -10 25 -5 3
-10 30 -9 58 l0 52 13 -35 c6 -19 17 -34 23 -33 5 1 23 -11 38 -27 33 -34 47
-38 44 -12 -3 32 1 33 31 12 17 -12 30 -18 30 -13 0 4 -8 13 -18 20 -23 14
-55 79 -47 93 3 6 19 10 34 10 45 0 44 11 -4 58 -25 25 -44 50 -42 56 2 6 17
13 33 17 16 3 38 10 48 16 16 9 15 11 -11 16 -42 8 -141 56 -168 81 -57 52
-65 52 -65 7 l-1 -26 -21 25 -21 25 8 -32 c4 -21 3 -33 -4 -33 -6 0 -13 -11
-17 -25 -7 -29 -10 -30 -30 -11 -18 18 -18 37 0 30 10 -4 12 1 9 19 -3 14 -11
24 -20 23 -22 -2 -79 106 -83 159 -1 6 -8 18 -17 27 -11 12 -13 27 -9 53 5 26
3 40 -9 51 -17 17 -20 44 -6 44 5 0 11 7 13 16 3 13 7 12 32 -7 26 -21 30 -21
41 -6 13 18 61 24 50 7 -6 -10 19 -65 34 -74 5 -3 7 3 4 15 -3 12 -1 24 4 28
14 9 26 74 11 65 -8 -5 -9 2 -4 22 4 16 12 32 18 35 15 9 1 29 -21 29 -27 0
-142 117 -134 137 4 11 3 14 -6 9 -9 -6 -11 1 -5 29 6 32 4 37 -15 42 -19 5
-53 61 -74 126 -9 25 -23 21 -48 -14 -38 -53 -71 -81 -90 -76 -12 3 -24 -4
-34 -19 -22 -34 -35 -30 -35 11 0 28 -5 37 -23 44 -18 7 -26 22 -36 63 -13 58
-37 102 -51 93 -5 -3 -18 3 -30 15 -24 24 -78 27 -87 4 -3 -8 -11 -13 -19 -10
-7 3 -24 -4 -37 -14 -13 -11 -46 -27 -73 -36 -58 -19 -122 -64 -117 -81 3 -7
-11 -19 -30 -27 -19 -7 -38 -19 -41 -25 -4 -5 -15 -7 -26 -3 -10 4 -41 5 -68
4 l-49 -4 -11 -50 c-7 -27 -12 -58 -12 -68 0 -10 -22 -62 -50 -116 l-50 -97
20 -32 c19 -30 19 -35 5 -68 -13 -31 -13 -37 0 -44 8 -5 11 -13 6 -21 -7 -11
-11 -10 -24 2 -12 12 -13 23 -7 46 7 24 4 36 -16 65 -25 37 -33 108 -14 120 6
3 10 19 10 34 0 33 9 44 25 31 15 -12 50 34 48 62 -1 10 2 20 7 23 4 3 6 24 3
48 -3 23 -2 39 2 35 8 -8 35 9 35 21 0 3 -23 7 -50 9 -40 2 -50 0 -50 -12 0
-25 -13 -19 -51 22 -20 20 -41 57 -48 82 -7 24 -20 49 -28 55 -9 7 -15 24 -15
38 0 15 -4 30 -9 33 -5 3 -9 18 -9 33 0 20 -6 30 -20 34 -11 3 -20 1 -20 -3z
m-215 -350 c0 -48 -20 -48 -21 0 -1 26 3 39 10 37 6 -2 11 -19 11 -37z m465
-24 c0 -3 -4 -8 -10 -11 -5 -3 -10 -1 -10 4 0 6 5 11 10 11 6 0 10 -2 10 -4z
m1066 -81 c4 -8 3 -23 -1 -32 -7 -17 -8 -16 -15 2 -5 11 -9 26 -9 33 -1 17 18
15 25 -3z m-1536 -31 c0 -14 -4 -23 -9 -20 -5 3 -7 15 -4 26 7 28 13 25 13 -6z
m2865 -104 c3 -5 -1 -10 -9 -10 -9 0 -16 5 -16 10 0 6 4 10 9 10 6 0 13 -4 16
-10z m-2518 -106 c-4 -40 -2 -47 20 -61 17 -12 21 -19 13 -27 -8 -8 -13 -7
-20 3 -4 8 -16 16 -25 17 -47 7 -60 28 -25 39 16 5 19 12 14 33 -4 15 -13 34
-20 43 -23 26 -16 31 17 13 30 -15 31 -18 26 -60z m-1102 -53 c3 -5 1 -12 -5
-16 -5 -3 -10 1 -10 9 0 18 6 21 15 7z m1405 -21 c-11 -20 -30 -28 -30 -12 0
11 22 32 32 32 5 0 4 -9 -2 -20z m-127 -7 c-7 -2 -19 -2 -25 0 -7 3 -2 5 12 5
14 0 19 -2 13 -5z m77 -38 c0 -8 -4 -15 -10 -15 -5 0 -10 7 -10 15 0 8 5 15
10 15 6 0 10 -7 10 -15z m-1440 -21 c0 -8 -5 -12 -10 -9 -6 4 -8 11 -5 16 9
14 15 11 15 -7z m710 1 c0 -8 -2 -15 -4 -15 -2 0 -6 7 -10 15 -3 8 -1 15 4 15
6 0 10 -7 10 -15z m550 -95 c0 -5 -2 -10 -4 -10 -3 0 -8 5 -11 10 -3 6 -1 10
4 10 6 0 11 -4 11 -10z m-31 -95 c0 -5 -4 -3 -9 5 -5 8 -9 22 -9 30 0 16 17
-16 18 -35z m1211 -16 c0 -6 -4 -7 -10 -4 -5 3 -10 11 -10 16 0 6 5 7 10 4 6
-3 10 -11 10 -16z m-1230 -15 c0 -8 -4 -12 -10 -9 -5 3 -10 10 -10 16 0 5 5 9
10 9 6 0 10 -7 10 -16z m1245 -44 c3 -5 1 -10 -4 -10 -6 0 -11 5 -11 10 0 6 2
10 4 10 3 0 8 -4 11 -10z m-1200 -35 l29 -24 -39 13 c-22 8 -41 19 -43 25 -6
19 22 11 53 -14z m1265 -18 c0 -18 -2 -19 -10 -7 -8 12 -10 12 -10 1 0 -8 -2
-12 -5 -10 -2 3 -2 15 2 27 7 27 23 19 23 -11z m-1292 -72 c-3 -3 -9 2 -12 12
-6 14 -5 15 5 6 7 -7 10 -15 7 -18z m1261 -26 c-24 -34 -34 -32 -26 3 4 15 14
24 27 25 l21 2 -22 -30z m-1374 -43 c0 -35 -3 -62 -7 -59 -10 6 -10 123 0 123
4 0 7 -29 7 -64z m1311 -31 c15 -32 23 -66 23 -95 l-1 -45 -8 47 c-5 26 -22
73 -39 105 -17 31 -31 61 -31 67 1 17 30 -24 56 -79z m-186 40 c0 -8 -4 -15
-10 -15 -5 0 -10 7 -10 15 0 8 5 15 10 15 6 0 10 -7 10 -15z m40 -5 c0 -5 -4
-10 -10 -10 -5 0 -10 5 -10 10 0 6 5 10 10 10 6 0 10 -4 10 -10z m1636 -56
c15 -52 3 -147 -20 -173 -18 -20 -20 -20 -47 -4 -31 18 -37 38 -16 46 6 3 -3
6 -20 6 -28 1 -33 5 -33 26 0 14 4 25 9 25 5 0 19 17 32 38 30 50 61 83 73 79
6 -2 16 -21 22 -43z m-1336 19 c0 -2 -10 -17 -22 -31 -11 -15 -18 -19 -15 -10
3 10 2 20 -4 23 -5 4 -7 10 -5 14 5 8 46 12 46 4z m-521 -42 c9 -6 4 -10 -18
-13 -21 -3 -31 0 -31 9 0 15 28 17 49 4z m-939 -36 c0 -14 -4 -25 -10 -25 -5
0 -10 11 -10 25 0 14 5 25 10 25 6 0 10 -11 10 -25z m-119 -122 c-9 -15 -10
-13 -11 13 0 17 3 34 8 38 11 12 14 -32 3 -51z m919 34 c0 -7 -7 -23 -16 -35
-14 -21 -14 -22 7 -22 17 0 20 -3 12 -11 -9 -9 -21 -8 -50 4 -21 9 -31 16 -22
16 10 1 19 13 23 31 4 21 11 30 26 30 11 0 20 -6 20 -13z m690 -16 c0 -11 5
-23 10 -26 6 -3 10 -13 10 -21 0 -18 -25 -46 -34 -37 -10 10 -7 103 4 103 6 0
10 -9 10 -19z m-157 -41 c-6 -7 -23 23 -23 40 0 8 6 4 13 -10 8 -14 12 -27 10
-30z m-87 3 c-7 -7 -26 7 -26 19 0 6 6 6 15 -2 9 -7 13 -15 11 -17z m-2445 4
c-1 -4 -1 -28 -1 -53 0 -49 -14 -52 -23 -6 -7 34 2 74 15 70 5 -2 9 -7 9 -11z
m1039 -27 c0 -5 -4 -10 -10 -10 -5 0 -10 5 -10 10 0 6 5 10 10 10 6 0 10 -4
10 -10z m-894 -65 c4 -8 12 -15 19 -15 8 0 22 -10 32 -23 10 -12 31 -30 46
-40 19 -13 27 -25 24 -37 -3 -12 3 -21 19 -29 22 -10 33 -31 17 -31 -16 -1
-40 -26 -47 -47 -6 -19 -3 -22 26 -25 25 -2 36 -10 46 -31 17 -35 18 -93 3
-111 -9 -10 -2 -16 29 -29 62 -24 71 -80 29 -183 -7 -16 -13 -49 -14 -74 -3
-74 -45 -122 -86 -99 -19 10 -20 8 -14 -35 9 -57 -4 -76 -51 -76 -39 0 -42 -8
-14 -43 11 -14 20 -32 20 -41 0 -9 6 -16 14 -16 24 0 30 -22 10 -37 -18 -14
-18 -15 9 -34 28 -21 36 -52 15 -65 -8 -5 -6 -11 7 -20 45 -33 19 -248 -37
-304 -15 -16 -28 -32 -28 -36 0 -4 10 -27 22 -51 16 -33 19 -48 12 -61 -6 -9
-9 -35 -8 -57 1 -22 -4 -50 -12 -62 -8 -12 -14 -29 -14 -36 0 -8 -6 -20 -14
-26 -11 -9 -12 -20 -4 -49 11 -41 4 -193 -13 -255 -10 -37 -28 -163 -49 -347
-10 -87 -14 -107 -31 -172 l-10 -37 -45 19 c-55 24 -74 25 -74 5 0 -22 -17
-18 -30 6 -11 20 -12 20 -26 2 -11 -15 -15 -15 -23 -4 -5 8 -11 9 -15 3 -9
-14 -63 14 -77 40 -10 19 -12 19 -21 5 -8 -15 -11 -15 -40 3 -20 12 -36 16
-43 10 -6 -5 -50 -6 -105 -1 -52 4 -99 5 -105 2 -24 -13 -46 -9 -75 15 -44 38
-46 25 -2 -21 32 -33 34 -37 13 -30 -15 4 -21 3 -17 -3 3 -5 18 -13 33 -17 49
-11 70 -32 93 -92 13 -32 36 -68 51 -81 23 -19 26 -26 18 -50 -5 -15 -11 -49
-15 -76 -4 -34 -13 -55 -31 -72 -22 -20 -23 -24 -8 -24 17 0 16 -3 -4 -24
l-23 -25 -49 26 c-41 22 -46 29 -36 41 9 12 9 16 0 19 -7 3 -13 11 -13 19 0 9
-4 12 -10 9 -5 -3 -10 -1 -10 5 0 6 10 8 25 4 25 -6 65 17 65 37 0 4 -26 10
-57 14 -32 3 -69 11 -83 18 -25 11 -34 14 -57 16 -18 2 -15 47 7 111 11 30 19
59 20 64 0 17 -51 -57 -76 -110 -30 -64 -48 -80 -101 -88 -31 -4 -46 -2 -58
10 -21 21 -125 11 -125 -12 0 -9 11 -14 36 -14 21 0 33 -4 29 -10 -4 -6 18
-10 59 -10 37 0 66 4 66 10 0 6 6 10 14 10 18 0 28 -38 15 -62 -5 -10 -7 -18
-3 -18 3 0 2 -6 -4 -12 -5 -7 -13 -33 -17 -58 -4 -25 -12 -54 -18 -65 -24 -49
-35 -52 -207 -59 -91 -3 -180 -9 -199 -12 l-34 -7 7 39 c5 22 8 47 9 57 1 9 4
17 8 17 4 0 5 8 2 19 -3 10 0 22 6 25 7 4 9 25 6 49 -2 23 -2 34 1 24 5 -17 7
-17 24 3 10 12 24 43 31 69 11 42 15 47 35 43 14 -2 24 1 24 7 0 6 -9 11 -21
11 -18 0 -20 4 -14 27 5 23 4 25 -9 14 -13 -11 -16 -11 -16 0 0 8 5 21 10 29
9 13 11 13 20 0 8 -11 9 4 5 49 -4 34 -3 61 2 58 5 -3 8 -22 8 -41 -1 -20 1
-36 5 -36 8 0 30 70 30 95 0 9 11 40 25 67 14 28 23 58 20 68 -3 9 1 23 10 30
8 7 15 23 15 35 0 13 11 58 25 101 14 44 30 95 36 114 23 74 78 180 94 180 17
0 21 16 5 22 -13 4 14 84 59 179 17 36 31 80 31 97 0 17 5 42 12 56 9 20 16
24 35 20 18 -5 23 -2 23 14 0 11 -5 22 -11 24 -8 3 -5 23 10 65 12 33 23 82
25 109 2 27 9 60 15 74 9 20 10 11 6 -47 l-4 -71 29 16 c16 9 31 26 32 37 2
11 18 27 37 36 21 10 30 19 23 23 -19 12 -14 36 8 36 11 0 20 4 20 10 0 5 21
23 47 41 42 29 44 33 26 40 -31 11 -37 27 -19 54 16 24 16 25 -9 25 -14 0 -25
5 -25 11 0 7 -16 -5 -35 -25 -29 -31 -38 -35 -55 -26 -15 8 -20 8 -20 -1 0 -7
-2 -10 -5 -7 -3 3 -1 16 4 29 6 16 10 18 10 8 1 -9 8 -20 17 -23 13 -5 15 -1
10 20 -5 18 -3 24 5 19 12 -8 29 11 29 34 0 10 -3 11 -14 2 -12 -10 -12 -6 -1
26 8 22 10 42 4 49 -10 12 20 76 40 82 9 3 11 -2 8 -14 -15 -50 -19 -97 -8
-90 7 5 9 1 5 -8 -9 -23 9 -19 31 6 12 14 18 35 16 53 -2 34 31 85 56 85 8 0
23 10 32 21 12 15 29 22 57 23 36 0 40 3 36 23 -2 13 1 30 8 38 9 11 8 18 -8
35 -23 25 -19 53 13 78 30 24 35 44 17 65 -13 14 -13 23 -3 59 14 45 69 108
95 108 9 0 16 6 16 14 0 15 27 29 40 21 4 -3 6 13 3 36 -5 35 -2 44 26 73 27
28 30 34 16 40 -30 11 5 106 39 106 6 0 19 14 29 32 13 23 21 28 26 19 5 -8
15 6 27 41 12 33 27 57 41 63 12 5 24 17 26 27 6 22 25 24 33 3z m887 -12 c3
-16 1 -33 -4 -39 -9 -11 5 -66 24 -94 6 -8 0 -5 -13 7 -19 18 -24 33 -25 87
-2 67 8 89 18 39z m1644 -30 c-4 -3 -2 -12 3 -18 8 -9 6 -14 -4 -18 -21 -8
-31 10 -16 28 7 8 15 15 18 15 3 0 2 -3 -1 -7z m-1772 -51 c-6 -7 -35 18 -35
31 0 5 9 2 20 -8 11 -10 18 -20 15 -23z m1065 23 c0 -2 -10 -10 -22 -16 -21
-11 -22 -11 -9 4 13 16 31 23 31 12z m750 -5 c0 -5 -2 -10 -4 -10 -3 0 -8 5
-11 10 -3 6 -1 10 4 10 6 0 11 -4 11 -10z m-1720 -83 c0 -20 0 -20 -15 -1 -19
25 -19 35 0 28 8 -4 15 -16 15 -27z m-1139 -35 c-1 -20 -21 -75 -44 -122 -35
-74 -41 -82 -47 -60 -4 18 0 30 15 43 19 16 19 18 3 27 -10 6 -18 17 -18 23 0
14 40 52 55 52 5 0 14 19 19 43 11 50 22 47 17 -6z m1753 19 c4 -5 2 -20 -3
-33 -10 -23 -12 -21 -16 20 -2 22 9 30 19 13z m574 -22 c2 -13 10 -32 18 -43
17 -24 18 -39 3 -34 -6 2 -19 27 -29 56 -13 36 -15 52 -7 49 7 -2 14 -14 15
-28z m-1148 -30 c0 -5 -4 -9 -10 -9 -5 0 -10 7 -10 16 0 8 5 12 10 9 6 -3 10
-10 10 -16z m551 -50 c13 -27 17 -45 11 -51 -7 -7 -12 1 -17 21 -4 17 -11 29
-16 25 -5 -3 -9 6 -9 20 0 36 6 33 31 -15z m19 15 c0 -8 -4 -12 -10 -9 -5 3
-10 10 -10 16 0 5 5 9 10 9 6 0 10 -7 10 -16z m618 -110 c-10 -10 -28 6 -28
24 0 15 1 15 17 -1 9 -9 14 -19 11 -23z m-355 -5 c19 -21 16 -51 -8 -79 -14
-16 -3 -60 15 -60 5 0 10 -18 10 -39 0 -32 -6 -44 -30 -63 -33 -26 -33 -58 0
-58 29 0 42 -26 38 -72 -3 -24 -8 -51 -12 -60 -6 -14 -3 -18 12 -18 32 0 82
-86 82 -142 0 -25 2 -28 14 -19 24 20 66 9 84 -21 15 -26 15 -30 -7 -80 -12
-29 -25 -59 -28 -67 -4 -9 -2 -12 5 -7 7 4 31 41 53 82 23 41 50 81 62 89 23
16 57 20 57 8 0 -5 -36 -82 -80 -172 -44 -90 -73 -158 -65 -151 29 24 123 164
170 255 26 50 53 97 60 105 6 8 18 30 26 48 16 37 29 42 29 9 0 -12 -9 -28
-21 -35 -12 -8 -18 -19 -15 -28 3 -9 2 -24 -4 -34 -8 -15 -5 -19 24 -24 18 -3
42 -17 54 -31 12 -14 26 -25 31 -25 5 0 14 -13 21 -30 10 -25 10 -34 -2 -53
-13 -19 -13 -24 -2 -35 29 -27 5 -102 -29 -89 -13 5 -15 2 -7 -18 9 -24 1 -37
-30 -47 -11 -4 -8 -10 13 -30 15 -14 27 -30 27 -37 0 -6 7 -11 15 -11 18 0 20
-40 3 -40 -7 -1 -1 -8 15 -16 18 -10 27 -23 27 -40 0 -13 7 -27 14 -30 18 -7
39 -96 34 -139 -2 -18 3 -35 12 -42 13 -11 13 -16 -3 -44 -18 -32 -18 -32 7
-58 30 -32 47 -143 26 -180 -9 -18 -9 -26 3 -39 18 -21 37 -107 37 -167 0 -25
4 -75 10 -112 5 -38 14 -122 20 -187 8 -104 8 -122 -6 -137 -9 -10 -13 -22
-10 -27 3 -6 0 -12 -8 -15 -8 -3 -12 -15 -9 -29 4 -23 3 -23 -73 -24 -43 -1
-79 -5 -81 -11 -2 -5 -17 -8 -33 -5 -43 6 -83 -6 -76 -23 3 -8 2 -14 -2 -13
-4 1 -14 -1 -22 -5 -8 -3 -41 -10 -73 -15 -47 -7 -57 -7 -53 4 3 8 1 14 -4 14
-6 0 -10 8 -10 18 0 11 -9 27 -20 37 -11 10 -20 22 -20 28 0 5 -9 22 -21 39
-17 23 -26 28 -48 24 -14 -3 -41 -7 -58 -8 -18 -1 -33 -3 -33 -5 0 -11 38 -43
51 -43 23 0 28 -8 20 -37 -10 -38 -27 -39 -46 -4 -8 17 -21 31 -27 31 -9 0 -9
-3 0 -12 14 -14 16 -68 2 -68 -5 0 -10 14 -10 30 0 17 -6 39 -12 50 -11 17
-10 22 2 30 12 8 10 9 -9 8 -22 -3 -27 3 -43 57 -21 69 -67 136 -68 99 0 -23
-17 -34 -51 -34 -12 0 -19 -7 -19 -20 0 -11 -8 -23 -17 -26 -10 -3 -44 -19
-76 -35 -38 -19 -66 -28 -79 -23 -13 4 -18 2 -14 -4 3 -6 0 -13 -6 -15 -7 -3
-1 -6 14 -6 15 -1 29 -5 32 -9 3 -5 -15 -48 -38 -96 l-44 -88 -23 41 c-13 23
-30 41 -40 41 -28 0 -40 61 -19 101 7 13 7 19 0 19 -9 0 -70 -119 -75 -145 -1
-5 -5 -34 -9 -63 -6 -34 -16 -58 -28 -66 -12 -9 -15 -16 -9 -20 6 -4 9 -38 7
-84 -3 -64 -2 -71 6 -42 14 49 39 104 51 112 6 3 25 4 44 1 19 -3 39 0 48 7
31 25 45 5 46 -67 1 -37 4 -79 8 -93 6 -20 11 -11 30 55 13 44 27 84 31 89 5
5 23 4 41 -3 27 -9 35 -8 51 5 17 16 18 15 18 -20 0 -43 15 -40 25 6 4 18 14
38 21 46 14 13 18 33 14 61 -2 16 18 31 42 31 16 0 27 -25 42 -101 4 -19 15
-29 38 -36 27 -7 32 -14 30 -33 -2 -23 -1 -23 35 10 21 19 39 38 41 43 6 13
22 7 22 -8 0 -8 3 -15 8 -15 8 0 37 -69 48 -112 3 -16 10 -28 14 -28 4 0 4 15
0 33 -21 89 -33 128 -41 133 -5 3 -9 14 -9 26 0 16 5 19 24 14 18 -4 25 -1 29
14 8 30 27 24 34 -10 3 -16 10 -30 14 -30 9 0 29 -40 35 -70 1 -8 8 -34 15
-58 10 -39 10 -44 -7 -57 -11 -7 -20 -9 -22 -4 -5 12 -42 12 -42 -1 0 -5 -16
-10 -35 -10 -28 0 -35 -4 -35 -19 0 -25 -15 -29 -88 -24 -35 3 -76 0 -93 -6
-25 -9 -33 -7 -50 10 -16 16 -31 19 -77 17 -49 -3 -57 -6 -60 -23 -4 -26 -34
-46 -52 -35 -11 7 -11 11 -1 23 10 13 8 16 -8 22 -18 6 -282 7 -426 3 -27 -1
-81 1 -120 6 -98 10 -150 10 -228 -3 -55 -9 -89 -8 -175 5 -117 17 -122 19
-122 40 0 11 -6 13 -20 9 -14 -4 -20 -2 -20 9 0 8 -6 19 -14 23 -15 9 -38 81
-30 95 3 4 -2 8 -10 8 -19 0 -18 -3 -7 38 9 31 8 33 -11 26 -18 -5 -20 -3 -15
15 5 19 3 20 -10 9 -16 -13 -17 -13 -68 59 l-20 28 -6 -35 c-6 -32 -7 -31 -8
15 -2 38 -4 45 -11 30 -8 -18 -9 -17 -9 7 -1 14 2 34 6 44 6 16 7 16 15 -2 6
-13 7 -5 4 24 -2 24 4 87 15 140 11 53 22 116 25 142 3 25 12 77 20 115 9 39
17 81 19 95 2 14 8 51 14 82 5 32 7 67 4 80 -5 17 -3 20 10 15 21 -8 22 6 2
23 -16 14 -21 75 -6 85 6 3 12 -12 14 -32 l4 -38 1 43 c2 31 6 42 18 42 11 0
14 6 9 21 -4 11 -2 42 5 68 9 39 20 54 61 87 33 26 47 44 43 54 -12 28 -23 84
-18 90 3 3 9 5 13 5 4 0 15 7 24 17 9 9 22 18 29 20 10 4 10 8 2 19 -18 22 -1
51 56 101 l52 45 -27 7 c-17 4 -25 12 -22 21 3 7 -1 16 -10 19 -12 5 -14 16
-9 49 3 23 7 53 9 67 2 14 9 35 15 47 7 12 12 38 12 58 0 37 32 78 71 90 10 3
16 11 14 18 -3 7 22 27 55 46 33 19 60 39 60 45 0 5 -10 20 -22 33 -34 36 -16
36 24 0 22 -20 47 -33 68 -34 31 -2 32 -1 14 11 -18 14 -18 15 5 40 26 28 46
33 57 14 4 -7 3 -8 -4 -4 -7 4 -12 5 -12 2 0 -2 -2 -11 -5 -18 -8 -19 66 -41
108 -33 65 13 83 24 82 53 0 26 1 27 60 27 37 1 70 7 85 16 29 19 168 64 175
57 3 -2 1 -38 -5 -79 -5 -41 -9 -99 -9 -129 l1 -55 22 75 c13 41 38 127 56
190 17 63 36 118 41 121 6 3 12 21 15 40 5 44 22 99 23 77 1 -22 17 -32 27
-17 4 8 3 9 -4 5 -23 -14 -12 14 17 43 16 16 37 53 46 81 l17 51 24 -28 24
-28 -6 32 c-7 34 0 63 13 63 5 0 17 -9 26 -21z m-956 -21 c-3 -8 -6 -5 -6 6
-1 11 2 17 5 13 3 -3 4 -12 1 -19z m1326 -58 c-7 -8 -22 24 -16 34 4 5 10 1
13 -10 4 -10 6 -21 3 -24z m-2553 -10 c0 -5 -5 -10 -11 -10 -5 0 -7 5 -4 10 3
6 8 10 11 10 2 0 4 -4 4 -10z m26 -67 c-8 -15 -15 -22 -16 -15 0 14 22 53 28
47 2 -2 -3 -16 -12 -32z m-36 1 c0 -8 -4 -12 -10 -9 -5 3 -10 10 -10 16 0 5 5
9 10 9 6 0 10 -7 10 -16z m-39 -97 c-8 -8 -11 -7 -11 4 0 20 13 34 18 19 3 -7
-1 -17 -7 -23z m1909 15 c0 -13 -12 -22 -22 -16 -10 6 -1 24 13 24 5 0 9 -4 9
-8z m-1894 -39 c-8 -15 -15 -25 -16 -21 0 12 23 58 27 54 3 -2 -2 -17 -11 -33z
m-36 -20 c0 -13 -3 -13 -15 -3 -8 7 -12 16 -9 21 8 13 24 1 24 -18z m1906 -52
c-10 -16 -36 -13 -36 3 0 17 21 27 34 16 4 -5 5 -13 2 -19z m-1926 -28 c-1
-29 -37 -70 -50 -57 -8 8 -3 20 17 42 32 37 33 38 33 15z m1600 -71 c19 -8 62
-17 95 -21 l60 -8 -68 -2 c-107 -2 -180 23 -151 52 4 4 12 3 18 -1 6 -4 27
-13 46 -20z m1565 -62 c5 -17 4 -22 -3 -15 -5 6 -13 21 -17 35 -5 17 -4 22 3
15 5 -5 13 -21 17 -35z m-1828 -26 c-10 -10 -48 27 -41 38 4 6 16 1 27 -11 12
-11 18 -24 14 -27z m-87 -14 c0 -5 -4 -10 -10 -10 -5 0 -10 5 -10 10 0 6 5 10
10 10 6 0 10 -4 10 -10z m1877 -47 l0 -45 -18 33 c-23 43 -23 54 -1 56 16 1
19 -6 19 -44z m-3240 -55 c-3 -8 -6 -5 -6 6 -1 11 2 17 5 13 3 -3 4 -12 1 -19z
m5462 -80 c38 -51 39 -65 6 -65 -14 0 -25 3 -25 8 0 5 5 9 11 9 6 0 2 8 -9 18
-11 9 -28 29 -37 45 -17 26 -17 27 3 27 12 0 32 -17 51 -42z m81 0 c0 -13 -23
-5 -28 10 -2 7 2 10 12 6 9 -3 16 -11 16 -16z m-5673 -130 c-3 -8 -6 -5 -6 6
-1 11 2 17 5 13 3 -3 4 -12 1 -19z m-123 -313 c-4 -8 -8 -15 -10 -15 -2 0 -4
7 -4 15 0 8 4 15 10 15 5 0 7 -7 4 -15z m1246 -71 c0 -13 -4 -24 -10 -24 -5 0
-10 14 -10 31 0 17 4 28 10 24 6 -3 10 -17 10 -31z m2210 16 c0 -5 -2 -10 -4
-10 -3 0 -8 5 -11 10 -3 6 -1 10 4 10 6 0 11 -4 11 -10z m-3501 -49 c-6 -17
-17 -35 -24 -41 -9 -7 -7 4 6 29 23 48 32 54 18 12z m-48 -78 c0 -5 2 -16 4
-25 2 -10 0 -18 -5 -18 -4 0 -10 11 -12 25 -3 14 -1 25 3 25 5 0 9 -3 10 -7z
m-114 -195 c-3 -8 -6 -5 -6 6 -1 11 2 17 5 13 3 -3 4 -12 1 -19z m3 -91 c-10
-9 -11 -9 -5 2 4 8 2 17 -5 21 -8 5 -10 15 -5 26 6 17 9 15 17 -9 8 -21 7 -32
-2 -40z m1374 24 c-4 -17 -9 -30 -11 -27 -3 2 -2 19 2 36 9 41 17 33 9 -9z
m-1453 -318 c-12 -20 -14 -14 -5 12 4 9 9 14 11 11 3 -2 0 -13 -6 -23z m-30
-96 c-10 -9 -11 -8 -5 6 3 10 9 15 12 12 3 -3 0 -11 -7 -18z m-11 -38 c0 -11
-4 -18 -10 -14 -5 3 -7 12 -3 20 7 21 13 19 13 -6z m-53 -121 c-3 -8 -6 -5 -6
6 -1 11 2 17 5 13 3 -3 4 -12 1 -19z m3930 -80 c-3 -8 -6 -5 -6 6 -1 11 2 17
5 13 3 -3 4 -12 1 -19z m-1106 -54 c-25 -32 -28 -14 -4 23 9 14 19 21 21 14 2
-6 -6 -23 -17 -37z m1254 5 c-4 -13 -2 -19 9 -19 25 0 27 -15 9 -69 -12 -38
-21 -51 -35 -51 -11 0 -22 9 -25 19 -3 11 -11 17 -19 14 -10 -4 -11 1 -5 24
14 45 31 86 43 100 14 18 30 5 23 -18z m-824 -29 c24 -14 25 -50 1 -50 -10 0
-23 -5 -30 -12 -9 -9 -12 -4 -12 23 0 49 8 56 41 39z m1918 -38 c1 -7 -3 -10
-9 -7 -5 3 -10 18 -9 33 0 24 1 25 9 7 5 -11 9 -26 9 -33z m-4315 2 c9 -20 15
-39 12 -42 -3 -2 -10 7 -17 21 -7 15 -17 23 -25 20 -8 -3 -14 0 -14 7 0 6 5 8
12 4 8 -5 9 -2 5 9 -12 33 10 17 27 -19z m3076 16 c0 -5 -2 -10 -4 -10 -3 0
-8 5 -11 10 -3 6 -1 10 4 10 6 0 11 -4 11 -10z m-226 -26 c26 -10 18 -31 -13
-37 -32 -7 -101 9 -101 23 0 8 22 13 82 18 9 1 23 -1 32 -4z m-129 -24 c-8
-13 -53 -18 -64 -7 -19 19 -12 23 29 19 22 -2 38 -8 35 -12z m614 -49 l-2 -26
-4 25 c-3 14 -9 29 -14 35 -5 5 -9 14 -9 20 0 5 7 1 15 -9 8 -11 14 -31 14
-45z m132 -4 c-1 -4 -1 -14 -1 -22 0 -8 -4 -15 -10 -15 -5 0 -10 12 -10 26 0
14 5 24 11 22 6 -2 10 -7 10 -11z m-2880 -34 c-4 -28 -6 -32 -9 -15 -3 22 3
52 11 52 1 0 1 -17 -2 -37z m3985 -54 c13 -12 24 -28 24 -34 0 -18 -42 -33
-67 -24 -24 9 -30 25 -13 31 6 2 12 21 14 43 5 62 9 73 13 39 2 -17 15 -42 29
-55z m154 39 c0 -18 -2 -20 -9 -8 -6 8 -7 18 -5 22 9 14 14 9 14 -14z m-2960
-14 c0 -14 -48 -39 -57 -30 -7 6 41 53 50 49 4 -2 7 -11 7 -19z m770 -9 c9
-11 33 -15 86 -15 41 0 73 -3 73 -7 -5 -28 2 -34 31 -28 19 4 37 2 46 -6 11
-9 21 -9 39 -1 22 10 25 9 31 -14 7 -26 -2 -143 -11 -152 -2 -3 -11 1 -20 8
-12 10 -15 10 -15 -2 0 -7 -9 -21 -19 -30 -25 -22 -224 -36 -246 -18 -9 7 -15
8 -15 2 0 -5 -13 -12 -30 -14 -16 -3 -30 -1 -30 3 0 4 12 9 27 11 25 3 28 8
40 73 7 39 15 85 19 103 5 26 4 31 -8 27 -8 -3 -15 0 -15 7 0 7 -4 25 -8 41
-8 30 5 36 25 12z m1086 6 c-4 -5 3 -7 15 -4 12 4 25 0 29 -8 12 -18 3 -29
-23 -30 -20 -1 -20 -2 3 -8 14 -4 25 -12 25 -18 0 -32 60 -45 133 -28 26 5 36
2 57 -21 17 -18 24 -35 21 -49 -3 -11 3 -30 13 -42 16 -19 26 -22 75 -18 39 3
56 0 57 -8 2 -21 -3 -82 -7 -86 -2 -2 -27 -4 -56 -6 -29 -1 -100 -7 -156 -14
-75 -9 -107 -9 -117 -1 -7 6 -25 8 -40 4 -17 -4 -30 -2 -35 6 -6 9 -12 9 -29
1 -27 -15 -27 -31 -1 -31 11 0 20 -4 20 -10 0 -14 -47 -13 -52 1 -3 9 -10 9
-23 2 -11 -6 -39 -13 -63 -17 -24 -3 -48 -8 -53 -12 -11 -6 -49 23 -49 37 0 5
11 4 25 -1 20 -8 23 -6 18 6 -4 12 -1 15 13 12 10 -2 18 -11 16 -19 -1 -9 5
-16 13 -16 20 0 19 20 -2 41 -48 46 -88 76 -104 76 -49 0 -65 36 -34 76 14 17
14 17 9 1 -5 -13 -2 -18 7 -17 26 4 39 0 57 -17 23 -23 129 -66 146 -60 8 3
15 33 20 84 3 44 12 99 20 124 13 43 13 43 21 17 12 -46 27 -33 19 17 -4 32
-3 45 5 45 7 0 10 -4 7 -9z m-1801 -31 c4 -6 -5 -10 -19 -10 -14 0 -26 5 -26
10 0 6 9 10 19 10 11 0 23 -4 26 -10z m1649 -5 c3 -8 1 -25 -4 -37 -9 -24 -12
-20 -14 25 -2 29 8 36 18 12z m1247 -5 c17 0 18 -3 7 -20 -15 -24 -43 -26 -52
-4 -10 26 -7 36 10 30 9 -3 24 -6 35 -6z m-5101 -61 c0 -11 13 -22 35 -30 19
-7 35 -16 35 -20 0 -4 16 -10 36 -13 19 -4 50 -16 67 -27 18 -10 48 -19 68
-19 39 0 57 21 62 75 5 45 15 59 33 44 8 -6 14 -17 14 -24 0 -7 7 -18 15 -25
14 -11 16 -73 2 -86 -10 -11 -86 -12 -156 -2 -39 5 -67 5 -75 -1 -18 -15 -186
-26 -186 -12 0 6 -16 11 -35 11 -50 0 -44 30 21 103 19 20 34 44 34 53 0 14 3
14 15 4 8 -7 15 -21 15 -31z m3575 -7 c3 -16 2 -39 -3 -53 -5 -13 -7 -30 -5
-37 3 -7 2 -24 -1 -37 -8 -31 -35 -32 -67 -4 -21 19 -33 21 -102 17 -43 -3
-79 -2 -81 1 -9 15 16 52 41 62 16 7 23 13 16 16 -16 6 -17 53 -2 53 6 0 8 -7
5 -16 -3 -8 -2 -13 2 -10 5 3 18 -15 30 -39 30 -62 49 -58 44 8 -1 10 2 26 8
35 8 14 10 11 10 -13 1 -30 1 -30 11 -6 15 39 29 51 59 51 23 0 30 -5 35 -28z
m-2633 -44 c-9 -9 -12 -7 -12 12 0 19 3 21 12 12 9 -9 9 -15 0 -24z m3663 12
c3 -5 2 -10 -4 -10 -5 0 -13 5 -16 10 -3 6 -2 10 4 10 5 0 13 -4 16 -10z
m-3536 -90 l22 -40 -53 0 c-48 0 -54 3 -65 27 -11 23 -10 29 7 45 11 10 20 26
20 35 0 24 40 -15 69 -67z m8 58 c-3 -8 -6 -5 -6 6 -1 11 2 17 5 13 3 -3 4
-12 1 -19z m3649 -3 c18 -13 18 -14 -4 -8 -12 3 -25 9 -28 14 -8 14 10 11 32
-6z m-14 -17 c53 -11 59 -15 83 -59 30 -56 32 -85 5 -99 -11 -6 -18 -15 -15
-21 4 -5 -5 -9 -19 -9 -14 0 -28 5 -31 10 -3 6 1 10 9 10 26 0 18 17 -9 22
-39 8 -74 -2 -68 -18 3 -8 0 -14 -7 -14 -6 0 -14 9 -17 20 -4 16 -11 19 -26
14 -12 -4 -34 -8 -49 -9 -28 -2 -53 -15 -29 -15 7 0 9 -5 6 -10 -10 -16 -53
22 -50 45 6 53 17 102 27 122 17 34 71 37 190 11z m-3772 -10 c0 -16 -3 -19
-11 -11 -6 6 -8 16 -5 22 11 17 16 13 16 -11z m-2135 -18 c4 -6 -9 -10 -32 -9
-38 1 -38 1 -8 9 17 4 31 8 32 9 1 0 5 -3 8 -9z m2373 -29 c3 -8 -1 -12 -9 -9
-7 2 -15 10 -17 17 -3 8 1 12 9 9 7 -2 15 -10 17 -17z m-1126 -44 c-24 -7 -36
-7 -44 1 -9 9 -1 12 33 11 l44 -1 -33 -11z m-655 -13 c-3 -3 -12 -4 -19 -1 -8
3 -5 6 6 6 11 1 17 -2 13 -5z m2010 -36 c6 -5 28 -6 49 -2 25 4 35 3 30 -4 -6
-10 -38 -17 -124 -27 -44 -5 -102 19 -85 36 20 18 105 17 130 -3z m2308 13 c3
-5 1 -12 -5 -16 -5 -3 -10 1 -10 9 0 18 6 21 15 7z m-2150 -21 c3 -5 2 -10 -4
-10 -5 0 -13 5 -16 10 -3 6 -2 10 4 10 5 0 13 -4 16 -10z m580 0 c3 -5 1 -10
-4 -10 -6 0 -11 5 -11 10 0 6 2 10 4 10 3 0 8 -4 11 -10z m1266 -19 c35 -6 78
-13 94 -15 17 -2 31 -5 33 -5 1 -1 -2 -10 -8 -21 -10 -19 -41 -29 -39 -12 3
18 -2 32 -12 32 -6 0 -9 -9 -6 -20 3 -11 2 -20 -1 -21 -27 -4 -155 -3 -161 1
-15 10 -20 41 -11 65 8 21 13 24 28 16 10 -5 47 -15 83 -20z m-1771 9 c0 -5
-13 -10 -30 -10 -16 0 -30 5 -30 10 0 6 14 10 30 10 17 0 30 -4 30 -10z m1500
-11 c0 -5 -9 -9 -20 -9 -17 0 -19 2 -8 14 13 14 28 12 28 -5z m49 0 c17 -6 31
-15 31 -20 0 -13 -13 -11 -36 6 -12 8 -24 11 -28 8 -3 -3 -6 -1 -6 5 0 15 0
15 39 1z m1201 -27 c-7 -3 -19 3 -28 13 -16 15 -15 16 12 4 15 -7 23 -15 16
-17z m-6380 14 c0 -3 -4 -8 -10 -11 -5 -3 -10 -1 -10 4 0 6 5 11 10 11 6 0 10
-2 10 -4z m50 -6 c0 -5 -9 -10 -21 -10 -11 0 -17 5 -14 10 3 6 13 10 21 10 8
0 14 -4 14 -10z m3160 0 c0 -5 -2 -10 -4 -10 -3 0 -8 5 -11 10 -3 6 -1 10 4
10 6 0 11 -4 11 -10z m2520 -11 c-14 -4 -43 -7 -64 -8 -52 -1 -35 16 19 21 52
4 79 -4 45 -13z m-6646 -4 c-4 -8 -8 -15 -10 -15 -2 0 -4 7 -4 15 0 8 4 15 10
15 5 0 7 -7 4 -15z m171 5 c3 -5 1 -10 -4 -10 -6 0 -11 5 -11 10 0 6 2 10 4
10 3 0 8 -4 11 -10z m3405 -21 c0 -10 -4 -19 -9 -19 -12 0 -23 29 -15 41 8 14
24 0 24 -22z m1470 11 c0 -5 -4 -10 -10 -10 -5 0 -10 5 -10 10 0 6 5 10 10 10
6 0 10 -4 10 -10z m954 4 c8 -3 12 -12 10 -19 -4 -10 7 -12 43 -11 71 2 64
-18 -9 -25 -74 -8 -165 -38 -147 -49 6 -4 9 -12 5 -18 -4 -6 2 -10 14 -9 12 1
19 6 16 14 -6 16 79 19 89 3 3 -5 -3 -10 -14 -10 -12 0 -21 -4 -21 -10 0 -5 8
-10 17 -10 9 0 13 -3 9 -7 -7 -7 -115 -25 -159 -25 -26 -1 -27 -2 -11 -19 10
-11 14 -19 10 -19 -4 0 0 -10 8 -22 21 -30 20 -38 -5 -38 -14 0 -19 5 -16 15
4 8 2 17 -3 20 -5 3 -7 12 -3 20 3 10 -1 15 -12 15 -9 0 -13 5 -10 11 15 23
-59 61 -122 61 l-42 0 15 24 c9 13 13 24 8 24 -4 0 -3 5 4 12 8 8 46 13 103
13 74 1 93 4 104 18 8 11 26 17 55 17 37 0 41 2 30 15 -10 12 -10 15 3 15 8 0
22 -3 31 -6z m-1285 -20 c3 -3 -4 -11 -15 -19 -12 -9 -44 -14 -90 -15 -39 0
-87 -2 -105 -5 -19 -3 -27 -3 -19 1 8 3 24 9 35 13 70 28 115 38 150 33 22 -3
42 -6 44 -8z m2781 8 c0 -12 -62 -36 -97 -38 -18 0 -33 3 -33 8 0 4 13 8 29 8
16 0 34 7 41 15 13 15 60 21 60 7z m341 -131 c10 -31 19 -61 19 -67 0 -14
-106 -24 -130 -13 -8 4 -39 10 -69 13 -57 6 -81 16 -40 16 22 1 23 2 7 14 -16
12 -14 14 21 24 21 7 49 13 62 13 25 2 1 7 -115 29 -91 17 -103 30 -26 28 39
0 66 4 68 11 2 7 10 8 20 2 9 -5 31 -6 49 -4 38 6 51 38 19 48 -18 6 -16 8 14
14 33 6 36 4 58 -34 13 -22 32 -64 43 -94z m-2673 111 c6 -18 -15 -14 -22 4
-4 10 -1 14 6 12 6 -2 14 -10 16 -16z m662 8 c0 -5 -4 -10 -10 -10 -5 0 -10 5
-10 10 0 6 5 10 10 10 6 0 10 -4 10 -10z m1276 -5 c-22 -8 -44 -11 -50 -7 -6
4 3 10 19 13 54 12 71 8 31 -6z m-5681 -5 c3 -5 75 -10 163 -11 219 -2 263 -5
296 -18 16 -6 43 -11 60 -10 17 1 112 -4 211 -10 99 -6 423 -13 721 -15 501
-3 543 -5 572 -21 33 -20 39 -58 12 -75 -11 -7 -3 -10 28 -10 51 0 54 -13 9
-35 -25 -11 -45 -14 -73 -8 -21 4 -91 5 -154 2 -209 -11 -465 -10 -478 3 -8 8
-15 8 -26 -1 -12 -10 -74 -12 -255 -9 l-240 3 3 -43 c2 -42 -7 -62 -19 -42 -3
5 -15 10 -26 10 -26 0 -24 18 3 22 12 2 23 9 26 16 6 20 -17 14 -46 -13 -26
-24 -36 -27 -114 -29 -20 -1 -40 -4 -44 -8 -11 -12 -34 -10 -34 3 0 6 9 13 19
16 10 3 21 15 24 26 2 12 8 30 12 39 5 12 -1 21 -21 31 l-28 14 39 19 c33 15
36 19 20 24 -11 3 -34 13 -51 22 -29 16 -35 16 -105 -2 -114 -29 -226 -66
-251 -84 -12 -9 -31 -16 -41 -16 -16 0 -17 -3 -8 -14 9 -11 3 -18 -35 -36 -38
-19 -48 -20 -55 -9 -12 19 -11 29 1 29 6 0 10 -5 10 -12 0 -6 3 -8 6 -5 4 4
-1 18 -11 33 -14 22 -15 28 -4 36 9 6 2 7 -21 3 -71 -14 -184 -15 -560 -7
-212 4 -387 6 -389 5 -3 -2 0 -8 5 -13 13 -12 113 -17 527 -26 196 -4 357 -10
357 -14 0 -4 -9 -19 -21 -34 l-21 -27 -177 7 c-97 4 -207 7 -246 8 -38 1 -137
6 -220 10 -146 8 -151 8 -169 -13 -11 -11 -29 -21 -42 -21 -18 0 -21 4 -16 23
3 12 10 25 16 29 7 5 4 8 -6 8 -10 0 -18 5 -18 11 0 6 7 9 15 5 8 -3 15 -1 15
4 0 6 -9 10 -19 10 -11 0 -22 4 -25 9 -4 5 3 7 14 4 17 -4 19 -2 13 13 -4 11
-16 27 -28 37 -20 18 -20 18 10 13 56 -10 170 -7 270 7 98 14 99 14 40 16 -88
3 -152 15 -137 24 17 11 -33 51 -53 43 -10 -3 -15 1 -15 14 0 18 -9 20 -117
23 -65 2 17 2 182 0 165 -1 326 -3 358 -3 31 0 57 -4 57 -9 0 -11 -91 -21
-134 -14 -25 4 -36 2 -36 -7 0 -8 -9 -10 -27 -6 -24 5 -25 5 -9 -5 22 -13 276
-20 276 -7 0 4 -6 8 -13 8 -8 0 -22 9 -31 19 -25 27 -9 33 98 39 50 2 93 6 95
8 9 8 80 3 86 -6z m6194 -6 c3 -2 0 -9 -6 -15 -16 -16 -47 -7 -51 15 -3 16 0
18 24 12 16 -4 31 -10 33 -12z m-789 -4 c19 -6 9 -8 -37 -9 -36 -1 -63 3 -63
9 0 12 64 12 100 0z m427 4 c-3 -3 -12 -4 -19 -1 -8 3 -5 6 6 6 11 1 17 -2 13
-5z m63 2 c0 -11 -19 -15 -25 -6 -3 5 1 10 9 10 9 0 16 -2 16 -4z m-5343 -12
c-3 -3 -12 -4 -19 -1 -8 3 -5 6 6 6 11 1 17 -2 13 -5z m5718 -4 c3 -6 -1 -7
-9 -4 -18 7 -21 14 -7 14 6 0 13 -4 16 -10z m-7390 -10 c-3 -5 -11 -10 -16
-10 -6 0 -7 5 -4 10 3 6 11 10 16 10 6 0 7 -4 4 -10z m4605 -4 c0 -11 -19 -15
-25 -6 -3 5 1 10 9 10 9 0 16 -2 16 -4z m-1330 -46 c0 -5 -13 -10 -30 -10 -16
0 -30 5 -30 10 0 6 14 10 30 10 17 0 30 -4 30 -10z m3350 -15 c16 -8 46 -15
67 -15 21 0 45 -5 53 -10 10 -7 -32 -10 -130 -11 -80 -1 -173 -3 -207 -5 -62
-3 -84 8 -41 20 21 5 21 6 5 18 -28 21 213 23 253 3z m463 -2 c-7 -2 -21 -2
-30 0 -10 3 -4 5 12 5 17 0 24 -2 18 -5z m2181 1 c26 -10 18 -24 -14 -24 -22
0 -28 4 -24 15 7 16 14 18 38 9z m46 -24 c0 -5 -2 -10 -4 -10 -3 0 -8 5 -11
10 -3 6 -1 10 4 10 6 0 11 -4 11 -10z m-9180 -10 c0 -6 -6 -13 -14 -16 -8 -3
-12 -13 -8 -26 3 -14 1 -19 -6 -14 -15 9 -15 39 0 54 15 15 28 16 28 2z m7125
0 c3 -5 1 -10 -4 -10 -6 0 -11 5 -11 10 0 6 2 10 4 10 3 0 8 -4 11 -10z
m-3805 -21 c0 -5 -4 -9 -10 -9 -5 0 -10 7 -10 16 0 8 5 12 10 9 6 -3 10 -10
10 -16z m3774 2 c36 -14 0 -21 -70 -13 l-69 7 50 6 c71 8 68 8 89 0z m2084
-19 c5 -16 -48 -15 -70 2 -10 7 -15 15 -13 18 10 9 78 -7 83 -20z m-9258 8 c0
-5 -2 -10 -4 -10 -3 0 -8 5 -11 10 -3 6 -1 10 4 10 6 0 11 -4 11 -10z m3560
-6 c0 -2 -7 -4 -15 -4 -8 0 -15 4 -15 10 0 5 7 7 15 4 8 -4 15 -8 15 -10z
m1855 6 c3 -5 1 -10 -4 -10 -6 0 -11 5 -11 10 0 6 2 10 4 10 3 0 8 -4 11 -10z
m-1782 -7 c-13 -2 -33 -2 -45 0 -13 2 -3 4 22 4 25 0 35 -2 23 -4z m1443 -5
c5 -8 2 -9 -9 -5 -10 4 -17 1 -17 -5 0 -6 -3 -9 -6 -5 -7 7 4 27 16 27 5 0 12
-5 16 -12z m1891 6 c-3 -3 -12 -4 -19 -1 -8 3 -5 6 6 6 11 1 17 -2 13 -5z
m-6996 -27 c-1 -12 -15 -9 -19 4 -3 6 1 10 8 8 6 -3 11 -8 11 -12z m144 3 c3
-5 -1 -10 -10 -10 -9 0 -13 5 -10 10 3 6 8 10 10 10 2 0 7 -4 10 -10z m39 -5
c-4 -8 -10 -15 -15 -15 -4 0 -6 7 -3 15 4 8 10 15 15 15 4 0 6 -7 3 -15z
m1509 5 c7 0 4 -5 -6 -11 -18 -11 -37 -5 -37 13 0 5 7 7 16 4 9 -3 21 -6 27
-6z m1957 -10 c0 -5 -5 -10 -11 -10 -5 0 -7 5 -4 10 3 6 8 10 11 10 2 0 4 -4
4 -10z m1763 -20 c3 -11 2 -20 -3 -20 -4 0 -10 11 -12 25 -6 29 7 25 15 -5z
m-1810 13 c-7 -2 -19 -2 -25 0 -7 3 -2 5 12 5 14 0 19 -2 13 -5z m117 -3 c13
-8 13 -10 -2 -10 -9 0 -20 5 -23 10 -8 13 5 13 25 0z m2920 -11 c0 -12 -57
-12 -65 0 -6 11 22 19 48 13 9 -2 17 -8 17 -13z m65 11 c19 -8 19 -9 -2 -9
-12 -1 -25 4 -28 9 -7 12 2 12 30 0z m-4975 -21 c0 -5 -4 -9 -10 -9 -5 0 -10
7 -10 16 0 8 5 12 10 9 6 -3 10 -10 10 -16z m-1555 1 c3 -5 1 -10 -4 -10 -6 0
-11 5 -11 10 0 6 2 10 4 10 3 0 8 -4 11 -10z m1480 -11 c-6 -19 -4 -21 19 -15
24 6 25 5 14 -19 -6 -14 -19 -25 -28 -25 -14 0 -17 7 -15 33 4 45 4 47 11 47
3 0 2 -10 -1 -21z m1427 10 c2 -6 18 -12 35 -13 17 -1 35 -4 38 -8 4 -4 15 -2
25 4 12 8 26 8 49 0 26 -9 37 -9 56 4 14 9 26 11 29 5 3 -5 0 -11 -6 -14 -7
-2 21 -4 62 -4 54 0 65 2 40 7 -35 6 -35 6 13 11 26 2 55 1 65 -2 9 -4 21 -4
26 -1 16 9 69 10 90 2 18 -8 17 -9 -8 -9 -21 -1 -27 -4 -19 -12 11 -11 272
-15 316 -4 15 4 27 3 27 -2 0 -22 -445 -56 -459 -36 -3 6 -16 13 -28 17 -17 6
-23 3 -23 -8 0 -14 -36 -16 -304 -16 -256 1 -306 3 -316 15 -16 19 -44 19 -60
0 -7 -8 -19 -15 -27 -15 -13 0 -13 2 -2 16 12 15 9 16 -31 9 -25 -4 -46 -11
-48 -16 -2 -5 -8 -9 -13 -9 -6 0 -7 5 -4 10 9 14 -8 12 -30 -4 -15 -11 -22
-11 -44 0 -16 8 -27 10 -29 4 -5 -14 -39 -12 -46 3 -5 10 -7 10 -12 0 -3 -7
-15 -12 -27 -12 -18 1 -19 2 -4 6 11 3 16 11 13 19 -3 8 1 17 9 20 8 4 12 11
8 17 -7 11 57 5 91 -9 14 -5 17 -4 12 4 -10 17 10 15 28 -3 8 -8 18 -15 21
-15 4 0 5 7 1 15 -3 9 0 15 9 15 8 0 15 -5 15 -10 0 -6 20 -9 45 -8 25 0 45 5
45 10 0 5 26 9 58 9 31 0 102 3 157 8 55 4 112 8 127 9 14 1 28 -3 30 -9z
m582 -4 c3 -8 1 -15 -4 -15 -6 0 -10 7 -10 15 0 8 2 15 4 15 2 0 6 -7 10 -15z
m1126 -5 c0 -5 -4 -10 -10 -10 -5 0 -10 5 -10 10 0 6 5 10 10 10 6 0 10 -4 10
-10z m-4826 -21 c-6 -11 -24 -2 -24 11 0 5 7 7 15 4 8 -4 12 -10 9 -15z m74
-14 c9 3 13 3 9 -1 -10 -10 12 -34 27 -28 16 6 41 -22 27 -30 -5 -4 -12 -2
-16 4 -3 5 -15 10 -26 10 -10 0 -19 7 -19 15 0 9 -6 15 -14 13 -16 -3 -17 -1
-15 35 l2 22 4 -23 c3 -17 9 -22 21 -17z m62 25 c0 -5 -7 -10 -15 -10 -8 0
-15 5 -15 10 0 6 7 10 15 10 8 0 15 -4 15 -10z m1893 3 c4 -3 2 -12 -4 -20 -7
-8 -8 -13 -1 -13 5 0 12 -9 15 -20 4 -15 0 -20 -14 -20 -16 0 -19 7 -17 40 1
38 7 48 21 33z m326 -8 c6 -3 9 -10 6 -15 -3 -5 9 -16 27 -24 l33 -14 -44 -1
c-39 -1 -42 -3 -30 -18 10 -11 10 -14 2 -9 -8 4 -13 1 -13 -9 0 -8 11 -20 25
-25 14 -5 25 -14 25 -20 0 -13 -27 -13 -35 0 -3 6 -11 10 -16 10 -6 0 -3 -7 6
-16 15 -15 14 -18 -6 -32 -18 -12 -23 -12 -30 -1 -4 7 -12 10 -16 5 -4 -5 -2
-11 5 -13 17 -6 15 -23 -3 -23 -8 0 -15 6 -16 13 0 6 -4 2 -10 -11 -5 -13 -13
-20 -19 -17 -13 8 -13 35 0 35 6 0 5 6 -2 14 -7 7 -19 11 -25 9 -7 -3 -13 0
-13 7 0 6 -4 8 -10 5 -6 -3 -10 5 -10 19 0 26 -15 43 -24 27 -9 -14 -45 -1
-48 18 -2 9 6 24 17 34 19 16 19 18 3 27 -10 6 -18 17 -18 25 0 12 21 14 114
11 63 -2 119 -7 125 -11z m-2159 1 c0 -3 -4 -8 -10 -11 -5 -3 -10 -1 -10 4 0
6 5 11 10 11 6 0 10 -2 10 -4z m8076 -9 c4 -3 -10 -9 -30 -12 -21 -4 -36 -13
-36 -21 0 -19 -16 -18 -24 1 -3 8 -12 15 -21 15 -13 0 -14 2 -3 14 13 14 101
16 114 3z m-8250 -24 c-10 -10 -19 5 -10 18 6 11 8 11 12 0 2 -7 1 -15 -2 -18z
m207 10 c-5 -2 -8 -15 -5 -28 3 -20 0 -25 -16 -25 -11 0 -19 6 -18 13 4 23 30
56 40 50 7 -5 6 -8 -1 -10z m2204 11 c-3 -3 -12 -4 -19 -1 -8 3 -5 6 6 6 11 1
17 -2 13 -5z m4893 2 c0 -3 -4 -8 -10 -11 -5 -3 -10 -1 -10 4 0 6 5 11 10 11
6 0 10 -2 10 -4z m1046 -14 c-10 -2 -22 0 -28 6 -6 6 0 7 19 4 21 -5 23 -7 9
-10z m-3564 -1 l28 -6 -25 -12 c-20 -9 -28 -8 -38 1 -7 7 -19 15 -27 19 -20 7
27 6 62 -2z m1973 -21 c6 -3 41 -8 80 -9 38 -1 75 -7 82 -13 7 -6 13 -7 13 -4
0 4 10 1 22 -5 l22 -12 -22 -8 c-24 -9 -30 -27 -9 -26 6 0 32 -1 57 -3 l45 -3
-50 -6 c-27 -4 -54 -3 -59 1 -5 4 -15 3 -21 -2 -7 -6 -24 -6 -41 -1 -16 4 -40
4 -53 0 -12 -5 -26 -7 -31 -4 -4 2 -76 7 -160 10 -84 3 -156 7 -160 10 -4 3
-30 2 -56 -2 l-49 -7 35 -10 35 -9 -55 -9 c-30 -4 -66 -5 -80 -2 -14 3 -53 6
-87 5 -37 -1 -63 3 -63 9 0 5 -5 10 -11 10 -5 0 -8 -4 -4 -10 3 -5 -17 -2 -44
6 -27 8 -62 13 -78 12 -15 -1 -48 0 -73 1 -42 3 -43 4 -15 11 49 13 160 11
173 -2 9 -9 12 -9 12 -1 0 8 12 10 34 6 19 -3 64 -2 99 1 51 6 64 11 63 24 -1
22 103 51 164 45 25 -2 59 0 75 6 31 10 193 3 210 -9z m1722 -31 c-1 -20 -17
-27 -17 -8 0 5 -4 8 -9 5 -5 -3 -15 2 -22 12 -13 16 -13 16 5 2 18 -14 19 -13
14 1 -5 13 -2 16 12 12 11 -3 18 -13 17 -24z m-8129 -50 c27 -50 27 -53 2 -46
-14 4 -25 -3 -37 -23 -10 -17 -22 -26 -30 -23 -10 4 -11 9 -4 16 14 14 14 30
0 22 -5 -4 -22 -4 -36 -1 -21 6 -24 11 -19 31 6 22 3 25 -19 25 -28 0 -34 15
-9 24 32 12 54 6 54 -14 0 -11 4 -20 9 -20 10 0 25 48 22 68 -4 26 45 -17 67
-59z m8037 62 c3 -5 2 -12 -3 -15 -5 -3 -9 1 -9 9 0 17 3 19 12 6z m325 -1 c0
-5 -7 -7 -15 -4 -8 4 -15 8 -15 10 0 2 7 4 15 4 8 0 15 -4 15 -10z m-6939 -16
c10 -13 72 -44 85 -44 2 0 4 8 5 18 1 11 3 9 8 -7 3 -13 19 -33 33 -44 26 -19
29 -20 46 -4 25 23 25 22 69 -19 38 -36 38 -36 10 -30 -23 6 -30 3 -34 -14 -3
-11 -9 -20 -13 -20 -9 0 -24 31 -22 43 1 4 -7 7 -17 7 -11 0 -22 6 -24 13 -3
6 -6 2 -6 -11 -1 -22 -2 -23 -18 -6 -17 16 -18 16 -21 1 -2 -9 -8 -17 -13 -17
-16 0 -59 32 -59 44 0 6 -9 17 -20 24 -11 7 -20 19 -20 27 0 8 -9 15 -20 15
-13 0 -20 7 -20 18 0 22 34 26 51 6z m183 -6 c-4 -6 0 -15 7 -20 12 -8 11 -9
-1 -5 -8 2 -17 14 -18 26 -2 15 0 21 7 16 6 -3 8 -11 5 -17z m116 -17 c0 -13
-10 -14 -28 -3 -7 5 -10 16 -6 25 5 14 8 14 20 2 8 -7 14 -18 14 -24z m2659
20 c18 -11 3 -18 -34 -15 -42 3 -43 5 -15 14 34 11 33 11 49 1z m3701 -35 c0
-12 -5 -7 -19 24 -11 24 -11 24 3 6 9 -11 16 -24 16 -30z m181 27 c13 -15 12
-15 -8 -4 -24 12 -29 21 -14 21 5 0 15 -7 22 -17z m369 -4 c0 -6 -4 -7 -10 -4
-5 3 -10 11 -10 16 0 6 5 7 10 4 6 -3 10 -11 10 -16z m973 14 c-7 -2 -19 -2
-25 0 -7 3 -2 5 12 5 14 0 19 -2 13 -5z m137 -3 c0 -7 -14 -8 -37 -4 -52 9
-54 14 -5 14 23 0 42 -5 42 -10z m-9925 -10 c3 -5 -1 -10 -9 -10 -9 0 -16 5
-16 10 0 6 4 10 9 10 6 0 13 -4 16 -10z m2215 -21 c0 -6 -4 -7 -10 -4 -5 3
-10 11 -10 16 0 6 5 7 10 4 6 -3 10 -11 10 -16z m6148 -4 c-3 -3 -9 2 -12 12
-6 14 -5 15 5 6 7 -7 10 -15 7 -18z m1372 17 c0 -5 -13 -9 -30 -9 -16 0 -30 4
-30 9 0 4 14 8 30 8 17 0 30 -4 30 -8z m-7900 -12 c0 -5 -5 -10 -11 -10 -5 0
-7 5 -4 10 3 6 8 10 11 10 2 0 4 -4 4 -10z m-1558 -22 c-7 -7 -12 -8 -12 -2 0
14 12 26 19 19 2 -3 -1 -11 -7 -17z m566 4 c6 -18 -15 -14 -22 4 -4 10 -1 14
6 12 6 -2 14 -10 16 -16z m8952 8 c0 -5 -2 -10 -4 -10 -3 0 -8 5 -11 10 -3 6
-1 10 4 10 6 0 11 -4 11 -10z m140 0 c0 -5 -6 -10 -14 -10 -8 0 -18 5 -21 10
-3 6 3 10 14 10 12 0 21 -4 21 -10z m-2915 -10 c3 -5 1 -10 -4 -10 -6 0 -11 5
-11 10 0 6 2 10 4 10 3 0 8 -4 11 -10z m-6305 -5 c0 -2 -10 -9 -22 -15 -22
-11 -22 -10 -4 4 21 17 26 19 26 11z m-190 -24 c0 -4 -6 -19 -12 -34 -9 -19
-19 -26 -32 -23 -19 5 -66 -12 -78 -29 -5 -7 -8 -7 -8 1 0 5 5 15 12 22 8 8 8
15 -1 25 -9 12 -8 16 4 21 10 4 15 -1 15 -14 0 -11 4 -20 9 -20 14 0 34 29 28
43 -3 9 5 13 29 14 19 1 34 -2 34 -6z m446 -63 c13 -6 24 -19 24 -28 0 -15 -6
-16 -42 -9 -24 4 -47 8 -51 9 -5 0 -7 6 -4 13 2 6 -2 27 -9 46 -19 47 -19 47
22 11 20 -17 47 -36 60 -42z m5524 52 c0 -5 -9 -10 -19 -10 -11 0 -23 5 -26
10 -4 6 5 10 19 10 14 0 26 -4 26 -10z m320 1 c0 -5 -16 -9 -35 -9 -19 0 -35
4 -35 9 0 5 16 9 35 9 19 0 35 -4 35 -9z m67 3 c-3 -3 -12 -4 -19 -1 -8 3 -5
6 6 6 11 1 17 -2 13 -5z m-170 -10 c-3 -3 -12 -4 -19 -1 -8 3 -5 6 6 6 11 1
17 -2 13 -5z m-6142 -14 c3 -5 2 -10 -4 -10 -5 0 -13 5 -16 10 -3 6 -2 10 4
10 5 0 13 -4 16 -10z m1640 1 c3 -5 1 -12 -5 -16 -5 -3 -10 1 -10 9 0 18 6 21
15 7z m-2038 -33 c-22 -14 -28 -8 -16 13 9 17 13 19 20 8 5 -8 3 -16 -4 -21z
m83 12 c0 -5 -2 -10 -4 -10 -3 0 -8 5 -11 10 -3 6 -1 10 4 10 6 0 11 -4 11
-10z m1775 0 c-3 -5 -12 -7 -20 -3 -21 7 -19 13 6 13 11 0 18 -4 14 -10z
m-2345 -9 c0 -12 -28 -22 -34 -12 -3 5 -3 11 1 15 9 9 33 7 33 -3z m2260 -20
c3 -4 17 -12 32 -18 25 -11 27 -15 18 -38 -5 -14 -9 -29 -7 -33 1 -4 -2 -8 -8
-9 -13 -3 -14 28 -2 44 7 9 2 15 -14 22 -21 8 -25 5 -33 -20 -5 -16 -13 -29
-17 -29 -5 0 -9 -9 -9 -21 0 -11 -4 -17 -10 -14 -5 3 -10 17 -10 31 0 13 5 24
10 24 6 0 10 11 10 25 0 14 -4 25 -10 25 -5 0 -10 7 -10 15 0 12 7 14 28 9 15
-4 29 -10 32 -13z m-2220 -1 c0 -5 -4 -10 -10 -10 -5 0 -10 5 -10 10 0 6 5 10
10 10 6 0 10 -4 10 -10z m55 -10 c10 -11 15 -20 11 -20 -14 0 -46 21 -46 30 0
16 16 11 35 -10z m2435 16 c0 -3 -4 -8 -10 -11 -5 -3 -10 -1 -10 4 0 6 5 11
10 11 6 0 10 -2 10 -4z m-2057 -40 c8 5 8 2 0 -7 -18 -18 -39 3 -28 28 8 16 9
16 12 -5 3 -13 9 -20 16 -16z m124 9 c-4 -8 -12 -15 -19 -14 -10 0 -10 2 0 6
6 2 12 12 12 21 0 8 3 13 6 9 4 -3 4 -13 1 -22z m73 -1 c0 -8 -4 -14 -9 -14
-12 0 -32 26 -25 33 10 9 34 -4 34 -19z m170 1 c0 -25 -15 -24 -16 1 -1 13 2
21 7 18 5 -3 9 -11 9 -19z m1518 5 c7 0 10 5 6 11 -4 8 1 9 17 4 42 -12 79
-30 79 -37 0 -13 -38 -9 -43 5 -3 6 -6 2 -6 -10 -1 -22 61 -71 67 -53 6 16 22
12 22 -5 0 -8 -5 -15 -11 -15 -7 0 -9 -11 -6 -29 5 -25 3 -28 -13 -24 -21 6
-28 23 -9 23 6 0 1 11 -12 24 -17 17 -26 21 -31 13 -6 -9 -10 -8 -17 3 -7 10
-6 17 2 22 9 6 9 8 0 8 -6 0 -18 2 -25 5 -9 4 -19 -4 -26 -17 l-11 -23 0 22
c-1 12 4 25 10 28 7 5 6 12 -4 23 -8 10 -18 24 -22 32 -6 12 -5 13 6 3 7 -7
19 -13 27 -13z m2945 13 c-7 -2 -19 -2 -25 0 -7 3 -2 5 12 5 14 0 19 -2 13 -5z
m1887 -3 c0 -5 -2 -10 -4 -10 -3 0 -8 5 -11 10 -3 6 -1 10 4 10 6 0 11 -4 11
-10z m2496 -29 c-11 -17 6 -42 23 -36 12 5 13 3 5 -5 -8 -8 -18 -8 -37 1 -22
10 -25 15 -15 26 9 11 9 16 -1 23 -8 4 -10 13 -7 19 5 8 12 7 22 -4 9 -8 13
-19 10 -24z m79 29 c3 -5 -1 -10 -9 -10 -9 0 -16 5 -16 10 0 6 4 10 9 10 6 0
13 -4 16 -10z m-9019 -29 c-9 -10 -16 -22 -16 -28 0 -9 -22 -10 -67 -5 -7 1
-13 6 -13 12 0 5 7 7 15 4 8 -4 15 -1 15 5 0 6 8 11 19 11 10 0 24 7 31 15 7
8 17 12 22 9 5 -3 3 -13 -6 -23z m4634 18 c0 -5 5 -7 10 -4 6 3 17 -1 26 -9 8
-9 23 -16 32 -16 9 0 27 -3 40 -6 18 -5 21 -3 16 10 -7 19 -9 19 40 2 37 -13
38 -14 18 -25 -11 -6 -29 -11 -39 -11 -10 -1 -29 -7 -41 -14 l-24 -13 24 -15
c13 -8 57 -27 98 -42 56 -19 65 -24 35 -20 -22 3 -50 10 -62 16 -55 27 -25
-37 35 -74 30 -18 32 -23 17 -28 -19 -7 -65 9 -65 22 0 4 -13 5 -29 2 -27 -6
-29 -4 -24 17 5 18 3 21 -10 16 -11 -4 -17 -1 -17 9 0 13 -3 13 -17 -2 -13
-13 -14 -19 -5 -22 14 -4 16 -32 2 -32 -5 0 -10 4 -10 10 0 5 -3 9 -7 9 -23
-4 -30 4 -27 27 2 20 0 23 -11 14 -9 -8 -14 -7 -18 4 -5 13 -12 13 -39 4 -18
-6 -36 -16 -40 -21 -4 -7 -12 -6 -22 2 -13 11 -16 11 -16 -3 0 -14 -3 -14 -35
1 -19 9 -32 20 -29 25 9 14 -4 9 -21 -8 -9 -9 -19 -13 -23 -9 -4 3 1 11 10 16
10 6 15 16 11 25 -5 14 -1 15 25 9 37 -8 44 9 10 20 -21 7 -22 7 -4 12 11 3
26 11 33 19 12 11 10 14 -12 20 -14 3 -25 13 -25 20 0 20 30 29 49 15 9 -6 24
-14 34 -17 18 -7 24 -24 7 -24 -5 0 -10 -4 -10 -9 0 -5 12 -8 27 -6 35 4 53
-4 53 -21 0 -11 11 -14 40 -12 43 3 48 9 25 28 -12 10 -15 9 -15 -5 0 -13 -6
-10 -28 13 -16 17 -48 36 -73 44 l-44 13 40 5 c24 4 46 1 55 -6 8 -6 26 -15
40 -19 22 -7 23 -6 11 9 -7 9 -19 16 -26 16 -7 0 -18 7 -25 15 -10 13 -9 15 9
15 11 0 21 -5 21 -11z m2205 1 c3 -5 1 -10 -4 -10 -6 0 -11 5 -11 10 0 6 2 10
4 10 3 0 8 -4 11 -10z m-2820 -10 c3 -5 -1 -10 -9 -10 -9 0 -16 5 -16 10 0 6
4 10 9 10 6 0 13 -4 16 -10z m1055 -15 c14 -8 32 -17 40 -21 39 -18 68 -64 40
-64 -5 0 -10 7 -10 15 0 9 -10 20 -22 25 -13 6 -30 14 -38 19 -8 5 -31 16 -50
24 -32 14 -33 16 -10 16 14 0 36 -6 50 -14z m1391 -9 c32 0 59 -3 59 -7 0 -3
30 -9 68 -12 37 -4 117 -13 177 -20 61 -8 114 -12 118 -10 4 3 24 -3 44 -12
29 -14 37 -15 44 -4 5 9 9 10 9 2 0 -16 82 -42 116 -36 27 5 28 4 10 -9 -17
-13 -17 -15 -3 -21 9 -3 19 -3 21 2 3 4 19 6 37 3 41 -6 19 -19 -36 -22 -47
-3 -76 7 -69 24 3 8 -12 12 -49 12 -29 1 -63 6 -75 13 -32 17 -151 25 -167 11
-8 -7 -18 -9 -24 -6 -15 10 -177 10 -192 0 -29 -19 -249 -12 -249 7 0 5 10 9
23 8 61 -5 71 7 37 43 -18 20 -19 23 -3 40 13 14 19 15 30 6 8 -7 41 -12 74
-12z m-2351 4 c0 -5 -2 -10 -4 -10 -3 0 -8 5 -11 10 -3 6 -1 10 4 10 6 0 11
-4 11 -10z m1500 -6 c0 -2 -7 -4 -15 -4 -8 0 -15 4 -15 10 0 5 7 7 15 4 8 -4
15 -8 15 -10z m115 4 c14 -6 25 -19 25 -28 0 -9 5 -21 12 -28 9 -9 7 -12 -9
-12 -14 0 -25 9 -31 28 -9 24 -11 25 -11 5 -1 -22 -1 -22 -36 -5 -42 21 -45
33 -6 28 21 -2 28 0 24 10 -6 17 -1 17 32 2z m3545 -14 c0 -8 -4 -12 -10 -9
-5 3 -10 13 -10 21 0 8 5 12 10 9 6 -3 10 -13 10 -21z m-9400 6 c0 -5 -2 -10
-4 -10 -3 0 -8 5 -11 10 -3 6 -1 10 4 10 6 0 11 -4 11 -10z m4160 0 c0 -5 -2
-10 -4 -10 -3 0 -8 5 -11 10 -3 6 -1 10 4 10 6 0 11 -4 11 -10z m2980 -10 c0
-5 -2 -10 -4 -10 -3 0 -8 5 -11 10 -3 6 -1 10 4 10 6 0 11 -4 11 -10z m-7290
-26 c0 -14 -12 -19 -23 -8 -9 9 4 35 14 28 5 -3 9 -12 9 -20z m4385 12 c6 3
18 -2 25 -11 18 -22 -12 -20 -37 3 -10 9 -14 14 -9 10 4 -3 14 -4 21 -2z m770
4 c3 -5 2 -10 -4 -10 -5 0 -13 5 -16 10 -3 6 -2 10 4 10 5 0 13 -4 16 -10z
m-5325 -15 c7 -9 8 -15 2 -15 -5 0 -12 7 -16 15 -3 8 -4 15 -2 15 2 0 9 -7 16
-15z m4100 5 c-8 -5 -31 -9 -50 -9 -31 1 -32 2 -10 8 14 4 36 8 50 9 20 1 22
0 10 -8z m400 -12 c0 -13 -23 -5 -28 10 -2 7 2 10 12 6 9 -3 16 -11 16 -16z
m1570 -8 c0 -5 -7 -7 -15 -4 -8 4 -15 8 -15 10 0 2 7 4 15 4 8 0 15 -4 15 -10z
m-3748 -22 c-6 -6 -15 -8 -19 -4 -4 4 -1 11 7 16 19 12 27 3 12 -12z m4003 2
c3 -5 1 -10 -4 -10 -6 0 -11 5 -11 10 0 6 2 10 4 10 3 0 8 -4 11 -10z m1489
-20 c-6 -6 -33 -13 -60 -16 -27 -3 -58 -7 -69 -9 -15 -3 -21 1 -22 15 -1 11 1
21 5 21 45 7 72 7 77 -1 11 -17 55 -12 55 7 0 13 3 14 12 5 8 -8 9 -15 2 -22z
m-5430 -5 c4 -14 13 -25 21 -25 8 0 15 -4 15 -9 0 -15 -29 -33 -41 -26 -8 6
-8 10 2 15 9 6 9 12 -4 25 -18 18 -23 45 -8 45 5 0 12 -11 15 -25z m4293 19
c-10 -11 -58 -13 -51 -3 3 5 17 9 31 9 15 0 23 -3 20 -6z m3603 -27 c0 -3 -9
-3 -20 0 -20 5 -25 15 -14 26 6 6 34 -16 34 -26z m-4208 11 c-9 -9 -15 -9 -24
0 -9 9 -7 12 12 12 19 0 21 -3 12 -12z m2528 -3 c0 -8 6 -24 12 -35 10 -16 10
-23 -3 -35 -14 -14 -18 -14 -42 5 -15 12 -25 26 -22 31 10 15 25 10 19 -6 -5
-11 -2 -13 10 -9 10 4 15 13 12 20 -3 8 -9 21 -12 29 -4 10 0 15 10 15 9 0 16
-7 16 -15z m-6377 -15 c-3 -11 -9 -17 -15 -14 -5 3 -4 12 3 20 16 19 18 18 12
-6z m2622 10 c-3 -5 -10 -10 -16 -10 -5 0 -9 5 -9 10 0 6 7 10 16 10 8 0 12
-4 9 -10z m1346 -5 c0 -6 -10 -12 -23 -13 -19 -4 -20 -2 -9 12 15 17 33 18 32
1z m-1594 -14 c17 -10 17 -10 -2 -12 -11 -1 -31 0 -44 1 -14 1 -21 -2 -17 -9
4 -6 2 -11 -3 -11 -12 0 -14 11 -5 33 6 16 42 15 71 -2z m893 -1 c0 -5 -4 -10
-9 -10 -6 0 -13 5 -16 10 -3 6 1 10 9 10 9 0 16 -4 16 -10z m1330 0 c0 -5 -4
-10 -10 -10 -5 0 -10 5 -10 10 0 6 5 10 10 10 6 0 10 -4 10 -10z m520 -35 c-7
-8 -16 -12 -21 -9 -13 8 -1 24 18 24 13 0 13 -3 3 -15z m-2903 -1 c-3 -3 -12
-4 -19 -1 -8 3 -5 6 6 6 11 1 17 -2 13 -5z m3258 -4 c3 -5 1 -10 -4 -10 -6 0
-11 5 -11 10 0 6 2 10 4 10 3 0 8 -4 11 -10z m583 -9 c3 -8 -1 -12 -9 -9 -7 2
-15 10 -17 17 -3 8 1 12 9 9 7 -2 15 -10 17 -17z m-4034 -7 c20 -19 20 -24 1
-24 -8 0 -15 6 -15 14 0 8 -6 17 -12 19 -9 4 -10 6 -1 6 6 1 19 -6 27 -15z
m3545 7 c23 -15 -3 -20 -34 -6 -29 13 -29 13 -5 14 14 0 31 -3 39 -8z m891 0
c0 -6 -4 -13 -10 -16 -5 -3 -10 1 -10 9 0 9 5 16 10 16 6 0 10 -4 10 -9z m128
-6 c10 -4 9 -9 -5 -24 -20 -20 -46 -21 -79 -3 -12 6 -24 9 -27 6 -3 -3 -3 2
-1 13 4 15 13 18 52 15 26 -2 53 -5 60 -7z m-1200 -12 c10 -10 27 -23 38 -30
17 -10 15 -11 -14 -11 -22 1 -31 5 -28 14 3 7 -2 15 -10 18 -8 3 -14 10 -14
16 0 14 7 13 28 -7z m-1195 0 c-7 -2 -19 -2 -25 0 -7 3 -2 5 12 5 14 0 19 -2
13 -5z m882 -13 c27 -12 33 -19 20 -19 -33 -1 -63 10 -69 25 -7 18 0 17 49 -6z
m855 10 c12 -8 11 -10 -7 -10 -13 0 -23 5 -23 10 0 13 11 13 30 0z m70 -12 c0
-13 -23 -5 -28 10 -2 7 2 10 12 6 9 -3 16 -11 16 -16z m-110 -10 c0 -5 -4 -6
-10 -3 -5 3 -10 -1 -10 -10 0 -9 -4 -14 -9 -11 -15 9 -1 45 15 39 8 -3 14 -9
14 -15z m2280 12 c0 -5 -4 -10 -10 -10 -5 0 -10 5 -10 10 0 6 5 10 10 10 6 0
10 -4 10 -10z m-860 -25 c13 -14 19 -25 13 -25 -5 0 -20 11 -33 25 -13 14 -19
25 -13 25 5 0 20 -11 33 -25z m-4137 -5 c5 -4 2 -10 -6 -13 -8 -3 -23 4 -34
15 -18 20 -18 21 7 13 14 -4 29 -11 33 -15z m3357 0 c0 11 3 11 12 2 10 -10
10 -14 0 -21 -18 -11 4 -28 42 -33 43 -5 46 -28 4 -28 -19 0 -38 3 -42 8 -4 4
-30 12 -58 17 -28 6 -53 16 -56 23 -3 9 3 10 23 2 14 -5 36 -10 47 -10 19 0
20 1 4 25 -22 33 -20 42 4 20 15 -13 20 -14 20 -5z m-3260 -14 l35 -13 -38
-16 c-26 -11 -44 -13 -60 -7 -19 8 -20 9 -3 9 18 1 18 2 1 21 -18 19 -17 20 6
19 13 0 40 -6 59 -13z m4930 -48 c0 -3 -9 -4 -20 -1 -16 4 -19 2 -14 -13 4
-14 0 -13 -15 6 -24 29 -26 46 -8 53 11 4 56 -31 57 -45z m-1443 36 c-3 -3
-12 -4 -19 -1 -8 3 -5 6 6 6 11 1 17 -2 13 -5z m-54 -11 c-7 -2 -19 -2 -25 0
-7 3 -2 5 12 5 14 0 19 -2 13 -5z m187 -29 c0 -8 -4 -12 -10 -9 -5 3 -10 10
-10 16 0 5 5 9 10 9 6 0 10 -7 10 -16z"/>
<path d="M2750 1434 c38 -8 90 -9 90 -2 0 4 -24 7 -52 7 -29 -1 -46 -3 -38 -5z"/>
<path d="M5094 3300 c-15 -22 -29 -40 -33 -40 -3 0 -17 -10 -31 -21 l-25 -20
31 15 c27 13 104 88 104 101 0 17 -24 -1 -46 -35z"/>
<path d="M4974 3266 c-16 -14 -24 -25 -19 -25 15 -1 61 37 54 44 -4 3 -20 -5
-35 -19z"/>
<path d="M4850 3246 c0 -18 -21 -26 -90 -37 l-55 -8 65 4 c60 3 122 24 135 46
4 5 -8 9 -24 9 -20 0 -31 -5 -31 -14z"/>
<path d="M4918 3233 c7 -3 16 -2 19 1 4 3 -2 6 -13 5 -11 0 -14 -3 -6 -6z"/>
<path d="M4638 3193 c7 -3 16 -2 19 1 4 3 -2 6 -13 5 -11 0 -14 -3 -6 -6z"/>
<path d="M5958 1664 c-4 -3 -31 -6 -62 -6 -42 -1 -56 -5 -56 -16 0 -13 -3 -12
-19 2 -19 17 -20 17 -31 -3 -11 -21 -10 -21 82 -17 51 2 106 8 122 12 27 6 28
8 11 20 -20 15 -38 18 -47 8z"/>
<path d="M5940 1591 c5 -9 18 -27 28 -40 19 -23 22 -24 77 -13 32 7 79 12 105
12 26 0 50 3 53 7 20 19 -136 56 -223 52 -41 -2 -47 -5 -40 -18z"/>
<path d="M4506 1401 c-8 -12 69 -35 84 -26 19 12 10 25 -17 24 -16 -1 -35 1
-44 5 -10 4 -20 3 -23 -3z"/>
<path d="M4350 1390 c0 -5 5 -10 10 -10 6 0 10 5 10 10 0 6 -4 10 -10 10 -5 0
-10 -4 -10 -10z"/>
<path d="M4730 1380 c0 -5 7 -10 16 -10 8 0 12 5 9 10 -3 6 -10 10 -16 10 -5
0 -9 -4 -9 -10z"/>
<path d="M4215 1370 c-3 -5 -2 -10 4 -10 5 0 13 5 16 10 3 6 2 10 -4 10 -5 0
-13 -4 -16 -10z"/>
<path d="M4630 1370 c20 -13 43 -13 35 0 -3 6 -16 10 -28 10 -18 0 -19 -2 -7
-10z"/>
<path d="M4348 1353 c7 -3 16 -2 19 1 4 3 -2 6 -13 5 -11 0 -14 -3 -6 -6z"/>
<path d="M4376 1341 c-4 -6 -17 -11 -29 -10 -12 1 -31 1 -42 -1 -37 -5 36 -18
100 -17 33 0 47 2 30 4 -16 3 -34 12 -40 20 -9 12 -14 13 -19 4z"/>
<path d="M4600 1330 c0 -5 5 -10 11 -10 5 0 7 5 4 10 -3 6 -8 10 -11 10 -2 0
-4 -4 -4 -10z"/>
<path d="M4665 1320 c-3 -5 1 -10 10 -10 9 0 13 5 10 10 -3 6 -8 10 -10 10 -2
0 -7 -4 -10 -10z"/>
<path d="M5635 1250 c-3 -5 3 -10 14 -10 12 0 21 5 21 10 0 6 -6 10 -14 10 -8
0 -18 -4 -21 -10z"/>
<path d="M4395 1240 c-14 -6 -4 -9 38 -9 36 -1 56 3 52 9 -7 12 -62 12 -90 0z"/>
<path d="M4520 1230 c8 -5 20 -10 25 -10 6 0 3 5 -5 10 -8 5 -19 10 -25 10 -5
0 -3 -5 5 -10z"/>
<path d="M5808 1073 c6 -2 18 -2 25 0 6 3 1 5 -13 5 -14 0 -19 -2 -12 -5z"/>
<path d="M6188 1265 c-3 -14 -1 -25 3 -25 5 0 9 9 9 21 0 11 5 17 10 14 6 -3
10 -1 10 4 0 22 -28 10 -32 -14z"/>
<path d="M2310 820 c-10 -6 35 -10 134 -10 82 0 147 2 145 4 -11 9 -265 15
-279 6z"/>
<path d="M1018 793 c6 -2 18 -2 25 0 6 3 1 5 -13 5 -14 0 -19 -2 -12 -5z"/>
<path d="M1197 793 c18 -2 50 -2 70 0 21 2 7 4 -32 4 -38 0 -55 -2 -38 -4z"/>
<path d="M1368 793 c6 -2 18 -2 25 0 6 3 1 5 -13 5 -14 0 -19 -2 -12 -5z"/>
<path d="M1840 770 c0 -5 5 -10 10 -10 6 0 10 5 10 10 0 6 -4 10 -10 10 -5 0
-10 -4 -10 -10z"/>
<path d="M3313 773 c-117 -7 -64 -18 94 -20 87 -2 153 1 147 6 -11 10 -155 18
-241 14z"/>
<path d="M1168 763 c7 -3 16 -2 19 1 4 3 -2 6 -13 5 -11 0 -14 -3 -6 -6z"/>
<path d="M2344 705 c1 -30 4 -31 22 -7 18 24 17 32 -5 32 -14 0 -19 -7 -17
-25z"/>
<path d="M2396 686 c3 -7 -7 -25 -22 -39 -15 -15 -22 -28 -15 -28 27 -4 31 -4
31 4 0 4 6 20 15 36 12 25 13 30 0 35 -9 3 -12 0 -9 -8z"/>
<path d="M2425 649 c-4 -6 -5 -12 -2 -15 2 -3 7 2 10 11 7 17 1 20 -8 4z"/>
<path d="M3848 613 c7 -3 16 -2 19 1 4 3 -2 6 -13 5 -11 0 -14 -3 -6 -6z"/>
<path d="M3920 610 c0 -5 5 -10 11 -10 5 0 7 5 4 10 -3 6 -8 10 -11 10 -2 0
-4 -4 -4 -10z"/>
<path d="M4060 603 c0 -5 14 -8 30 -9 17 -1 30 3 30 7 0 5 -13 9 -30 9 -16 0
-30 -3 -30 -7z"/>
<path d="M2758 613 c-20 -5 -23 -20 -8 -43 9 -15 11 -13 14 12 0 6 7 13 15 16
11 4 12 -1 7 -19 -12 -38 -18 -88 -8 -65 7 16 9 17 14 4 4 -9 1 -21 -5 -27 -8
-8 -7 -11 6 -11 9 0 17 6 18 13 0 6 1 28 2 47 1 24 7 35 17 35 16 0 30 14 30
30 0 6 -4 5 -8 -1 -4 -6 -18 -15 -30 -19 -22 -6 -23 -5 -13 14 10 19 9 21 -11
20 -13 -1 -31 -3 -40 -6z"/>
<path d="M7408 533 c7 -3 16 -2 19 1 4 3 -2 6 -13 5 -11 0 -14 -3 -6 -6z"/>
<path d="M1225 460 c3 -5 8 -10 11 -10 2 0 4 5 4 10 0 6 -5 10 -11 10 -5 0 -7
-4 -4 -10z"/>
<path d="M5855 250 c3 -5 11 -10 16 -10 6 0 7 5 4 10 -3 6 -11 10 -16 10 -6 0
-7 -4 -4 -10z"/>
<path d="M5705 230 c-3 -5 -1 -10 4 -10 6 0 11 5 11 10 0 6 -2 10 -4 10 -3 0
-8 -4 -11 -10z"/>
<path d="M5665 220 c3 -5 8 -10 11 -10 2 0 4 5 4 10 0 6 -5 10 -11 10 -5 0 -7
-4 -4 -10z"/>
<path d="M7340 5851 c0 -6 4 -13 10 -16 6 -3 7 1 4 9 -7 18 -14 21 -14 7z"/>
<path d="M4835 5640 c3 -5 11 -10 16 -10 6 0 7 5 4 10 -3 6 -11 10 -16 10 -6
0 -7 -4 -4 -10z"/>
<path d="M6436 5143 c-9 -9 -6 -65 4 -88 8 -18 9 -18 10 5 1 14 2 33 1 43 -1
9 3 17 8 17 6 0 11 4 11 9 0 11 -26 22 -34 14z"/>
<path d="M4091 5051 c-19 -14 -20 -19 -8 -24 9 -3 19 3 26 19 13 29 13 29 -18
5z"/>
<path d="M4092 4976 c2 -10 13 -25 26 -34 20 -13 22 -13 22 2 0 9 -7 16 -15
16 -7 0 -19 8 -25 18 -10 16 -11 16 -8 -2z"/>
<path d="M6395 4940 c-3 -5 -1 -10 4 -10 6 0 11 5 11 10 0 6 -2 10 -4 10 -3 0
-8 -4 -11 -10z"/>
<path d="M6530 4876 c0 -2 8 -10 18 -17 15 -13 16 -12 3 4 -13 16 -21 21 -21
13z"/>
<path d="M4217 4843 c-4 -3 -7 -11 -7 -17 0 -6 5 -5 12 2 6 6 9 14 7 17 -3 3
-9 2 -12 -2z"/>
<path d="M7200 2031 c0 -6 12 -11 28 -12 15 0 37 -2 50 -3 12 -2 22 1 22 6 0
4 -6 8 -12 8 -7 1 -30 3 -50 6 -24 4 -38 2 -38 -5z"/>
<path d="M7240 1950 c0 -6 7 -13 15 -16 8 -4 15 -12 15 -19 0 -7 12 -32 27
-54 21 -32 29 -38 40 -30 10 9 11 15 1 26 -16 19 -19 41 -7 49 19 11 8 24 -20
24 -16 0 -36 7 -45 15 -17 18 -26 19 -26 5z"/>
<path d="M0 1761 c0 -20 5 -21 79 -21 43 0 107 -2 142 -5 l64 -5 -41 13 c-22
8 -76 17 -120 21 -43 4 -89 10 -101 13 -18 4 -23 1 -23 -16z"/>
<path d="M7290 1748 c0 -9 5 -20 11 -23 17 -11 20 0 4 21 -13 17 -14 17 -15 2z"/>
<path d="M1950 1690 c-12 -7 -12 -12 -3 -21 10 -10 14 -9 19 5 8 22 2 27 -16
16z"/>
<path d="M2011 1665 c-1 -16 -3 -17 -11 -5 -5 8 -12 11 -16 7 -4 -4 -2 -13 4
-19 15 -15 37 3 29 24 -3 8 -6 5 -6 -7z"/>
<path d="M1609 1603 c-24 -32 -46 -59 -51 -61 -4 -2 -8 -9 -8 -15 0 -7 -9 -23
-19 -36 -15 -20 -19 -21 -24 -7 -4 9 -17 20 -29 25 -21 8 -20 10 26 59 27 29
45 52 41 52 -14 0 -109 -64 -137 -92 -15 -16 -34 -28 -43 -28 -8 0 -15 -6 -15
-12 0 -15 -73 -103 -86 -104 -5 0 -17 -4 -26 -8 -9 -4 -24 -3 -34 2 -23 13
-54 4 -47 -14 3 -9 -1 -14 -12 -14 -26 0 1 -30 29 -31 15 -1 13 -3 -9 -8 l-30
-7 33 -8 c36 -8 36 -17 6 -80 -8 -16 -14 -31 -14 -33 0 -2 21 -2 48 -1 26 1
53 -1 60 -5 8 -6 12 -1 12 13 0 20 -4 21 -40 15 -47 -8 -50 1 -14 44 28 33
127 71 109 41 -3 -6 4 -10 17 -10 19 0 20 2 8 11 -12 9 -12 10 3 5 10 -3 27
-6 38 -6 15 0 19 -7 19 -37 l0 -38 19 30 c10 17 28 39 40 49 11 11 21 25 21
33 0 7 5 13 11 13 6 0 8 -8 4 -19 -5 -15 -2 -18 13 -14 11 2 35 -7 57 -21 44
-30 48 -31 65 -11 11 13 15 13 41 0 38 -20 46 -19 24 5 -19 21 -8 29 12 9 8
-8 11 -6 10 7 -1 12 6 20 19 22 12 2 29 11 38 21 15 17 15 19 1 24 -9 4 -15 1
-15 -9 0 -8 -4 -12 -10 -9 -13 8 -13 52 1 57 25 8 89 -5 89 -18 0 -8 4 -14 9
-14 5 0 12 -14 16 -31 4 -17 14 -33 23 -36 10 -4 20 -11 24 -17 5 -7 8 -5 8 5
0 9 10 24 22 35 12 10 18 14 15 8 -4 -7 0 -15 9 -18 14 -5 16 -16 11 -58 -10
-78 11 -46 34 53 21 93 36 297 24 325 -6 15 -11 9 -25 -31 -14 -40 -21 -50
-39 -49 -16 0 -20 -4 -15 -18 4 -14 0 -17 -20 -16 -24 2 -38 18 -16 18 21 0 9
20 -15 26 -23 6 -30 15 -26 37 0 4 -6 7 -15 7 -14 0 -14 3 -4 15 26 31 -2 28
-31 -3 -36 -38 -46 -41 -23 -7 15 23 15 25 0 25 -9 0 -25 -9 -36 -20 l-20 -20
0 20 c0 24 -8 25 -38 4 -27 -19 -41 -12 -22 11 20 24 -13 19 -35 -5 -24 -26
-39 -26 -25 1 24 44 0 28 -41 -28z m175 -82 c3 -5 -1 -14 -8 -20 -12 -10 -13
-8 -9 8 6 23 9 25 17 12z m196 -31 c0 -5 -4 -10 -10 -10 -5 0 -10 5 -10 10 0
6 5 10 10 10 6 0 10 -4 10 -10z m-50 -73 c0 -10 -4 -15 -10 -12 -5 3 -10 18
-10 33 0 21 2 24 10 12 5 -8 10 -23 10 -33z m30 14 c0 -6 -4 -13 -10 -16 -5
-3 -10 1 -10 9 0 9 5 16 10 16 6 0 10 -4 10 -9z m-509 -84 c-5 -13 -16 -29
-25 -36 -13 -11 -17 -11 -22 3 -4 11 -13 15 -25 11 -11 -4 -19 -2 -19 3 0 5
-10 14 -22 20 -23 11 -23 11 4 11 14 1 28 4 30 9 2 4 16 17 33 29 l29 21 13
-25 c8 -15 9 -32 4 -46z m149 28 c6 -8 10 -20 8 -26 -2 -6 -12 0 -21 15 -18
27 -8 37 13 11z"/>
<path d="M2205 1565 c0 -46 -4 -55 -27 -59 -7 -1 -36 -23 -64 -49 -45 -42 -51
-53 -49 -85 2 -21 8 -38 16 -40 10 -3 10 -1 -1 7 -13 9 -13 11 2 11 9 0 23 -7
31 -15 26 -25 137 -25 137 1 0 8 5 12 10 9 6 -4 10 7 10 24 0 31 -14 42 -23
19 -9 -28 -27 58 -18 87 l9 30 1 -32 c1 -38 10 -63 22 -63 5 0 7 19 5 43 -3
32 -9 45 -27 54 -13 7 -19 13 -13 13 8 0 9 11 4 36 -12 54 -25 59 -25 9z m-7
-183 c2 -8 -8 -12 -29 -12 -31 0 -32 1 -13 15 21 16 36 15 42 -3z"/>
<path d="M10860 1560 c-14 -14 -12 -17 17 -31 37 -19 40 -15 15 22 -15 23 -18
24 -32 9z"/>
<path d="M10687 1554 c-21 -7 -44 -11 -52 -8 -9 4 -18 -1 -21 -11 -4 -9 -16
-20 -28 -25 -28 -10 -30 -46 -5 -73 22 -23 25 -57 7 -75 -9 -9 -6 -12 15 -12
22 0 28 -6 36 -37 6 -21 11 -48 11 -61 0 -20 -3 -21 -20 -12 -12 6 -26 23 -33
38 -6 15 -20 33 -29 40 -10 7 -18 19 -18 26 0 15 -45 30 -60 21 -15 -10 -11
35 9 92 36 104 -17 18 -75 -122 -9 -22 -18 -53 -20 -70 -8 -69 -16 -95 -29
-103 -13 -7 -13 -16 -1 -74 8 -37 17 -72 22 -79 5 -9 2 -10 -9 -6 -9 3 -19 2
-22 -3 -4 -6 13 -10 40 -10 l45 0 -16 26 c-15 22 -16 34 -6 86 6 33 18 68 26
77 8 9 18 29 21 44 10 37 37 32 50 -9 14 -41 70 -113 131 -166 19 -17 20 -16
19 6 0 14 -3 28 -7 32 -15 14 -8 34 10 34 13 0 22 -12 31 -40 14 -47 26 -51
36 -12 l7 27 34 -40 c36 -42 40 -42 24 0 -7 19 -7 24 1 19 9 -5 10 4 5 30 -6
30 -4 36 10 36 9 0 23 8 31 18 13 16 14 16 8 -4 -3 -11 1 -29 9 -40 14 -18 16
-18 45 -2 29 16 31 16 40 0 4 -9 11 -41 14 -69 5 -41 3 -53 -7 -53 -8 0 -17
-7 -20 -15 -8 -21 -90 -18 -130 4 -22 12 -30 13 -33 4 -6 -17 -30 -17 -36 0
-4 12 -126 15 -272 6 -17 -1 40 -9 235 -32 102 -13 337 -18 375 -9 l40 10 -42
1 c-28 1 -42 5 -40 13 1 7 -8 14 -21 16 -17 3 -22 8 -17 20 14 38 27 115 21
134 -3 12 -1 29 5 39 7 14 14 16 33 9 13 -5 26 -7 29 -4 2 2 16 0 30 -5 17 -7
28 -7 32 -1 8 12 75 13 75 1 0 -4 14 -22 30 -39 17 -18 30 -36 30 -42 0 -15
30 -12 36 4 3 7 -4 41 -15 75 -12 33 -20 64 -19 68 3 13 -49 108 -69 124 -16
13 -17 12 -5 -3 14 -18 19 -74 8 -85 -9 -10 -91 -32 -142 -40 -46 -6 -46 -6
-58 68 l-6 36 52 7 c115 13 129 17 113 32 -7 8 -18 14 -24 14 -6 0 -19 4 -29
9 -9 5 -35 17 -57 26 -22 10 -51 27 -64 39 l-24 21 7 -30 c6 -27 5 -28 -7 -12
-21 25 -26 21 -33 -23 -4 -23 -12 -40 -19 -40 -8 0 -15 -6 -18 -12 -3 -11 -32
42 -50 95 -4 9 -13 17 -22 17 -8 0 -15 5 -15 10 0 6 -6 10 -14 10 -7 0 -22 12
-32 27 -11 18 -19 23 -22 15 -3 -11 -7 -10 -21 1 -14 12 -22 13 -54 1z m323
-145 c0 -6 -4 -7 -10 -4 -5 3 -10 11 -10 16 0 6 5 7 10 4 6 -3 10 -11 10 -16z"/>
<path d="M8300 1478 c0 -13 6 -18 17 -16 24 5 27 25 3 31 -15 4 -20 0 -20 -15z"/>
<path d="M10920 1485 c0 -8 2 -15 4 -15 2 0 6 7 10 15 3 8 1 15 -4 15 -6 0
-10 -7 -10 -15z"/>
<path d="M2373 1443 c9 -2 23 -2 30 0 6 3 -1 5 -18 5 -16 0 -22 -2 -12 -5z"/>
<path d="M215 1420 c-110 -4 -203 -8 -207 -9 -5 0 -8 -10 -8 -21 0 -17 7 -20
52 -20 28 0 49 -3 45 -6 -3 -3 -26 -6 -51 -6 -38 0 -46 -3 -46 -18 0 -24 26
-32 42 -13 10 13 28 15 104 10 103 -7 131 3 53 18 -105 20 -63 30 136 31 117
1 200 5 206 11 7 7 -5 12 -35 16 -25 4 -56 8 -68 10 -13 2 -113 1 -223 -3z"/>
<path d="M573 1403 c9 -2 23 -2 30 0 6 3 -1 5 -18 5 -16 0 -22 -2 -12 -5z"/>
<path d="M8490 1390 c-9 -6 -10 -10 -3 -10 6 0 15 5 18 10 8 12 4 12 -15 0z"/>
<path d="M460 1370 c0 -13 11 -13 30 0 12 8 11 10 -7 10 -13 0 -23 -4 -23 -10z"/>
<path d="M9050 1369 c-47 -5 -104 -10 -128 -12 -23 -2 -45 -7 -49 -10 -9 -9
219 -7 282 2 49 7 50 8 22 19 -16 7 -31 11 -35 10 -4 -1 -45 -5 -92 -9z"/>
<path d="M360 1359 c0 -5 -4 -7 -10 -4 -5 3 -10 -1 -10 -9 0 -10 8 -14 28 -12
15 2 37 4 50 5 21 1 22 3 8 16 -17 17 -66 20 -66 4z"/>
<path d="M8610 1360 c0 -6 26 -10 57 -10 68 0 67 5 -4 13 -31 4 -53 2 -53 -3z"/>
<path d="M9220 1360 c0 -5 7 -10 16 -10 8 0 12 5 9 10 -3 6 -10 10 -16 10 -5
0 -9 -4 -9 -10z"/>
<path d="M920 1334 c0 -19 -4 -24 -17 -20 -24 6 -146 -26 -150 -40 -9 -28 235
-38 262 -10 9 9 22 16 28 17 7 1 1 4 -13 8 -14 4 -24 14 -24 23 1 13 -6 16
-37 13 -22 -3 -39 0 -39 5 0 6 5 10 10 10 6 0 10 5 10 10 0 6 -7 10 -15 10 -9
0 -15 -10 -15 -26z"/>
<path d="M2342 1349 c10 -5 15 -16 12 -24 -4 -9 0 -15 10 -15 9 0 19 0 24 0
11 0 9 24 -5 38 -6 6 -22 12 -35 12 -20 -1 -21 -2 -6 -11z"/>
<path d="M2285 1338 c-5 -5 -18 -15 -29 -22 -16 -11 -17 -16 -7 -35 7 -12 16
-41 20 -64 7 -40 8 -39 18 43 6 47 11 86 10 86 -1 1 -6 -2 -12 -8z"/>
<path d="M11405 1330 c3 -5 28 -10 56 -10 27 0 49 5 49 10 0 6 -25 10 -56 10
-34 0 -53 -4 -49 -10z"/>
<path d="M9755 1321 c11 -4 47 -4 80 -1 l60 7 -80 1 c-47 0 -72 -2 -60 -7z"/>
<path d="M98 1313 c7 -3 16 -2 19 1 4 3 -2 6 -13 5 -11 0 -14 -3 -6 -6z"/>
<path d="M2118 1293 c7 -3 16 -2 19 1 4 3 -2 6 -13 5 -11 0 -14 -3 -6 -6z"/>
<path d="M11680 1290 c0 -5 4 -10 9 -10 6 0 13 5 16 10 3 6 -1 10 -9 10 -9 0
-16 -4 -16 -10z"/>
<path d="M11816 1292 c-3 -5 6 -12 19 -15 14 -2 28 0 31 4 3 5 1 9 -5 9 -5 0
-16 3 -24 6 -8 3 -18 1 -21 -4z"/>
<path d="M57 1272 c-10 -10 -14 -22 -10 -25 12 -13 100 -7 112 7 15 18 -5 34
-22 17 -6 -6 -22 -10 -36 -10 -18 1 -20 3 -8 6 9 2 15 9 12 14 -10 14 -31 11
-48 -9z"/>
<path d="M8537 1269 c5 -17 11 -20 32 -14 14 3 37 6 51 6 l25 0 -25 14 c-14 8
-39 14 -57 15 -27 0 -30 -3 -26 -21z"/>
<path d="M11748 1283 c12 -2 30 -2 40 0 9 3 -1 5 -23 4 -22 0 -30 -2 -17 -4z"/>
<path d="M11925 1280 c-6 -10 63 -26 72 -16 9 9 2 12 -34 19 -18 4 -35 2 -38
-3z"/>
<path d="M1088 1273 c12 -2 32 -2 45 0 12 2 2 4 -23 4 -25 0 -35 -2 -22 -4z"/>
<path d="M227 1247 c-50 -12 -54 -27 -8 -27 14 0 40 -7 56 -16 17 -8 50 -18
74 -21 37 -5 43 -3 38 10 -10 25 5 28 29 6 15 -14 29 -19 41 -15 17 7 17 8 -1
22 -11 8 -27 14 -36 14 -9 0 -22 6 -28 12 -10 10 -14 10 -21 0 -5 -9 -17 -11
-34 -7 -15 4 -24 11 -21 16 3 5 1 9 -5 9 -5 0 -15 2 -23 4 -7 2 -35 -1 -61 -7z"/>
<path d="M8675 1255 c-5 -2 -23 -6 -39 -10 -58 -12 -9 -27 88 -26 75 1 96 -2
96 -13 0 -16 63 -26 122 -19 32 5 39 3 33 -7 -6 -9 -4 -11 5 -5 19 12 70 14
94 5 12 -5 15 -9 7 -9 -8 -1 -12 -4 -9 -7 7 -6 48 17 48 28 0 3 -20 17 -44 29
-42 21 -47 21 -89 7 -41 -13 -45 -13 -55 3 -13 20 -67 35 -85 22 -13 -9 -110
-10 -142 0 -11 3 -24 4 -30 2z m182 -31 c-3 -3 -12 -4 -19 -1 -8 3 -5 6 6 6
11 1 17 -2 13 -5z"/>
<path d="M11833 1233 c9 -2 25 -2 35 0 9 3 1 5 -18 5 -19 0 -27 -2 -17 -5z"/>
<path d="M780 1220 c0 -5 10 -10 23 -10 18 0 19 2 7 10 -19 13 -30 13 -30 0z"/>
<path d="M1100 1226 c0 -9 30 -14 35 -6 4 6 -3 10 -14 10 -12 0 -21 -2 -21 -4z"/>
<path d="M11768 1223 c6 -2 18 -2 25 0 6 3 1 5 -13 5 -14 0 -19 -2 -12 -5z"/>
<path d="M11805 1201 l-20 -8 20 -6 c11 -3 53 -9 93 -12 66 -6 72 -5 66 10 -6
14 -3 16 14 10 14 -4 22 -2 22 6 0 8 -13 10 -47 5 -91 -13 -103 -14 -109 -5
-6 10 -12 10 -39 0z"/>
<path d="M9134 1175 c-15 -11 -14 -13 10 -19 39 -10 62 6 31 20 -19 9 -28 9
-41 -1z"/>
<path d="M9270 1173 c8 -3 19 -11 23 -17 6 -7 7 -6 4 4 -2 8 -12 16 -23 17
-13 2 -15 1 -4 -4z"/>
<path d="M10145 1150 c-3 -5 -1 -10 4 -10 6 0 11 5 11 10 0 6 -2 10 -4 10 -3
0 -8 -4 -11 -10z"/>
<path d="M8030 1109 c0 -5 9 -9 20 -9 11 0 20 2 20 4 0 2 -9 6 -20 9 -11 3
-20 1 -20 -4z"/>
<path d="M8538 1083 c6 -2 18 -2 25 0 6 3 1 5 -13 5 -14 0 -19 -2 -12 -5z"/>
<path d="M8338 1073 c7 -3 16 -2 19 1 4 3 -2 6 -13 5 -11 0 -14 -3 -6 -6z"/>
<path d="M8383 1073 c9 -2 23 -2 30 0 6 3 -1 5 -18 5 -16 0 -22 -2 -12 -5z"/>
<path d="M720 1019 c-30 -3 -41 -7 -25 -7 17 -1 62 -5 100 -8 47 -4 67 -3 60
3 -14 15 -71 20 -135 12z"/>
<path d="M11232 971 c-11 -6 -9 -9 6 -13 26 -7 50 7 27 16 -20 7 -17 8 -33 -3z"/>
<path d="M11300 900 c0 -5 5 -10 10 -10 6 0 10 5 10 10 0 6 -4 10 -10 10 -5 0
-10 -4 -10 -10z"/>
<path d="M11506 903 c-12 -12 -5 -23 14 -23 11 0 20 4 20 9 0 11 -26 22 -34
14z"/>
<path d="M11808 903 c7 -3 16 -2 19 1 4 3 -2 6 -13 5 -11 0 -14 -3 -6 -6z"/>
<path d="M11708 893 c7 -3 16 -2 19 1 4 3 -2 6 -13 5 -11 0 -14 -3 -6 -6z"/>
<path d="M11940 880 c0 -13 11 -13 30 0 12 8 11 10 -7 10 -13 0 -23 -4 -23
-10z"/>
<path d="M9610 826 c0 -11 33 -36 40 -31 15 9 -1 35 -21 35 -10 0 -19 -2 -19
-4z"/>
<path d="M10570 810 c-25 -8 -25 -8 -2 -9 13 -1 21 -5 18 -10 -4 -5 -22 -5
-43 1 -95 24 -465 14 -500 -14 -7 -6 -24 -7 -38 -4 -24 6 -25 5 -13 -14 7 -11
19 -20 26 -20 8 0 10 5 6 12 -5 8 -2 9 9 5 10 -3 17 -2 17 3 0 6 11 10 25 10
25 0 37 -30 13 -30 -30 -1 29 -30 71 -35 53 -7 98 -23 69 -24 -10 -1 -18 -6
-18 -11 0 -6 -11 -8 -27 -4 -16 4 -25 3 -21 -1 4 -5 3 -14 -3 -21 -8 -10 -2
-14 28 -19 21 -3 46 -8 56 -10 23 -4 22 3 -5 25 -33 26 -17 33 31 14 51 -20
259 -17 285 5 10 9 29 11 51 8 37 -6 44 2 23 25 -7 8 -18 23 -25 35 -10 18
-10 20 8 16 11 -3 32 0 45 8 17 9 28 10 32 3 6 -9 57 -18 230 -41 23 -3 42 -9
42 -14 0 -9 152 -7 160 2 3 3 30 3 60 -1 67 -9 173 9 165 27 -2 7 0 13 4 13 5
0 11 -6 13 -12 3 -8 20 -11 49 -10 24 2 68 4 97 5 28 1 52 5 52 9 0 13 -24 22
-55 20 -16 -1 -55 7 -85 18 -70 27 -90 31 -104 22 -20 -13 -144 -17 -256 -8
-185 13 -274 15 -318 5 -56 -12 -112 -4 -112 16 0 16 -20 18 -60 5z m287 -36
c-3 -3 -12 -4 -19 -1 -8 3 -5 6 6 6 11 1 17 -2 13 -5z m-449 -33 c-7 -11 -16
-17 -21 -14 -5 3 -4 9 3 13 9 6 8 9 -6 13 -13 3 -11 5 9 6 24 1 26 -1 15 -18z
m-173 -9 c-3 -3 -11 0 -18 7 -9 10 -8 11 6 5 10 -3 15 -9 12 -12z m660 8 c3
-5 2 -10 -4 -10 -5 0 -13 5 -16 10 -3 6 -2 10 4 10 5 0 13 -4 16 -10z m-589
-11 c3 -6 15 -9 25 -6 11 3 27 -2 36 -11 14 -15 14 -17 -12 -24 -32 -8 -45 -3
-45 18 0 8 -9 14 -20 14 -11 0 -20 5 -20 10 0 13 27 13 36 -1z m869 -4 c41
-18 7 -19 -36 0 -23 10 -28 14 -14 14 11 0 34 -6 50 -14z m-179 -22 c-7 -7
-26 7 -26 19 0 6 6 6 15 -2 9 -7 13 -15 11 -17z"/>
<path d="M8775 800 c-3 -5 3 -10 14 -10 12 0 21 5 21 10 0 6 -6 10 -14 10 -8
0 -18 -4 -21 -10z"/>
<path d="M9150 804 c0 -9 46 -34 62 -34 4 0 8 7 8 15 0 8 -9 15 -19 15 -11 0
-26 3 -35 6 -9 3 -16 2 -16 -2z"/>
<path d="M8993 793 c-21 -8 38 -55 62 -49 11 3 32 6 48 6 15 0 27 5 27 10 0 6
-14 10 -31 10 -17 0 -28 4 -24 10 11 17 -17 11 -30 -7 -8 -11 -14 -13 -19 -5
-4 7 -2 12 3 12 6 0 11 5 11 10 0 10 -26 12 -47 3z"/>
<path d="M8925 760 c-15 -7 -10 -9 23 -9 26 -1 41 3 37 9 -7 12 -32 12 -60 0z"/>
<path d="M10740 700 c0 -5 19 -10 43 -9 36 1 38 2 17 9 -36 12 -60 12 -60 0z"/>
<path d="M10848 693 c12 -2 30 -2 40 0 9 3 -1 5 -23 4 -22 0 -30 -2 -17 -4z"/>
<path d="M9655 660 c3 -5 15 -10 26 -10 11 0 17 5 14 10 -3 6 -15 10 -26 10
-11 0 -17 -4 -14 -10z"/>
<path d="M11838 663 c7 -3 16 -2 19 1 4 3 -2 6 -13 5 -11 0 -14 -3 -6 -6z"/>
<path d="M11392 651 c-11 -7 -11 -9 2 -14 9 -4 23 -4 32 0 13 5 13 7 2 14 -7
5 -15 9 -18 9 -3 0 -11 -4 -18 -9z"/>
<path d="M10420 620 c0 -6 7 -10 15 -10 8 0 15 2 15 4 0 2 -7 6 -15 10 -8 3
-15 1 -15 -4z"/>
<path d="M11176 611 c-7 -10 67 -35 85 -28 10 3 8 7 -6 12 -11 3 -28 11 -37
16 -22 11 -35 12 -42 0z"/>
<path d="M11765 610 c-3 -5 3 -10 15 -10 12 0 18 5 15 10 -3 6 -10 10 -15 10
-5 0 -12 -4 -15 -10z"/>
<path d="M9703 603 c9 -2 25 -2 35 0 9 3 1 5 -18 5 -19 0 -27 -2 -17 -5z"/>
<path d="M10000 590 c-12 -8 -9 -10 13 -10 16 0 26 4 22 10 -8 12 -16 12 -35
0z"/>
<path d="M11635 590 c3 -5 11 -10 16 -10 6 0 7 5 4 10 -3 6 -11 10 -16 10 -6
0 -7 -4 -4 -10z"/>
<path d="M11285 579 c4 -5 22 -9 42 -9 45 0 40 5 -10 13 -22 3 -35 2 -32 -4z"/>
<path d="M11585 580 c-3 -5 -1 -10 4 -10 6 0 11 5 11 10 0 6 -2 10 -4 10 -3 0
-8 -4 -11 -10z"/>
<path d="M10750 570 c-25 -4 -39 -8 -32 -8 7 -1 10 -6 7 -12 -7 -11 39 -25 54
-16 5 4 12 3 14 -1 3 -5 19 -7 36 -7 90 4 88 2 37 29 -26 14 -52 24 -59 23 -7
0 -32 -4 -57 -8z m95 -20 c4 -6 -7 -10 -24 -10 -17 0 -31 5 -31 10 0 6 11 10
24 10 14 0 28 -4 31 -10z"/>
<path d="M11618 543 c7 -3 16 -2 19 1 4 3 -2 6 -13 5 -11 0 -14 -3 -6 -6z"/>
<path d="M10138 533 c12 -2 30 -2 40 0 9 3 -1 5 -23 4 -22 0 -30 -2 -17 -4z"/>
<path d="M4990 511 c-61 -9 -26 -19 63 -19 46 0 67 4 64 12 -4 13 -63 16 -127
7z"/>
<path d="M8285 510 c3 -5 15 -10 25 -10 10 0 22 5 25 10 4 6 -7 10 -25 10 -18
0 -29 -4 -25 -10z"/>
<path d="M10057 513 c-26 -7 -10 -23 24 -23 20 0 29 4 27 13 -5 13 -24 17 -51
10z"/>
<path d="M10744 505 c-17 -13 -17 -14 -2 -15 9 0 20 5 23 11 11 17 0 20 -21 4z"/>
<path d="M10837 503 c6 -14 43 -18 43 -4 0 5 -11 11 -24 13 -17 4 -23 1 -19
-9z"/>
<path d="M3500 500 c0 -5 7 -10 15 -10 8 0 15 5 15 10 0 6 -7 10 -15 10 -8 0
-15 -4 -15 -10z"/>
<path d="M9922 502 c-28 -3 -31 -6 -21 -18 13 -16 104 -20 94 -4 -11 17 -39
26 -73 22z"/>
<path d="M10790 500 c0 -5 5 -10 11 -10 5 0 7 5 4 10 -3 6 -8 10 -11 10 -2 0
-4 -4 -4 -10z"/>
<path d="M3665 490 c-3 -5 -1 -10 4 -10 6 0 11 5 11 10 0 6 -2 10 -4 10 -3 0
-8 -4 -11 -10z"/>
<path d="M5271 496 c2 -2 30 -7 63 -11 41 -5 56 -3 52 4 -4 6 -32 11 -63 11
-31 0 -54 -2 -52 -4z"/>
<path d="M3723 483 c-17 -2 -34 -11 -37 -19 -4 -11 5 -14 45 -14 42 0 50 3 47
17 -3 19 -11 21 -55 16z"/>
<path d="M5188 483 c7 -3 16 -2 19 1 4 3 -2 6 -13 5 -11 0 -14 -3 -6 -6z"/>
<path d="M10835 472 c-32 -6 -39 -19 -11 -19 15 0 29 4 32 9 8 13 3 15 -21 10z"/>
<path d="M10370 460 c-20 -6 -15 -8 26 -9 27 -1 56 -7 64 -13 8 -7 6 -3 -4 10
-20 23 -42 26 -86 12z"/>
<path d="M10535 460 c-3 -5 -1 -10 4 -10 6 0 11 5 11 10 0 6 -2 10 -4 10 -3 0
-8 -4 -11 -10z"/>
<path d="M10138 443 c6 -2 18 -2 25 0 6 3 1 5 -13 5 -14 0 -19 -2 -12 -5z"/>
<path d="M10501 447 c2 -1 13 -9 24 -17 19 -14 19 -14 6 3 -7 9 -18 17 -24 17
-6 0 -8 -1 -6 -3z"/>
<path d="M11590 440 c-13 -8 -12 -10 3 -10 9 0 17 5 17 10 0 12 -1 12 -20 0z"/>
<path d="M11728 433 c7 -3 16 -2 19 1 4 3 -2 6 -13 5 -11 0 -14 -3 -6 -6z"/>
<path d="M3570 420 c-21 -7 -18 -8 18 -9 26 -1 41 3 37 9 -7 11 -19 11 -55 0z"/>
<path d="M11798 403 c6 -2 18 -2 25 0 6 3 1 5 -13 5 -14 0 -19 -2 -12 -5z"/>
<path d="M8215 370 c3 -5 15 -10 26 -10 11 0 17 5 14 10 -3 6 -15 10 -26 10
-11 0 -17 -4 -14 -10z"/>
<path d="M11981 361 c-8 -5 -20 -7 -27 -4 -16 6 -54 -14 -54 -29 0 -7 4 -7 13
0 18 14 76 20 81 8 2 -6 5 -1 5 12 1 25 1 25 -18 13z"/>
<path d="M11755 330 c-17 -7 -15 -9 13 -11 17 -1 37 -2 44 -3 6 -1 13 4 15 9
4 13 -45 16 -72 5z"/>
<path d="M11848 323 c7 -3 16 -2 19 1 4 3 -2 6 -13 5 -11 0 -14 -3 -6 -6z"/>
<path d="M11920 320 c0 -7 7 -10 15 -7 8 4 17 2 20 -3 8 -13 45 -13 45 0 0 6
-8 10 -17 10 -10 0 -28 3 -40 6 -15 4 -23 2 -23 -6z"/>
<path d="M10565 310 c3 -5 14 -10 23 -10 15 0 15 2 2 10 -20 13 -33 13 -25 0z"/>
<path d="M9120 296 c0 -2 7 -6 15 -10 8 -3 15 -1 15 4 0 6 -7 10 -15 10 -8 0
-15 -2 -15 -4z"/>
<path d="M9965 260 c3 -5 21 -10 38 -9 31 1 31 1 7 9 -36 11 -52 11 -45 0z"/>
<path d="M3306 250 c-16 -5 -17 -8 -4 -12 16 -7 45 7 32 14 -5 3 -18 2 -28 -2z"/>
<path d="M11330 238 c0 -7 4 -19 9 -26 7 -11 9 -10 15 3 3 9 11 13 18 10 7 -4
4 1 -6 9 -24 19 -36 20 -36 4z"/>
<path d="M11420 239 c0 -5 9 -9 20 -9 11 0 20 2 20 4 0 2 -9 6 -20 9 -11 3
-20 1 -20 -4z"/>
<path d="M3828 213 c7 -3 16 -2 19 1 4 3 -2 6 -13 5 -11 0 -14 -3 -6 -6z"/>
<path d="M4080 210 c0 -5 6 -10 14 -10 8 0 18 5 21 10 3 6 -3 10 -14 10 -12 0
-21 -4 -21 -10z"/>
<path d="M11587 188 c-10 -5 -27 -8 -38 -5 -10 3 -17 1 -13 -4 3 -5 18 -9 34
-9 16 0 32 -4 35 -10 9 -15 25 -12 25 4 0 23 -23 36 -43 24z"/>
<path d="M11844 189 c-3 -5 6 -9 20 -9 13 0 33 -3 43 -7 15 -6 16 -4 5 9 -13
17 -59 21 -68 7z"/>
<path d="M4090 180 c0 -5 7 -10 16 -10 8 0 12 5 9 10 -3 6 -10 10 -16 10 -5 0
-9 -4 -9 -10z"/>
<path d="M4190 160 c0 -5 10 -10 23 -10 18 0 19 2 7 10 -19 13 -30 13 -30 0z"/>
<path d="M4240 160 c0 -5 5 -10 11 -10 5 0 7 5 4 10 -3 6 -8 10 -11 10 -2 0
-4 -4 -4 -10z"/>
<path d="M3190 129 c0 -6 5 -7 10 -4 6 3 10 -1 10 -9 0 -10 6 -13 15 -10 11 5
14 2 8 -12 -3 -11 -11 -22 -16 -25 -12 -8 22 -61 34 -53 5 3 9 0 9 -5 0 -6 11
-11 25 -11 21 0 25 5 25 30 0 17 -4 30 -8 30 -4 0 -6 16 -4 35 4 31 1 35 -19
36 -13 1 -39 3 -56 5 -18 1 -33 -2 -33 -7z m65 -69 c3 -5 1 -10 -4 -10 -6 0
-11 5 -11 10 0 6 2 10 4 10 3 0 8 -4 11 -10z"/>
<path d="M3324 109 c-3 -6 -1 -16 5 -22 8 -8 11 -5 11 11 0 24 -5 28 -16 11z"/>
<path d="M3545 90 c-4 -6 11 -10 39 -10 25 0 48 5 51 10 4 6 -11 10 -39 10
-25 0 -48 -4 -51 -10z"/>
<path d="M3665 90 c-3 -5 1 -10 9 -10 9 0 13 -6 10 -14 -3 -8 -13 -12 -25 -9
-13 4 -19 0 -19 -10 0 -18 -44 -34 -82 -29 -47 6 -31 22 22 22 28 0 50 5 50
10 0 18 -121 15 -132 -4 -5 -7 -12 -4 -22 9 -16 21 -42 10 -28 -12 21 -33 76
-41 297 -42 215 -2 221 -1 222 18 1 12 -10 30 -25 42 -17 14 -20 20 -9 16 13
-5 17 -3 14 5 -2 8 -15 11 -33 8 -42 -6 -123 -5 -169 3 l-40 6 34 -12 c28 -11
31 -15 17 -20 -24 -9 -66 -9 -65 1 5 29 -13 44 -26 22z"/>
<path d="M6556 92 c-14 -14 11 -22 67 -22 47 0 58 3 49 12 -12 12 -107 20
-116 10z"/>
<path d="M4035 80 c-3 -5 1 -10 10 -10 9 0 13 5 10 10 -3 6 -8 10 -10 10 -2 0
-7 -4 -10 -10z"/>
<path d="M6700 80 c-11 -7 -7 -10 18 -10 17 0 32 5 32 10 0 13 -30 13 -50 0z"/>
<path d="M3350 66 c0 -9 5 -16 10 -16 6 0 10 4 10 9 0 6 -4 13 -10 16 -5 3
-10 -1 -10 -9z"/>
<path d="M4080 69 c0 -5 14 -9 32 -9 36 0 31 11 -7 15 -14 2 -25 -1 -25 -6z"/>
<path d="M7338 73 c7 -3 16 -2 19 1 4 3 -2 6 -13 5 -11 0 -14 -3 -6 -6z"/>
<path d="M3140 50 c0 -5 5 -10 11 -10 5 0 7 5 4 10 -3 6 -8 10 -11 10 -2 0 -4
-4 -4 -10z"/>
<path d="M3385 36 c-9 -13 -24 -27 -33 -29 -9 -3 -2 -5 15 -6 27 -1 34 3 39
24 9 36 -1 41 -21 11z"/>
<path d="M4040 35 c0 -8 4 -15 10 -15 5 0 7 7 4 15 -4 8 -8 15 -10 15 -2 0 -4
-7 -4 -15z"/>
<path d="M5810 15 c0 -8 7 -15 16 -15 14 0 14 3 4 15 -7 8 -14 15 -16 15 -2 0
-4 -7 -4 -15z"/>
<path d="M4010 10 c0 -5 5 -10 11 -10 5 0 7 5 4 10 -3 6 -8 10 -11 10 -2 0 -4
-4 -4 -10z"/>
<path d="M8985 10 c-3 -5 -2 -10 4 -10 5 0 13 5 16 10 3 6 2 10 -4 10 -5 0
-13 -4 -16 -10z"/>
<path d="M4098 3 c7 -3 16 -2 19 1 4 3 -2 6 -13 5 -11 0 -14 -3 -6 -6z"/>
<path d="M11898 3 c7 -3 16 -2 19 1 4 3 -2 6 -13 5 -11 0 -14 -3 -6 -6z"/>
</g>
</svg>
