<?xml version="1.0" standalone="no"?>
<!DOCTYPE svg PUBLIC "-//W3C//DTD SVG 20010904//EN"
 "http://www.w3.org/TR/2001/REC-SVG-20010904/DTD/svg10.dtd">
<svg version="1.0" xmlns="http://www.w3.org/2000/svg"
 width="180" height="200" viewBox="0 0 1200.000000 675.000000"
 preserveAspectRatio="xMidYMid meet">

<g transform="translate(0.000000,675.000000) scale(0.100000,-0.100000)"
fill="#000000" stroke="none">
<path d="M5940 5894 c-146 -31 -355 -126 -465 -210 -30 -23 -33 -29 -23 -43
11 -14 11 -14 -3 -3 -14 11 -22 9 -47 -13 -17 -14 -47 -49 -67 -78 -21 -31
-26 -41 -11 -24 15 15 26 24 26 20 1 -4 10 3 22 17 14 16 22 21 25 13 3 -7 9
-13 15 -13 6 0 3 10 -8 22 -10 12 -13 18 -5 13 8 -4 17 -2 23 6 7 10 8 9 4 -5
-7 -19 -6 -19 13 -2 22 20 36 7 26 -25 -5 -16 -4 -20 6 -15 8 4 6 1 -4 -7 -10
-8 -13 -17 -8 -18 7 -3 6 -20 -4 -51 -22 -74 -37 -200 -25 -212 7 -7 10 4 10
35 1 96 53 259 84 259 8 0 16 6 19 13 3 8 11 3 25 -13 20 -24 21 -24 28 -5 14
37 82 122 136 169 29 25 94 67 143 91 101 50 104 54 20 25 -74 -25 -84 -19
-13 8 73 27 156 42 247 43 54 1 69 3 51 9 -40 13 -169 10 -240 -6z m-160 -98
c0 -3 -4 -8 -10 -11 -5 -3 -10 -1 -10 4 0 6 5 11 10 11 6 0 10 -2 10 -4z"/>
<path d="M6174 5830 c-201 -53 -354 -186 -407 -355 -9 -27 -19 -89 -23 -137
l-6 -86 -32 -6 c-17 -3 -47 -1 -66 4 -19 6 -57 9 -85 9 -35 -1 -43 -3 -25 -8
14 -3 25 -13 24 -21 0 -8 -2 -29 -2 -46 -2 -27 -7 -32 -41 -42 -48 -15 -54
-15 -46 1 4 6 0 4 -8 -5 -8 -10 -20 -18 -27 -18 -10 0 -10 3 0 15 10 13 11 18
1 28 -10 9 -18 6 -37 -16 -13 -15 -24 -36 -24 -45 0 -14 -91 -70 -161 -100 -4
-2 -9 7 -11 20 -3 14 -6 7 -9 -21 -3 -24 0 -53 6 -64 11 -23 104 -63 114 -50
3 4 17 14 30 21 20 12 25 12 32 0 7 -10 9 -9 9 4 0 17 77 65 87 54 3 -3 -6
-10 -20 -17 -25 -11 -25 -12 -6 -33 24 -25 18 -60 -16 -96 -20 -22 -22 -27
-10 -43 8 -12 15 -14 20 -8 13 22 25 10 25 -24 0 -41 -25 -85 -48 -85 -12 0
-14 -11 -10 -65 5 -58 18 -90 107 -271 56 -114 100 -211 98 -218 -3 -6 -47
-22 -98 -35 -99 -25 -230 -66 -264 -81 -11 -5 -42 -17 -70 -26 -45 -15 -52
-15 -80 0 -16 9 -61 27 -100 42 -76 28 -105 48 -105 73 0 9 7 46 17 82 16 65
16 67 -6 127 -23 60 -65 109 -144 167 l-27 20 16 59 c16 62 13 100 -13 128 -8
10 -13 23 -10 31 9 24 -98 67 -173 68 -36 1 -83 6 -105 12 -22 5 -51 11 -65
13 -14 2 -79 17 -144 33 -65 17 -122 28 -126 26 -8 -5 -162 37 -205 56 -16 7
-38 21 -48 31 -9 9 -24 15 -33 11 -12 -5 -12 -8 6 -20 28 -20 26 -63 -8 -151
-19 -50 -36 -77 -52 -85 -13 -7 -25 -19 -28 -27 -3 -9 1 -8 10 4 8 10 17 15
20 10 7 -12 -66 -177 -80 -182 -7 -2 -12 -14 -12 -26 0 -40 -21 -57 -57 -47
-28 8 -33 7 -33 -8 0 -9 -5 -22 -12 -29 -16 -16 -3 -26 57 -42 28 -7 59 -19
70 -27 11 -7 31 -14 45 -14 16 -1 19 -3 8 -6 -10 -2 -51 3 -91 12 l-74 16 -34
-30 c-37 -34 -38 -35 -59 -21 -10 6 -15 25 -15 52 0 32 -4 43 -15 43 -8 0 -16
-7 -16 -15 -1 -8 -2 -21 -3 -27 0 -7 -10 -13 -22 -13 -11 0 -18 -4 -15 -9 10
-16 157 -91 178 -91 31 0 232 -50 242 -61 14 -13 -20 -11 -84 6 -50 13 -56 13
-67 -2 -20 -26 -16 -32 25 -38 20 -4 52 -11 71 -16 19 -4 38 -6 43 -3 9 6 9
-57 -1 -138 -5 -42 -13 -62 -31 -77 -15 -13 -18 -19 -8 -15 15 5 16 2 5 -26
-10 -25 -9 -33 3 -40 26 -17 37 -11 33 18 -6 45 9 57 47 37 26 -13 31 -21 25
-38 -4 -12 -6 -34 -6 -49 1 -31 -2 -33 -30 -17 -11 5 -16 15 -13 21 4 7 3 8
-4 4 -6 -4 -29 3 -52 14 -22 11 -40 17 -40 12 0 -12 169 -90 210 -97 96 -17
110 -24 110 -54 0 -16 6 -34 14 -40 8 -7 18 -27 21 -44 10 -51 27 -90 55 -127
15 -19 39 -66 54 -105 74 -194 106 -239 219 -315 85 -57 100 -63 192 -81 112
-21 255 -24 387 -8 85 10 88 10 120 -14 18 -14 61 -39 95 -57 47 -25 60 -36
55 -49 -5 -14 -4 -14 13 -1 17 14 18 13 12 -3 -5 -13 2 -23 26 -37 34 -21 34
-22 37 -142 2 -55 4 -59 41 -86 31 -24 57 -32 126 -41 47 -6 87 -12 88 -13 49
-67 85 -132 77 -137 -20 -12 -24 -103 -8 -174 13 -57 23 -75 58 -109 48 -46
86 -73 94 -65 3 2 -2 22 -10 42 -23 53 -21 85 4 85 11 0 20 -7 20 -15 0 -8 -4
-15 -10 -15 -18 0 -11 -30 45 -173 32 -84 51 -145 45 -151 -10 -10 -27 28 -55
119 -19 64 -42 102 -29 50 17 -71 77 -231 90 -241 10 -8 13 -21 9 -37 -8 -30
8 -43 25 -22 7 8 19 15 27 15 8 0 11 4 8 10 -3 6 1 7 9 4 25 -9 19 -19 -26
-49 -24 -15 -72 -56 -108 -90 -36 -34 -119 -113 -184 -176 -66 -63 -141 -135
-168 -160 -30 -29 -48 -40 -48 -31 0 9 8 25 18 36 l17 21 -24 -20 c-50 -41
-60 -54 -48 -59 8 -3 6 -10 -7 -20 -21 -17 -30 -8 229 -245 89 -81 91 -82 136
-78 l47 4 12 -56 c7 -31 19 -64 27 -73 12 -13 14 -27 8 -55 -13 -63 -12 -118
3 -116 16 4 15 0 -7 -26 -24 -28 -18 -56 23 -99 30 -33 132 -92 159 -92 7 0
22 -7 33 -15 19 -15 18 -16 -8 -38 -34 -28 -42 -63 -28 -116 8 -30 16 -41 30
-41 10 0 22 4 25 10 13 20 22 9 31 -37 l9 -48 283 -3 c170 -1 282 1 282 7 0 5
-28 23 -62 40 -35 17 -81 42 -103 56 -22 14 -48 25 -57 25 -10 0 -18 5 -18 10
0 6 -5 10 -11 10 -6 0 -52 20 -103 45 -52 25 -101 45 -110 45 -20 0 -20 18 0
59 11 22 20 29 27 23 22 -18 161 -63 179 -59 19 5 42 -15 30 -28 -4 -4 5 -5
20 -1 19 4 31 1 40 -11 16 -21 33 -31 153 -91 49 -24 122 -64 161 -88 l71 -44
552 0 553 0 -17 27 c-32 49 -57 93 -52 93 2 0 22 -27 43 -60 l38 -60 392 0
392 0 -8 33 c-5 17 -18 97 -30 177 -12 80 -26 172 -31 205 -22 136 -31 313
-39 735 -10 512 -27 751 -74 1012 -8 48 -20 138 -26 200 -15 152 -45 343 -81
518 -16 80 -32 157 -35 171 -8 45 -72 291 -88 341 -14 46 -14 49 8 75 47 57
96 136 106 171 6 20 15 88 20 151 8 103 7 120 -11 175 -74 222 -263 448 -470
563 -67 37 -180 57 -296 51 l-78 -3 -120 -90 c-146 -109 -140 -104 -238 -190
-44 -38 -89 -78 -101 -87 -21 -16 -21 -21 -13 -91 11 -79 10 -80 -58 -152 -11
-12 -63 -70 -114 -131 -52 -60 -99 -113 -106 -119 -6 -5 -23 -27 -39 -47 l-28
-37 56 -86 c31 -47 54 -85 51 -85 -5 0 -163 220 -168 233 -1 4 -28 12 -59 16
-31 4 -55 4 -52 -1 3 -4 -2 -8 -10 -8 -26 0 -18 -25 12 -36 l27 -10 -23 -13
c-20 -11 -26 -10 -38 6 -7 10 -14 13 -14 6 0 -7 -21 -24 -47 -39 -52 -30 -179
-144 -175 -157 1 -5 -1 -6 -6 -3 -5 3 -22 -9 -38 -27 -16 -18 -19 -24 -6 -13
12 11 22 16 22 11 0 -16 -35 -34 -47 -24 -6 6 -22 11 -35 12 -13 2 -61 25
-107 52 -47 28 -143 82 -215 120 -71 39 -129 74 -128 80 0 5 29 17 64 25 35 9
83 26 107 38 25 12 51 22 58 22 7 0 13 5 13 12 0 9 3 9 12 0 6 -6 10 -13 7
-15 -2 -1 -29 -24 -61 -50 -31 -26 -65 -47 -75 -47 -38 0 -32 -13 17 -37 28
-13 48 -28 45 -33 -3 -5 0 -12 6 -16 8 -4 9 -3 5 4 -11 18 -1 15 77 -25 92
-48 87 -46 87 -35 0 6 -7 12 -15 14 -20 4 99 164 121 161 10 0 13 4 10 13 -4
10 0 14 11 12 12 -2 41 30 93 104 41 59 78 110 81 113 3 3 18 1 33 -4 29 -12
35 -4 11 13 -14 10 -7 22 45 84 34 39 66 72 71 72 6 0 8 4 4 9 -3 5 -1 12 4
15 12 8 7 -24 -5 -32 -6 -4 -20 -24 -33 -45 -21 -34 -22 -39 -8 -50 9 -7 17
-25 19 -42 4 -36 31 -45 59 -19 27 24 24 30 -26 51 -25 10 -45 22 -45 27 0 5
3 7 6 3 3 -3 23 15 44 41 33 41 36 49 24 63 -18 20 -9 29 28 29 29 0 53 30 30
38 -18 6 -4 22 19 22 13 0 18 -4 13 -12 -5 -8 -2 -9 9 -5 10 3 17 3 17 -1 0
-14 67 -38 86 -31 18 6 34 -5 34 -25 0 -4 -16 -5 -35 -2 -41 8 -57 -13 -31
-39 18 -18 21 -29 6 -20 -5 3 -10 1 -10 -4 0 -14 -37 -14 -45 -1 -4 6 -11 8
-16 4 -15 -9 10 -34 27 -27 11 4 12 0 3 -26 -6 -17 -15 -34 -20 -37 -5 -3 -9
-11 -9 -19 0 -16 32 -12 64 8 11 7 34 18 49 25 l28 12 -26 -35 c-15 -19 -24
-39 -20 -45 4 -6 1 -9 -6 -8 -11 3 -71 -74 -81 -102 -3 -11 -26 -18 -65 -19
-16 -1 -23 -7 -23 -20 0 -11 -10 -22 -22 -26 -19 -6 -16 -9 22 -15 25 -4 46
-3 48 1 2 5 13 19 24 31 15 17 18 19 14 6 -3 -10 -4 -18 -2 -18 6 0 80 104 95
132 8 15 18 25 22 22 4 -2 11 1 15 7 4 8 3 9 -4 5 -17 -10 -15 3 3 20 8 9 15
12 15 8 0 -3 7 -1 15 6 9 7 14 19 11 26 -3 7 0 11 7 9 7 -3 27 15 45 39 31 42
32 47 30 124 -2 58 2 85 12 97 24 29 210 150 298 194 46 23 80 46 77 51 -3 6
-23 10 -44 10 -26 0 -44 7 -57 21 -36 40 -71 51 -123 40 -26 -5 -57 -7 -69 -4
-13 3 -22 1 -22 -6 0 -20 -17 -11 -30 17 l-13 27 -18 -40 c-12 -28 -18 -34
-18 -19 -1 11 5 26 12 33 10 11 8 12 -10 6 -16 -4 -23 -2 -23 8 0 21 -118 22
-167 2 -24 -10 -48 -13 -68 -9 -16 4 -43 8 -60 8 -47 1 -43 18 14 58 74 52
151 172 151 235 0 16 7 55 15 88 11 42 13 60 4 65 -6 4 -10 10 -9 14 3 11 -12
70 -20 81 -17 23 -42 146 -39 189 3 30 0 46 -8 46 -19 0 -108 50 -139 78 -16
15 -43 45 -59 67 -17 22 -32 42 -35 45 -3 3 -30 37 -61 75 -112 140 -168 183
-274 211 -65 18 -95 17 -181 -6z m267 -441 c8 -15 8 -24 0 -32 -6 -6 -11 -17
-11 -24 0 -17 27 -17 33 0 2 6 7 9 11 6 10 -9 -24 -69 -40 -69 -8 0 -14 5 -14
11 0 6 -6 9 -14 6 -7 -3 -19 0 -25 6 -16 16 -14 32 2 18 15 -12 27 -5 27 17 0
10 -7 13 -21 9 -27 -7 -48 35 -29 58 19 23 67 19 81 -6z m394 -214 c-32 -27
-45 -31 -45 -15 0 10 48 39 65 39 6 0 -3 -11 -20 -24z m-150 -91 c-31 -24 -55
-36 -55 -27 0 10 51 42 65 42 6 0 1 -7 -10 -15z m151 -19 c4 -8 1 -22 -6 -30
-14 -17 -35 -20 -24 -4 3 6 -5 3 -20 -6 -14 -10 -26 -21 -26 -25 0 -14 51
-120 58 -120 4 0 24 11 45 25 46 32 50 11 4 -25 -24 -20 -43 -25 -87 -25 -30
-1 -62 -4 -71 -9 -11 -5 -18 -2 -23 9 -3 10 -1 15 7 13 6 -1 22 3 35 10 12 7
32 10 42 7 25 -8 25 9 0 55 l-18 35 -10 -26 c-12 -31 -53 -59 -84 -59 -22 1
-22 1 4 15 16 9 33 32 44 60 11 31 31 56 63 80 52 39 59 41 67 20z m144 -48
c0 -5 -4 -5 -10 -2 -5 3 -10 14 -10 23 0 15 2 15 10 2 5 -8 10 -19 10 -23z
m-110 -42 c0 -5 -5 -3 -10 5 -5 8 -10 20 -10 25 0 6 5 3 10 -5 5 -8 10 -19 10
-25z m-347 -8 c-19 -84 -25 -97 -41 -97 -11 0 -18 8 -19 20 -1 11 4 20 13 20
9 0 14 11 14 33 0 33 16 60 31 52 4 -3 5 -15 2 -28z m451 -41 c-3 -21 -9 -35
-11 -32 -3 3 -2 21 1 42 4 20 10 34 12 31 3 -3 2 -21 -2 -41z m-574 -36 c0 -5
-7 -10 -15 -10 -8 0 -15 5 -15 10 0 6 7 10 15 10 8 0 15 -4 15 -10z m255 -20
c3 -5 1 -10 -4 -10 -6 0 -11 5 -11 10 0 6 2 10 4 10 3 0 8 -4 11 -10z m-915
-77 c-52 -36 -80 -69 -82 -94 -2 -23 -5 -25 -20 -15 -12 7 -16 17 -12 31 10
31 24 44 78 76 52 29 77 31 36 2z m760 10 c0 -9 -80 -56 -85 -51 -7 7 11 25
40 41 34 18 45 21 45 10z m385 -3 c-3 -5 -12 -10 -18 -10 -7 0 -6 4 3 10 19
12 23 12 15 0z m-1105 -55 c-7 -8 -18 -15 -24 -15 -6 0 -2 7 8 15 25 19 32 19
16 0z m660 -45 c-8 -5 -17 -7 -19 -4 -3 3 1 9 9 14 8 5 17 7 19 4 3 -3 -1 -9
-9 -14z m100 -5 c0 -8 8 -19 18 -24 9 -6 12 -11 6 -11 -13 0 -28 17 -37 43 -4
11 -3 16 3 12 6 -3 10 -12 10 -20z m-990 -27 c0 -5 -11 -8 -25 -8 -14 0 -25 3
-25 8 0 4 11 7 25 7 14 0 25 -3 25 -7z m550 -129 c0 -28 -36 -38 -140 -39
l-105 0 30 25 c27 22 39 24 123 25 62 0 92 -4 92 -11z m986 -51 c-9 -12 -16
-19 -16 -15 0 11 24 47 28 42 2 -2 -3 -14 -12 -27z m-1046 -17 c0 -4 -34 -7
-75 -7 -68 1 -83 4 -71 17 7 7 146 -2 146 -10z m-1300 -41 c13 -24 13 -60 0
-60 -5 0 -10 6 -11 13 -3 44 -8 59 -25 73 -18 14 -18 15 3 4 13 -6 27 -19 33
-30z m-901 -156 c10 -9 -35 -3 -49 6 -11 8 -7 9 15 4 17 -4 32 -8 34 -10z
m2231 -8 c0 -2 -8 -10 -17 -17 -16 -13 -17 -12 -4 4 13 16 21 21 21 13z
m-1229 -33 c13 -15 12 -15 -8 -4 -24 12 -29 21 -14 21 5 0 15 -7 22 -17z
m1169 2 c-7 -8 -17 -15 -22 -15 -6 0 -5 7 2 15 7 8 17 15 22 15 6 0 5 -7 -2
-15z m2075 -23 c-4 -10 0 -12 11 -8 9 4 28 -4 46 -19 16 -14 24 -25 17 -25 -7
0 -30 -17 -51 -37 -21 -20 -38 -32 -38 -25 0 7 6 15 14 18 14 6 16 50 3 72 -6
9 -14 9 -30 1 -22 -10 -22 -10 -2 6 17 13 18 17 5 25 -11 7 -10 9 8 7 15 -1
21 -6 17 -15z m-1159 -39 c-7 -7 -26 7 -26 19 0 6 6 6 15 -2 9 -7 13 -15 11
-17z m1107 -5 c3 -10 9 -10 24 -1 18 10 21 9 21 -13 0 -13 -4 -27 -9 -30 -5
-3 -9 2 -9 12 0 12 -3 14 -13 5 -15 -12 -37 3 -37 26 0 17 17 17 23 1z m-3480
-18 c-3 -12 -8 -19 -11 -16 -5 6 5 36 12 36 2 0 2 -9 -1 -20z m3377 0 c0 -5
-4 -10 -10 -10 -5 0 -10 5 -10 10 0 6 5 10 10 10 6 0 10 -4 10 -10z m48 -9 c3
-8 0 -11 -7 -7 -6 4 -11 0 -11 -9 0 -10 -5 -13 -12 -9 -6 4 -8 3 -5 -3 4 -6 0
-16 -8 -23 -13 -10 -15 -9 -15 9 0 47 45 80 58 42z m214 -23 c-9 -9 -12 -7
-12 12 0 19 3 21 12 12 9 -9 9 -15 0 -24z m-1069 -13 c-3 -9 -8 -14 -10 -11
-3 3 -2 9 2 15 9 16 15 13 8 -4z m999 -7 c-7 -7 -12 -8 -12 -2 0 14 12 26 19
19 2 -3 -1 -11 -7 -17z m-752 -31 c0 -43 33 -157 51 -178 18 -21 23 -29 16
-29 -2 0 -17 12 -33 28 -24 21 -33 41 -42 93 -15 83 -16 140 -2 119 5 -8 10
-23 10 -33z m687 21 c-3 -8 -6 -5 -6 6 -1 11 2 17 5 13 3 -3 4 -12 1 -19z
m110 -5 c0 -16 -2 -21 -7 -13 -6 9 -14 8 -36 -6 l-29 -19 30 32 c37 39 40 40
42 6z m-1107 13 c0 -2 -7 -9 -15 -16 -13 -11 -14 -10 -9 4 5 14 24 23 24 12z
m918 -26 c14 -23 10 -25 -19 -9 -11 5 -17 14 -14 20 9 14 19 11 33 -11z m252
16 c0 -3 -4 -8 -10 -11 -5 -3 -10 -1 -10 4 0 6 5 11 10 11 6 0 10 -2 10 -4z
m-235 -59 c-8 -13 -13 -26 -10 -29 9 -9 -23 -30 -35 -23 -19 12 -10 33 23 54
40 26 41 26 22 -2z m88 8 c-3 -9 -8 -14 -10 -11 -3 3 -2 9 2 15 9 16 15 13 8
-4z m67 -17 c0 -5 -5 -8 -11 -8 -5 0 -7 5 -4 10 3 6 -2 10 -12 10 -15 0 -16 2
-3 10 14 8 29 -3 30 -22z m95 9 c6 -5 2 -6 -8 -3 -10 3 -28 1 -40 -5 -19 -9
-18 -7 3 10 14 11 27 17 30 13 3 -4 10 -11 15 -15z m-632 -17 c3 -11 1 -18 -4
-14 -5 3 -9 12 -9 20 0 20 7 17 13 -6z m-2163 -1 c0 -5 -4 -7 -10 -4 -5 3 -10
1 -10 -4 0 -6 -15 -12 -32 -12 -31 -2 -31 -2 -5 -6 28 -4 38 -23 13 -23 -8 0
-16 -5 -18 -11 -3 -8 -16 -6 -42 6 -31 15 -44 16 -74 7 -20 -6 -38 -10 -40 -7
-9 9 11 25 31 25 12 0 51 9 87 19 76 23 100 25 100 10z m2639 -10 c-30 -23
-34 -23 -36 -1 -1 12 7 17 29 18 l31 1 -24 -18z m131 8 c0 -2 -10 -12 -22 -23
l-23 -19 19 23 c18 21 26 27 26 19z m-196 -49 c4 7 13 12 19 12 7 0 3 -7 -7
-15 -21 -16 -52 -2 -39 18 4 6 9 3 13 -8 5 -13 9 -15 14 -7z m-2177 -84 c-7
-22 -18 -46 -25 -54 -7 -8 -22 -26 -33 -40 l-21 -25 8 30 c8 31 73 140 79 133
2 -2 -1 -22 -8 -44z m693 42 c0 -3 -4 -8 -10 -11 -5 -3 -10 -1 -10 4 0 6 5 11
10 11 6 0 10 -2 10 -4z m-1163 -21 c32 -8 105 -36 163 -61 140 -61 311 -146
280 -138 -14 4 -72 29 -130 56 -179 85 -262 120 -335 138 -38 10 -62 19 -53
19 9 1 43 -6 75 -14z m486 -65 c-3 -11 -7 -20 -9 -20 -2 0 -4 9 -4 20 0 11 4
20 9 20 5 0 7 -9 4 -20z m534 -12 c-8 -13 -23 -32 -33 -43 -11 -11 -44 -53
-74 -92 -30 -40 -58 -73 -63 -73 -4 0 27 46 70 101 43 56 84 110 92 120 19 27
27 15 8 -13z m1091 12 c7 -11 9 -20 4 -20 -4 0 -13 9 -20 20 -7 11 -9 20 -4
20 4 0 13 -9 20 -20z m-1218 -10 c0 -5 -7 -10 -16 -10 -8 0 -12 5 -9 10 3 6
10 10 16 10 5 0 9 -4 9 -10z m1255 -40 c-3 -5 -10 -10 -16 -10 -5 0 -9 5 -9
10 0 6 7 10 16 10 8 0 12 -4 9 -10z m-2406 -14 c9 -11 6 -12 -14 -8 -14 2 -22
8 -19 13 8 13 20 11 33 -5z m2504 -45 c-9 -12 -25 20 -18 36 7 16 9 15 15 -7
4 -14 5 -27 3 -29z m-2539 -7 c3 -8 2 -12 -3 -9 -5 3 -12 1 -16 -5 -8 -13 -25
-3 -25 16 0 19 36 18 44 -2z m206 -36 c0 -4 -16 2 -35 13 -19 12 -35 23 -35
25 0 2 16 -4 35 -13 19 -9 35 -20 35 -25z m890 -82 c0 -2 -8 -10 -17 -17 -16
-13 -17 -12 -4 4 13 16 21 21 21 13z m187 -223 c-11 -10 -26 8 -20 23 5 15 7
14 15 -1 6 -9 7 -19 5 -22z m-207 -314 c-7 -11 -14 -18 -17 -15 -3 3 0 12 7
21 18 21 23 19 10 -6z m-40 -53 c0 -2 -8 -10 -17 -17 -16 -13 -17 -12 -4 4 13
16 21 21 21 13z m-30 -46 c0 -5 -5 -10 -11 -10 -5 0 -7 5 -4 10 3 6 8 10 11
10 2 0 4 -4 4 -10z m2231 -102 c-8 -28 -9 -30 -10 -8 -1 34 12 80 17 58 2 -9
-1 -31 -7 -50z m14 -305 c-10 -56 -21 -44 -14 15 4 31 9 91 10 132 l3 75 4
-95 c1 -52 0 -109 -3 -127z m-750 18 c-3 -6 -11 -11 -17 -11 -6 0 -6 6 2 15
14 17 26 13 15 -4z m165 5 c0 -2 -7 -7 -16 -10 -8 -3 -12 -2 -9 4 6 10 25 14
25 6z m-18 -100 c17 -12 18 -16 6 -16 -17 0 -48 41 -47 62 0 7 4 3 9 -8 5 -12
19 -29 32 -38z m-1972 -48 c0 -6 -7 -5 -15 2 -8 7 -15 17 -15 22 0 6 7 5 15
-2 8 -7 15 -17 15 -22z m2514 -28 c-10 -16 -20 -27 -22 -25 -5 5 26 55 34 55
3 0 -3 -13 -12 -30z m-2489 -10 c15 -17 16 -20 3 -20 -9 0 -18 9 -21 20 -3 11
-4 20 -3 20 2 0 11 -9 21 -20z m2132 -66 c-3 -3 -12 -4 -19 -1 -8 3 -5 6 6 6
11 1 17 -2 13 -5z m-1117 -149 c0 -2 -10 -9 -22 -15 -22 -11 -22 -10 -4 4 21
17 26 19 26 11z m-855 -25 c3 -5 -1 -10 -9 -10 -9 0 -16 5 -16 10 0 6 4 10 9
10 6 0 13 -4 16 -10z m790 -16 c-26 -20 -55 -36 -55 -30 0 5 63 46 70 46 3 -1
-4 -8 -15 -16z m513 -134 c-13 -20 -28 -27 -28 -12 0 10 22 32 32 32 5 0 3 -9
-4 -20z m-728 -14 c0 -3 -4 -8 -10 -11 -5 -3 -10 -1 -10 4 0 6 5 11 10 11 6 0
10 -2 10 -4z m-200 -89 c0 -8 -8 -21 -17 -29 -37 -31 -274 -170 -280 -164 -8
8 15 25 142 102 55 34 109 71 120 82 24 24 35 27 35 9z m95 -27 l20 -9 -20 0
c-11 -1 -46 -17 -78 -36 -62 -37 -88 -45 -67 -20 12 14 110 75 120 74 3 0 14
-4 25 -9z m871 -127 c-7 -7 -26 7 -26 19 0 6 6 6 15 -2 9 -7 13 -15 11 -17z
m-1308 -17 c12 -28 5 -41 -15 -25 -14 13 -18 49 -5 49 5 0 14 -11 20 -24z
m102 -114 c0 -10 -62 -44 -68 -37 -8 8 51 54 60 48 5 -2 8 -7 8 -11z m2054
-196 c1 -74 -2 -132 -6 -129 -5 2 -8 65 -8 140 0 75 3 133 6 130 4 -4 7 -67 8
-141z m-2179 113 c-7 -18 -67 -60 -74 -53 -4 3 12 21 33 40 40 35 51 38 41 13z
m619 -35 c-69 -44 -114 -60 -84 -30 24 24 134 83 144 78 5 -3 -22 -24 -60 -48z
m1285 -47 c0 -21 -1 -21 -9 -2 -12 28 -12 37 0 30 6 -3 10 -16 9 -28z m-2045
-51 c-37 -44 -64 -49 -34 -6 21 29 51 52 59 45 2 -3 -9 -20 -25 -39z m401 -1
c-16 -14 -36 -25 -44 -25 -17 0 -11 7 26 31 41 26 53 22 18 -6z m1569 -32 c4
-4 -3 -15 -16 -24 -12 -10 -20 -20 -17 -24 4 -3 14 1 23 10 9 9 21 13 27 9 8
-5 9 -3 5 5 -6 9 1 12 25 9 40 -4 41 -22 2 -26 -15 -2 -33 -8 -40 -14 -7 -5
-17 -7 -23 -3 -5 3 -10 2 -10 -3 0 -5 -11 -7 -25 -4 -16 3 -25 11 -25 23 0 11
-7 22 -15 25 -8 4 -12 10 -9 15 6 11 87 12 98 2z m-1694 -58 c-13 -14 -30 -25
-37 -25 -8 0 -2 11 14 25 37 32 53 32 23 0z m1610 -7 c0 -5 -4 -8 -10 -8 -5 0
-10 10 -10 23 0 18 2 19 10 7 5 -8 10 -18 10 -22z m-1997 -21 c-29 -33 -43
-43 -43 -29 0 12 55 69 63 65 4 -3 -5 -19 -20 -36z m1857 -7 c-13 -11 -27 -20
-33 -20 -12 0 35 39 47 40 5 0 -1 -9 -14 -20z m87 -3 c3 -4 -5 -7 -20 -7 -14
0 -28 4 -31 8 -5 9 41 8 51 -1z m278 -7 c17 -7 15 -9 -10 -8 -16 0 -43 4 -60
8 -29 7 -28 8 10 8 22 0 49 -3 60 -8z m88 -7 c-7 -2 -21 -2 -30 0 -10 3 -4 5
12 5 17 0 24 -2 18 -5z m-1699 -60 c-16 -66 -10 -113 13 -113 9 0 -3 -13 -25
-30 -46 -33 -70 -41 -35 -11 25 21 42 71 24 71 -6 0 -16 -11 -21 -25 -6 -16
-17 -25 -31 -25 -17 0 -19 -3 -10 -14 8 -10 6 -24 -10 -60 -11 -26 -23 -78
-26 -116 -5 -65 -8 -70 -29 -70 -23 0 -24 4 -24 59 0 45 7 71 28 113 19 36 26
60 22 73 -4 11 -4 25 1 31 6 8 2 11 -13 10 -17 -1 -23 4 -23 21 0 15 24 39 80
81 44 34 83 61 86 61 4 1 0 -25 -7 -56z m-339 7 c-16 -16 -31 -28 -34 -25 -2
3 8 19 24 35 16 16 31 28 34 25 2 -3 -8 -19 -24 -35z m-382 -45 c-28 -34 -43
-43 -43 -26 0 17 51 71 61 65 5 -3 -3 -21 -18 -39z m301 -37 c-13 -24 -47 -58
-58 -58 -5 0 5 16 24 35 35 37 46 44 34 23z m711 -18 c4 -6 1 -26 -5 -46 -9
-28 -15 -33 -25 -24 -8 7 -20 8 -26 4 -9 -5 -7 -9 6 -14 19 -7 18 -7 -3 -19
-20 -10 -22 -9 -23 11 -2 30 -2 30 6 51 5 12 2 17 -11 18 -17 0 -17 1 1 8 11
5 23 7 28 4 4 -2 7 1 7 6 0 14 37 14 45 1z m-187 -49 c6 -16 8 -32 5 -35 -12
-11 -23 -6 -23 11 0 9 -7 25 -17 35 -15 17 -15 18 4 18 14 0 24 -10 31 -29z
m-73 -2 c-11 -17 25 -99 73 -167 24 -35 43 -65 41 -67 -2 -2 -21 -6 -41 -10
-31 -6 -38 -4 -38 8 0 8 -4 17 -9 19 -12 4 -53 116 -55 150 0 14 -4 24 -7 22
-3 -2 -4 7 -1 21 2 13 12 26 21 28 9 3 17 5 19 6 2 0 0 -4 -3 -10z m-576 -73
c-13 -14 -27 -26 -32 -26 -5 0 4 15 20 33 15 18 29 30 31 26 2 -4 -7 -19 -19
-33z m500 17 c-10 -11 -10 -14 -1 -9 8 5 12 0 12 -17 0 -14 6 -40 14 -58 8
-19 17 -53 21 -76 6 -39 5 -43 -14 -43 -18 0 -21 6 -21 44 0 23 -5 58 -12 76
-10 30 -12 32 -19 14 -4 -10 -5 -45 -2 -76 5 -48 3 -58 -9 -58 -23 0 -29 93
-10 149 16 51 29 71 44 71 6 0 4 -8 -3 -17z m166 -33 c3 -5 2 -10 -4 -10 -5 0
-13 5 -16 10 -3 6 -2 10 4 10 5 0 13 -4 16 -10z m60 0 c3 -5 -1 -10 -10 -10
-9 0 -13 5 -10 10 3 6 8 10 10 10 2 0 7 -4 10 -10z m667 -164 c14 -13 31 -40
36 -60 9 -32 8 -37 -11 -47 -12 -6 -29 -20 -38 -31 -14 -18 -19 -19 -40 -7
-24 13 -30 15 -49 18 -15 2 -32 40 -23 54 4 6 6 24 4 39 -2 23 1 28 21 28 13
0 32 7 42 15 25 19 26 19 58 -9z m838 -21 c0 -23 -12 -45 -21 -39 -5 3 -9 18
-9 34 0 22 4 28 15 24 8 -4 15 -12 15 -19z m-296 -223 c-6 -14 -8 -13 -14 8
-9 31 0 48 12 26 5 -10 6 -25 2 -34z m-808 11 c-10 -10 -19 5 -10 18 6 11 8
11 12 0 2 -7 1 -15 -2 -18z m761 -38 c-1 -63 -9 -81 -21 -50 -3 8 -12 15 -19
15 -22 0 -42 29 -30 41 8 8 14 5 22 -10 17 -31 31 -26 25 9 -7 32 0 60 15 60
5 0 8 -29 8 -65z m-97 -5 c0 -5 -5 -10 -11 -10 -5 0 -7 5 -4 10 3 6 8 10 11
10 2 0 4 -4 4 -10z m-13 -82 c-2 -13 -4 -3 -4 22 0 25 2 35 4 23 2 -13 2 -33
0 -45z m-1047 -22 c0 -15 -14 -35 -21 -30 -5 3 -9 1 -9 -4 0 -6 -9 -8 -20 -5
-11 3 -20 12 -20 20 0 11 7 13 26 9 17 -5 23 -3 19 4 -3 5 1 10 9 10 9 0 16
-2 16 -4z m35 -46 c3 -5 1 -10 -4 -10 -6 0 -11 5 -11 10 0 6 2 10 4 10 3 0 8
-4 11 -10z m1395 -29 c0 -12 -20 -25 -27 -18 -7 7 6 27 18 27 5 0 9 -4 9 -9z
m-198 -103 c-7 -7 -12 -8 -12 -2 0 14 12 26 19 19 2 -3 -1 -11 -7 -17z m-1336
-147 c-24 -27 -95 -75 -101 -69 -4 4 103 87 114 88 2 0 -4 -9 -13 -19z"/>
<path d="M6420 5300 c0 -5 4 -10 9 -10 6 0 13 5 16 10 3 6 -1 10 -9 10 -9 0
-16 -4 -16 -10z"/>
<path d="M8115 4179 c4 -5 1 -16 -5 -24 -15 -18 1 -20 18 -3 16 16 15 25 -4
32 -9 3 -12 2 -9 -5z"/>
<path d="M7955 3990 c3 -5 8 -10 11 -10 2 0 4 5 4 10 0 6 -5 10 -11 10 -5 0
-7 -4 -4 -10z"/>
<path d="M6267 1180 c-3 -11 -1 -20 4 -20 5 0 9 9 9 20 0 11 -2 20 -4 20 -2 0
-6 -9 -9 -20z"/>
<path d="M7070 756 c0 -9 7 -16 16 -16 9 0 14 5 12 12 -6 18 -28 21 -28 4z"/>
<path d="M7112 689 c2 -6 8 -10 13 -10 5 0 11 4 13 10 2 6 -4 11 -13 11 -9 0
-15 -5 -13 -11z"/>
<path d="M5380 5219 c-6 -11 -10 -28 -8 -37 3 -13 8 -9 21 15 20 37 21 43 7
43 -5 0 -14 -9 -20 -21z"/>
<path d="M5495 5180 c3 -5 8 -10 11 -10 2 0 4 5 4 10 0 6 -5 10 -11 10 -5 0
-7 -4 -4 -10z"/>
<path d="M5201 5084 c0 -11 3 -14 6 -6 3 7 2 16 -1 19 -3 4 -6 -2 -5 -13z"/>
<path d="M3750 4930 c0 -5 5 -10 11 -10 5 0 7 5 4 10 -3 6 -8 10 -11 10 -2 0
-4 -4 -4 -10z"/>
<path d="M3620 4923 c-55 -10 -86 -64 -70 -122 8 -30 18 -41 47 -54 38 -17 70
-25 107 -26 15 -1 18 -7 13 -33 l-5 -33 16 38 c10 20 24 39 33 42 9 3 22 19
29 35 16 38 20 139 7 147 -6 3 -7 1 -3 -5 15 -25 -6 -31 -47 -13 -52 22 -93
30 -127 24z m45 -120 c-16 -28 -16 -25 2 42 6 26 8 27 11 8 2 -12 -4 -34 -13
-50z m-35 -33 c-8 -5 -19 -10 -25 -10 -5 0 -3 5 5 10 8 5 20 10 25 10 6 0 3
-5 -5 -10z"/>
<path d="M5397 4903 c-12 -12 -7 -22 8 -17 8 4 15 10 15 15 0 11 -14 12 -23 2z"/>
<path d="M5350 4864 c0 -9 31 -66 35 -62 8 8 -8 57 -21 62 -8 3 -14 3 -14 0z"/>
<path d="M5406 4735 c-9 -26 -7 -32 5 -12 6 10 9 21 6 23 -2 3 -7 -2 -11 -11z"/>
<path d="M3606 4695 c-9 -26 -7 -32 5 -12 6 10 9 21 6 23 -2 3 -7 -2 -11 -11z"/>
<path d="M3676 4585 c-9 -26 -7 -32 5 -12 6 10 9 21 6 23 -2 3 -7 -2 -11 -11z"/>
<path d="M3595 4540 c3 -5 14 -10 23 -10 15 0 15 2 2 10 -20 13 -33 13 -25 0z"/>
<path d="M3640 4520 c0 -5 5 -10 10 -10 6 0 10 5 10 10 0 6 -4 10 -10 10 -5 0
-10 -4 -10 -10z"/>
<path d="M3463 4483 c-11 -4 -19 -43 -9 -43 2 0 19 -6 37 -14 l34 -14 0 30 c0
36 -29 55 -62 41z"/>
<path d="M3408 4413 c7 -3 16 -2 19 1 4 3 -2 6 -13 5 -11 0 -14 -3 -6 -6z"/>
<path d="M3447 4399 c7 -7 15 -10 18 -7 3 3 -2 9 -12 12 -14 6 -15 5 -6 -5z"/>
<path d="M3500 4376 c0 -2 16 -13 36 -25 19 -12 32 -16 29 -11 -7 11 -65 43
-65 36z"/>
<path d="M7288 4319 c-36 -25 -55 -45 -52 -54 3 -8 12 -11 19 -9 11 5 102 105
93 103 -2 0 -29 -18 -60 -40z"/>
<path d="M3416 4334 c-4 -10 -1 -14 6 -12 15 5 23 28 10 28 -5 0 -13 -7 -16
-16z"/>
<path d="M3425 4214 c16 -49 3 -89 -38 -114 l-30 -19 26 -6 c47 -12 74 2 97
50 21 44 21 45 3 82 -13 28 -25 39 -45 41 -26 3 -26 3 -13 -34z"/>
<path d="M7235 4219 c-11 -17 1 -21 15 -4 8 9 8 15 2 15 -6 0 -14 -5 -17 -11z"/>
<path d="M3525 4183 c-6 -17 10 -32 35 -33 8 0 22 -5 30 -10 11 -7 3 -8 -27
-4 -41 6 -42 5 -57 -30 -8 -20 -20 -36 -26 -36 -6 0 -18 -6 -25 -14 -12 -12
-11 -15 8 -20 37 -10 104 -7 132 6 45 20 71 98 46 137 -14 21 -108 24 -116 4z"/>
<path d="M3664 4086 c-3 -14 -19 -35 -34 -48 -16 -12 -27 -25 -24 -29 2 -4 35
-13 73 -19 63 -12 71 -11 94 6 24 18 47 54 47 74 0 4 -24 13 -52 20 -29 6 -63
13 -75 16 -18 5 -23 1 -29 -20z"/>
<path d="M6817 4081 c-4 -17 -2 -18 13 -8 10 6 16 15 14 19 -9 14 -22 9 -27
-11z"/>
<path d="M6658 3908 c14 -14 82 -38 82 -29 0 3 -21 14 -46 23 -26 9 -41 11
-36 6z"/>
<path d="M6774 3882 c-6 -4 -13 -14 -17 -23 -4 -13 2 -18 24 -21 22 -4 33 1
44 18 8 13 15 26 15 29 0 8 -53 6 -66 -3z"/>
<path d="M6710 3730 c-9 -6 -10 -10 -3 -10 6 0 15 5 18 10 8 12 4 12 -15 0z"/>
<path d="M5650 2319 c0 -5 5 -7 10 -4 6 3 10 8 10 11 0 2 -4 4 -10 4 -5 0 -10
-5 -10 -11z"/>
</g>
</svg>
